<svg xmlns="http://www.w3.org/2000/svg" width="400" height="400" viewBox="0 0 400 400" fill="rgba(97,97,97,0.99)">
  <path
    d="M200 400c-53.422 0-103.646-20.804-141.421-58.578C20.804 303.646 0 253.422 0 200S20.804 96.354 58.579 58.579 146.578 0 200 0s103.646 20.804 141.422 58.579C379.196 96.354 400 146.578 400 200s-20.804 103.646-58.578 141.422C303.646 379.196 253.422 400 200 400zM200 52.174c-81.512 0-147.826 66.314-147.826 147.826S118.488 347.826 200 347.826 347.826 281.512 347.826 200 281.512 52.174 200 52.174z"/>
</svg>
