<svg xmlns="http://www.w3.org/2000/svg" width="418.502" height="400" viewBox="0 0 418.502 400"
     fill="rgba(97,97,97,0.99)">
  <path
    d="M408.228 217.103c-13.967-14.464-37.031-14.784-51.46-0.817l-65.639 63.631V166.922C291.129 74.879 216.25 0 124.206 0H36.391C16.294 0 0 16.294 0 36.391s16.294 36.391 36.391 36.391h87.815c51.903 0 94.141 42.237 94.141 94.141v108.552l-61.108-59.188c-14.464-13.984-37.51-13.665-51.459 0.817 -13.984 14.446-13.611 37.475 0.817 51.477l125.147 121.186c7.037 6.823 16.17 10.234 25.304 10.234 9.133 0 18.267-3.411 25.339-10.271l125.059-121.185C421.874 254.578 422.229 231.549 408.228 217.103z"/>
</svg>
