<svg xmlns="http://www.w3.org/2000/svg" width="418.502" height="400" viewBox="0 0 418.502 400" fill="rgba(235,222,246,0.99)">
	<path d="M10.274 182.896c13.967 14.464 37.031 14.784 51.46 0.817l65.639-63.631v112.994C127.373 325.12 202.252 400 294.296 400h87.815c20.097 0 36.391-16.295 36.391-36.392s-16.294-36.391-36.391-36.391h-87.815c-51.903 0-94.141-42.237-94.141-94.141V124.525l61.108 59.188c14.464 13.984 37.51 13.665 51.459-0.817 13.984-14.446 13.611-37.475-0.817-51.477L186.758 10.234C179.721 3.411 170.588 0 161.454 0c-9.133 0-18.267 3.411-25.339 10.271L11.057 131.455C-3.372 145.421-3.728 168.45 10.274 182.896z"/>
</svg>
