<svg xmlns="http://www.w3.org/2000/svg" width="566.667" height="400" viewBox="0 0 566.667 400">
	<path d="M533.333 66.667H200c-18.408 0-33.333-14.926-33.333-33.334S181.592 0 200 0h333.333c18.425 0 33.334 14.925 33.334 33.333S551.758 66.667 533.333 66.667z"/>
	<path d="M533.333 233.333H200c-18.408 0-33.333-14.908-33.333-33.333 0-18.408 14.925-33.333 33.333-33.333h333.333c18.425 0 33.334 14.925 33.334 33.333C566.667 218.425 551.758 233.333 533.333 233.333z"/>
	<path d="M533.333 400H200c-18.408 0-33.333-14.909-33.333-33.333 0-18.425 14.925-33.334 33.333-33.334h333.333c18.425 0 33.334 14.909 33.334 33.334C566.667 385.091 551.758 400 533.333 400z"/>
	<path d="M33.333 66.667c-9 0-17.334-3.679-23.665-9.668C3.662 50.667 0 41.992 0 33.333c0-8.675 3.662-17.334 9.668-23.665 12.663-12.337 34.651-12.337 47.331 0 5.989 6.331 9.668 14.99 9.668 23.665 0 8.659-3.679 17.334-9.668 23.666C50.667 62.988 41.992 66.667 33.333 66.667z"/>
	<path d="M33.333 233.333c-8.675 0-17.334-3.678-23.665-9.668C3.662 217.317 0 208.984 0 200c0-8.675 3.662-17.334 9.668-23.665 12.321-12.338 34.651-12.338 47.331 0 5.989 6.331 9.668 14.99 9.668 23.665 0 8.659-3.679 17.317-9.668 23.665C50.667 229.655 41.992 233.333 33.333 233.333z"/>
	<path d="M33.333 400c-8.675 0-17.334-3.679-23.665-9.668C3.662 383.984 0 375.651 0 366.667c0-9.018 3.662-17.351 9.668-23.666 12.663-12.337 34.651-12.337 47.331 0 5.989 6.315 9.668 15.007 9.668 23.666 0 8.658-3.679 17.317-9.668 23.665C50.667 396.321 41.992 400 33.333 400z"/>
</svg>
