<svg xmlns="http://www.w3.org/2000/svg" width="400.029" height="400" viewBox="0 0 400.029 400">
	<path d="M381.346 186.744L215.517 20.902C203.883 9.256 188.395 2.646 171.908 2.256L72.468 0C55.7 0 39.286 6.805 27.432 18.646l-8.757 8.744C6.419 39.671-0.385 56.646 0.017 73.939l2.244 97.976c0.378 16.451 7.012 31.938 18.671 43.597l165.816 165.806C198.797 393.366 214.81 400 231.834 400s33.024-6.634 45.049-18.683l104.463-104.439c12.049-12.049 18.683-28.049 18.683-45.073S393.395 198.78 381.346 186.744zM363.688 259.22L259.224 363.658c-14.658 14.684-40.195 14.635-54.805 0L38.59 197.854c-7.098-7.098-11.122-16.512-11.354-26.512l-2.244-97.976c-0.256-10.524 3.891-20.842 11.354-28.306l8.744-8.743c7.195-7.195 17.158-11.329 28.256-11.329 0.013 0 0.024 0 0.049 0l97.939 2.243c10.024 0.232 19.451 4.257 26.524 11.329l165.829 165.854c7.316 7.316 11.365 17.049 11.365 27.39C375.053 242.146 371.004 251.902 363.688 259.22z"/>
	<path d="M87.505 87.488c-10.988 10.987-10.988 28.768 0 39.756 10.987 11 28.78 11 39.768 0 10.964-10.988 10.964-28.769 0-39.756C116.286 76.524 98.493 76.524 87.505 87.488z"/>
</svg>
