<svg xmlns="http://www.w3.org/2000/svg" width="118.585" height="400" viewBox="0 0 118.585 400"
     fill="rgba(97,97,97,0.99)">
  <path
    d="M114.705 49.632L68.519 3.808c-5.115-5.077-13.359-5.077-18.463 0L3.867 49.632c-3.766 3.733-4.905 10.961-2.868 15.875 2.003 4.907 6.805 9.689 12.11 9.689H46.99v235.188c-26.223 6.567-31.326 23.484-31.326 43.34 0 25.508 20.18 46.274 45.697 46.274 25.508 0 47.133-20.767 47.133-46.274 0-22.045-22.164-40.482-35.275-45.119V75.196h32.269c5.3 0 10.087-4.782 12.122-9.689C119.621 60.593 118.466 53.366 114.705 49.632M80.824 353.727c0 11.075-8.986 20.053-20.025 20.053 -11.067 0-20.062-8.987-20.062-20.053 0-11.062 9.008-20.035 20.062-20.035C71.835 333.675 80.824 342.664 80.824 353.727"/>
</svg>
