<svg xmlns="http://www.w3.org/2000/svg" width="296.128" height="400" viewBox="0 0 296.128 400"
     fill="rgba(97,97,97,0.99)">
  <path
    d="M97.073 48.528C97.073 21.764 75.292 0 48.528 0S0 21.764 0 48.528c0 21.348 13.942 39.315 33.13 45.788V305.66C13.942 312.14 0 330.108 0 351.447 0 378.203 21.765 400 48.528 400s48.545-21.797 48.545-48.553c0-20.34-12.625-37.735-30.43-44.936V93.473C84.448 86.272 97.073 68.877 97.073 48.528zM48.528 33.514c8.297 0 15.03 6.733 15.03 15.014s-6.733 15.015-15.03 15.015c-8.28 0-15.015-6.734-15.015-15.015S40.248 33.514 48.528 33.514zM48.528 366.454c-8.28 0-15.015-6.742-15.015-15.007 0-8.28 6.734-15.006 15.015-15.006 8.297 0 15.03 6.726 15.03 15.006C63.559 359.711 56.825 366.454 48.528 366.454z"/>
  <path
    d="M267.72 307.427v-98.726c0-11.201-4.812-22.395-13.157-30.707l-75.193-75.424 16.985-16.978c4.795-4.795 6.235-12.012 3.617-18.279 -2.586-6.251-8.689-10.325-15.465-10.325 -0.032 0-0.049 0-0.065 0l-62.331 0.237c-9.205 0.032-16.659 7.486-16.691 16.691l-0.237 62.331c-0.033 6.792 4.058 12.92 10.325 15.538 2.079 0.867 4.255 1.285 6.432 1.285 4.361 0 8.632-1.702 11.848-4.91l21.887-21.887 75.194 75.431c2.095 2.079 3.338 4.688 3.338 6.996v96.337c-20.226 5.858-35.15 24.35-35.15 46.425 0 26.739 21.765 48.536 48.537 48.536 26.771 0 48.536-21.78 48.536-48.536C296.128 331.892 284.428 315.102 267.72 307.427zM247.592 366.486c-8.28 0-15.022-6.742-15.022-15.022 0-8.297 6.742-15.022 15.022-15.022s15.022 6.742 15.022 15.022S255.872 366.486 247.592 366.486z"/>
</svg>
