<svg xmlns="http://www.w3.org/2000/svg" width="600" height="400" viewBox="0 0 600 400">
  <path
    d="M566.667 66.667H233.333C214.925 66.667 200 51.741 200 33.333S214.925 0 233.333 0h333.334C585.091 0 600 14.925 600 33.333S585.091 66.667 566.667 66.667z"/>
  <path
    d="M566.667 233.333H233.333C214.925 233.333 200 218.425 200 200c0-18.408 14.925-33.333 33.333-33.333h333.334C585.091 166.667 600 181.592 600 200 600 218.425 585.091 233.333 566.667 233.333z"/>
  <path
    d="M566.667 400H233.333C214.925 400 200 385.091 200 366.667c0-18.425 14.925-33.334 33.333-33.334h333.334c18.424 0 33.333 14.909 33.333 33.334C600 385.091 585.091 400 566.667 400z"/>
  <path
    d="M100 66.667H33.333C14.925 66.667 0 51.741 0 33.333S14.925 0 33.333 0H100c18.408 0 33.333 14.925 33.333 33.333S118.408 66.667 100 66.667z"/>
  <path
    d="M100 233.333H33.333C14.925 233.333 0 218.425 0 200c0-18.408 14.925-33.333 33.333-33.333H100c18.408 0 33.333 14.925 33.333 33.333C133.333 218.425 118.408 233.333 100 233.333z"/>
  <path
    d="M100 400H33.333C14.925 400 0 385.091 0 366.667c0-18.425 14.925-33.334 33.333-33.334H100c18.408 0 33.333 14.909 33.333 33.334C133.333 385.091 118.408 400 100 400z"/>
</svg>
