<svg xmlns="http://www.w3.org/2000/svg" width="370.574" height="400" viewBox="0 0 370.574 400">
	<path d="M362.381 46.95c-10.925-10.925-28.624-10.925-39.548 0L300.9 68.878c-2.075-2.772-3.96-5.64-6.364-8.193l-29.797-31.774C247.505 10.542 223.17 0 197.96 0H91.564C41.078 0 0 41.078 0 91.561v216.86C0 358.922 41.078 400 91.564 400h136.167c50.5 0 91.578-41.077 91.578-91.578V129.567l43.071-43.072C373.306 75.57 373.306 57.872 362.381 46.95zM263.373 308.421c0 19.665-15.978 35.643-35.642 35.643H91.564c-19.651 0-35.629-15.978-35.629-35.643V91.561c0-19.651 15.978-35.629 35.629-35.629H197.96c9.806 0 19.283 4.097 25.974 11.239l29.826 31.792c2.867 3.072 4.997 6.65 6.609 10.434L145.698 224.082c-10.925 10.925-10.925 28.623 0 39.548 5.462 5.462 12.618 8.194 19.774 8.194 7.169 0 14.324-2.732 19.787-8.194l78.113-78.113V308.421z"/>
</svg>
