<svg xmlns="http://www.w3.org/2000/svg" width="323.686" height="400" viewBox="0 0 323.686 400">
	<path d="M271.131 128.27V97.431C271.131 42.557 211.94 0 161.044 0 109.073 0 50.958 40.299 50.958 94.221v34.126c0 0.138 0.077 0.261 0.077 0.399C21.64 137.485 0 164.438 0 196.629v132.263C0 368.086 31.914 400 71.139 400h181.439c39.225 0 71.107-31.914 71.107-71.108V196.629C323.686 163.871 301.324 136.487 271.131 128.27zM161.044 62.907c20.733 0 47.181 19.366 47.181 34.524v28.075h-94.36V94.221C113.864 79.877 139.436 62.907 161.044 62.907zM260.779 328.892c0 4.516-3.686 8.201-8.201 8.201H71.139c-4.546 0-8.232-3.686-8.232-8.201V196.629c0-4.531 3.687-8.217 8.232-8.217h181.439c4.516 0 8.201 3.686 8.201 8.217V328.892z"/>
</svg>
