<svg xmlns="http://www.w3.org/2000/svg" width="118.64" height="99.998" viewBox="0.083 0.322 118.64 99.998">
  <path
    d="M110.049 43.936L59.407 62.04 8.75 43.936c-3.369-1.191-7.084 0.552-8.291 3.926 -1.201 3.374 0.557 7.09 3.925 8.296l52.839 18.876c0.708 0.249 1.445 0.376 2.183 0.376s1.475-0.127 2.183-0.376l52.834-18.876c3.369-1.211 5.127-4.922 3.916-8.296C117.148 44.487 113.438 42.729 110.049 43.936z"/>
  <path
    d="M4.385 31.788l52.839 18.876c0.708 0.249 1.445 0.376 2.183 0.376s1.475-0.127 2.183-0.376l52.834-18.876c2.578-0.928 4.297-3.374 4.297-6.113s-1.719-5.186-4.307-6.107L61.59 0.696c-1.411-0.498-2.954-0.498-4.365 0L4.385 19.567c-2.578 0.922-4.301 3.368-4.301 6.107S1.808 30.86 4.385 31.788zM59.407 13.693l33.548 11.981L59.407 37.667 25.85 25.675 59.407 13.693z"/>
  <path
    d="M110.049 68.847L59.407 86.941 8.75 68.847c-3.369-1.216-7.084 0.552-8.291 3.931 -1.201 3.369 0.557 7.08 3.925 8.285l52.839 18.877c0.708 0.254 1.445 0.381 2.183 0.381s1.475-0.127 2.183-0.381l52.834-18.877c3.369-1.205 5.127-4.916 3.916-8.295C117.148 69.398 113.438 67.631 110.049 68.847z"/>
</svg>
