<svg xmlns="http://www.w3.org/2000/svg" width="167.026" height="400" viewBox="0 0 167.026 400">
	<path d="M167.026 259.502v-124.89c0-31.744-23.438-57.887-53.881-62.587C107.479 31.448 72.889 0 30.766 0 16.2 0 4.392 11.809 4.392 26.374c0 14.565 11.809 26.374 26.374 26.374 12.71 0 23.631 7.74 28.331 18.75C26.155 73.842 0 101.091 0 134.613v124.89c0 33.045 25.446 59.985 57.731 62.973C60.874 365.693 96.661 400 140.652 400c14.578 0 26.374-11.797 26.374-26.374 0-14.578-11.796-26.374-26.374-26.374 -14.913 0-26.786-10.869-29.594-24.958C142.507 318.483 167.026 291.955 167.026 259.502zM114.278 259.502c0 5.976-4.842 10.817-10.817 10.817H63.565c-5.963 0-10.817-4.842-10.817-10.817v-124.89c0-5.963 4.854-10.817 10.817-10.817h39.896c5.976 0 10.817 4.854 10.817 10.817V259.502z"/>
</svg>
