<svg xmlns="http://www.w3.org/2000/svg" width="647.74" height="400.005" viewBox="0 0 647.74 400.005">
	<path d="M239.706 14.17c-17.614-18.312-46.755-18.94-65.065-1.349L14.154 166.815C5.123 175.509 0 187.485 0 200.022s5.123 24.512 14.154 33.185l160.486 153.992c8.919 8.538 20.4 12.807 31.858 12.807 12.088 0 24.176-4.718 33.207-14.154 17.593-18.334 16.986-47.451-1.348-65.066L112.473 200.022 238.358 79.236C256.692 61.644 257.299 32.503 239.706 14.17z"/>
	<path d="M633.586 166.77L473.077 12.799c-18.379-17.569-47.496-16.985-65.066 1.349 -17.569 18.355-16.985 47.474 1.349 65.065l125.908 120.764L409.359 320.785c-18.334 17.615-18.918 46.732-1.349 65.066 9.032 9.437 21.12 14.154 33.207 14.154 11.459 0 22.917-4.269 31.859-12.807l160.509-154.037c9.031-8.673 14.154-20.647 14.154-33.185S642.617 175.442 633.586 166.77z"/>
</svg>
