<svg xmlns="http://www.w3.org/2000/svg" viewBox="0 0 100 129.9">
	<path fill="#8151A8" d="M49.3 53.6c-6.7 0-12.1 5.4-12.1 12.1 0 6.7 5.4 12.1 12.1 12.1 6.7 0 12.1-5.4 12.1-12.1C61.4 59 56 53.6 49.3 53.6zM49.3 74.4c-4.8 0-8.7-3.9-8.7-8.7 0-4.8 3.9-8.7 8.7-8.7 4.8 0 8.7 3.9 8.7 8.7C58 70.5 54.1 74.4 49.3 74.4z"/>
	<path fill="#8151A8" d="M77.8 59.4l-6.2-0.6c-0.4-1.4-0.9-2.6-1.4-3.6l4.2-5c0.6-0.7 0.5-1.7-0.1-2.3l-6.9-6.9c-0.6-0.6-1.6-0.7-2.3-0.1l-5 4.1c-0.1 0-0.2-0.1-0.2-0.1 -1-0.7-2.2-1.4-3.4-1.9l-0.6-7.2c-0.1-0.9-0.8-1.6-1.7-1.6h-9.8c-0.9 0-1.6 0.7-1.7 1.6l-0.6 7.1c-1.3 0.5-2.5 1.1-3.7 1.8l-5-4c-0.7-0.5-1.7-0.5-2.3 0.1l-6.9 7c-0.6 0.6-0.7 1.6-0.1 2.3l4.2 5.1c-0.4 1-0.5 2-0.6 2.9 0 0.3-0.1 0.5-0.1 0.7l-5.5 0.6c-0.9 0.1-1.5 0.8-1.5 1.7v9.8c0 0.9 0.7 1.6 1.5 1.7l5.5 0.6c0 0 0 0.1 0 0.1 0.3 1.2 0.6 2.3 1.1 3.5l-4.4 5.1c-0.6 0.7-0.6 1.7 0.1 2.3l6.8 6.9c0.6 0.6 1.6 0.7 2.3 0.1l5-4.2c1.2 0.5 2.4 0.9 3.6 1.2l0.6 6.1c0.1 0.9 0.8 1.6 1.7 1.6h9.8c0.9 0 1.6-0.7 1.7-1.5l0.6-6.1c1.2-0.3 2.4-0.7 3.6-1.3l5 4.3c0.7 0.6 1.7 0.5 2.3-0.1l6.9-6.9c0.6-0.6 0.7-1.6 0.1-2.3l-4.2-5c0.6-1.2 1-2.4 1.3-3.6l6.2-0.6c0.9-0.1 1.6-0.8 1.6-1.7v-9.8C79.3 60.2 78.6 59.4 77.8 59.4zM75.9 69.3L70 69.8c-0.7 0.1-1.3 0.6-1.5 1.3 -0.5 1.7-0.9 3.5-1.8 5 -0.4 0.6-0.3 1.4 0.2 2l3.9 4.7 -4.7 4.6 -4.7-4c-0.6-0.5-1.3-0.5-2-0.2 -1.4 0.8-3 1.3-5 1.9 -0.7 0.2-1.2 0.8-1.3 1.5l-0.6 5.7H46l-0.5-5.7c-0.1-0.7-0.6-1.3-1.3-1.5l-0.9-0.2c-1.5-0.4-2.9-0.7-4.1-1.5 -0.6-0.4-1.4-0.3-2 0.2l-4.6 3.9L28 82.8l4.1-4.7c0.5-0.6 0.6-1.4 0.2-2 -0.6-1.1-0.9-2.3-1.3-3.7 -0.1-0.4-0.2-0.9-0.3-1.3 -0.2-0.7-0.8-1.2-1.5-1.3l-5.2-0.5v-6.7l5.2-0.6c0.7-0.1 1.3-0.6 1.5-1.3 0.2-0.8 0.3-1.6 0.4-2.3 0.1-1 0.3-2 0.7-2.7 0.4-0.6 0.3-1.4-0.2-2L27.8 49l4.7-4.8 4.7 3.8c0.6 0.4 1.3 0.5 2 0.1 1.6-0.9 3.3-1.9 5-2.4 0.7-0.2 1.2-0.8 1.3-1.5l0.6-6.7h6.6l0.6 6.7c0.1 0.7 0.6 1.3 1.3 1.5 1.2 0.3 2.4 1.1 3.6 1.9 0.5 0.3 0.9 0.6 1.4 0.8 0.6 0.4 1.4 0.3 2-0.2l4.7-3.9 4.7 4.7 -4 4.7c-0.5 0.6-0.5 1.3-0.2 2 0.8 1.3 1.4 2.9 1.9 5 0.2 0.7 0.8 1.2 1.5 1.3l5.9 0.6V69.3z"/>
	<path fill="#8151A8" d="M100 20.1C100 20.1 100 20.1 100 20.1l0-0.5c0-0.4-0.2-0.8-0.4-1.1l-16.1-18C83.2 0.2 82.7 0 82.2 0h-63C8.6 0 0 8.6 0 19.2v91.5c0 10.6 8.6 19.2 19.2 19.2h61.7c10.6 0 19.2-8.6 19.2-19.2L100 20.1C100 20.2 100 20.2 100 20.1zM84.2 6.5l10.7 11.9H84.2V6.5zM80.8 126.4H19.2c-8.7 0-15.7-7.1-15.7-15.7V19.2c0-8.7 7.1-15.7 15.7-15.7h61.6c0 0 0 0 0 0v16.7c0 0.9 0.8 1.7 1.7 1.7h14.1v88.8C96.6 119.4 89.5 126.4 80.8 126.4z"/>
</svg>

