<svg xmlns="http://www.w3.org/2000/svg" viewBox="0 0 100 129.9">
	<path fill="#33E4B3" d="M100 20.1C100 20.1 100 20.1 100 20.1l0-0.5c0-0.4-0.2-0.8-0.4-1.1l-16.1-18C83.2 0.2 82.7 0 82.2 0h-63C8.6 0 0 8.6 0 19.2v91.5c0 10.6 8.6 19.2 19.2 19.2h61.7c10.6 0 19.2-8.6 19.2-19.2L100 20.1C100 20.2 100 20.2 100 20.1zM84.2 6.5l10.7 11.9H84.2V6.5zM80.8 126.4H19.2c-8.7 0-15.7-7.1-15.7-15.7V19.2c0-8.7 7.1-15.7 15.7-15.7h61.6c0 0 0 0 0 0v16.7c0 0.9 0.8 1.7 1.7 1.7h14.1v88.8C96.6 119.4 89.5 126.4 80.8 126.4z"/>
	<circle fill="#33E4B3" cx="58.8" cy="56.8" r="2.2"/>
	<path fill="#33E4B3" d="M69.6 48.5c-10.9-10.9-28.6-10.9-39.5 0 -10.9 10.9-10.9 28.6 0 39.5 5.4 5.4 12.6 8.2 19.8 8.2 7.2 0 14.3-2.7 19.8-8.2C80.5 77.1 80.5 59.4 69.6 48.5 69.6 48.5 69.6 48.5 69.6 48.5zM72.4 77.9C70 77.2 61.9 74.6 53.3 66c-0.7-0.7-1.8-0.7-2.4 0 -0.7 0.7-0.7 1.8 0 2.4C59.4 76.9 67.4 80 70.8 81c-0.8 1.4-1.8 2.7-3 3.9 -3.2-0.8-14.4-4.4-26.3-16.3 -0.7-0.7-1.8-0.7-2.4 0 -0.7 0.7-0.7 1.8 0 2.4 10.7 10.7 20.7 15 25.7 16.6 -9.6 7.5-23.5 6.8-32.3-2C23 76 23 60.5 32.5 50.9c4.8-4.8 11.1-7.2 17.3-7.2 6.3 0 12.6 2.4 17.3 7.2C74.5 58.2 76.2 68.9 72.4 77.9z"/>
	<circle fill="#33E4B3" cx="47.3" cy="54.1" r="5"/>
</svg>
