<svg xmlns="http://www.w3.org/2000/svg" width="436.705" height="400" viewBox="0 0 436.705 400">
	<path d="M379.165 0H57.526C25.8 0 0 25.8 0 57.527v284.947C0 374.2 25.8 400 57.526 400h321.639c31.712 0 57.54-25.8 57.54-57.526V57.527C436.705 25.8 410.877 0 379.165 0zM57.526 14.694h321.639c23.604 0 42.847 19.214 42.847 42.833v6.701H14.694v-6.701C14.694 33.907 33.922 14.694 57.526 14.694zM379.165 385.307H57.526c-23.604 0-42.833-19.214-42.833-42.833V78.921h407.318v263.553C422.011 366.093 402.769 385.307 379.165 385.307z"/>
	<path d="M76.166 161.487h174.301c4.061 0 7.347-3.3 7.347-7.347 0-4.061-3.286-7.347-7.347-7.347H76.166c-4.061 0-7.347 3.286-7.347 7.347C68.819 158.187 72.091 161.487 76.166 161.487z"/>
	<path d="M195.408 275.204H76.166c-4.061 0-7.347 3.301-7.347 7.348 0 4.061 3.286 7.347 7.347 7.347h119.257c4.061 0 7.347-3.286 7.347-7.347C202.769 278.505 199.483 275.204 195.408 275.204z"/>
	<path d="M360.54 275.204h-128.44c-4.047 0-7.347 3.301-7.347 7.348 0 4.061 3.3 7.347 7.347 7.347h128.44c4.061 0 7.347-3.286 7.347-7.347C367.886 278.505 364.6 275.204 360.54 275.204z"/>
	<path d="M76.166 234.855h64.228c4.046 0 7.347-3.286 7.347-7.347 0-4.047-3.301-7.347-7.347-7.347H76.166c-4.061 0-7.347 3.3-7.347 7.347C68.819 231.569 72.091 234.855 76.166 234.855z"/>
	<path d="M188.061 227.508c0 4.061 3.3 7.347 7.347 7.347h119.257c4.061 0 7.347-3.286 7.347-7.347 0-4.047-3.286-7.347-7.347-7.347H195.408C191.361 220.161 188.061 223.461 188.061 227.508z"/>
	<path d="M360.54 146.793h-73.396c-4.047 0-7.348 3.286-7.348 7.347 0 4.047 3.301 7.347 7.348 7.347h73.396c4.061 0 7.347-3.3 7.347-7.347C367.886 150.079 364.6 146.793 360.54 146.793z"/>
</svg>
