<svg xmlns="http://www.w3.org/2000/svg" width="482.271" height="400" viewBox="0 0 482.271 400">
	<path d="M322.752 0c-68.579 0-129.401 43.94-151.14 107.98 -17.505-10.364-37.271-15.802-57.73-15.802C51.088 92.179 0 143.446 0 206.455c0 63.016 50.174 114.284 111.855 114.284h93.777c3.915 0 7.084-3.169 7.084-7.085s-3.169-7.085-7.084-7.085h-93.777c-53.862 0-97.686-44.916-97.686-100.114 0-55.197 44.729-100.107 99.713-100.107 20.729 0 40.661 6.387 57.64 18.467 1.883 1.335 4.311 1.681 6.49 0.899 2.18-0.775 3.847-2.574 4.456-4.802 17.158-62.85 74.847-106.743 140.284-106.743 80.146 0 145.349 65.5 145.349 146.006 0 80.721-65.133 146.394-145.183 146.394h-33.75c-3.916 0-7.085 3.169-7.085 7.085s3.169 7.085 7.085 7.085h33.75c87.868 0 159.353-72.024 159.353-160.563C482.271 71.852 410.717 0 322.752 0z"/>
	<path d="M322.558 257.682c1.384 1.384 3.197 2.075 5.01 2.075s3.625-0.691 5.009-2.075c2.768-2.768 2.768-7.251 0-10.019l-81.6-81.6c-2.768-2.768-7.251-2.768-10.019 0l-78.797 78.791c-2.768 2.768-2.768 7.251 0 10.018 2.768 2.768 7.251 2.768 10.019 0l68.143-68.136v206.179c0 3.916 3.168 7.085 7.084 7.085s7.085-3.169 7.085-7.085v-203.3L322.558 257.682z"/>
</svg>
