<svg xmlns="http://www.w3.org/2000/svg" width="540.86" height="400" viewBox="0 0 540.86 400">
	<path d="M475.263 1.488C474.044 0.617 472.636 0 471.025 0H195.541c-38.896 0-73.014 34.577-73.014 73.994v245.357H7.432c-4.108 0-7.432 3.324-7.432 7.432 0 42.052 29.583 72.564 70.342 72.564h266.587c3.354 0.436 6.721 0.653 10.074 0.653 36.972 0 65.93-31.833 65.93-72.404l2.032-247.622h118.462c4.108 0 7.433-3.324 7.433-7.433C540.86 32.13 514.049 3.709 475.263 1.488zM70.342 384.483c-30.229 0-52.017-20.322-55.101-50.268H271.13c2.075 21.846 13.268 38.975 28.566 50.268H70.342zM400.189 70.19l-2.119 257.348c0 31.746-20.525 55.958-48.207 57.512 -0.871-0.363-1.844-0.566-2.859-0.566h-9.087c-27.028-3.876-52.271-24.836-52.271-57.7 0-4.107-3.324-7.432-7.433-7.432H137.39V73.994c0-30.947 27.718-59.13 58.15-59.13h232.736C411.206 27.37 400.189 47.219 400.189 70.19zM415.285 65.11c2.569-27.965 25.896-49.187 55.232-49.187 30.686 0 52.067 19.466 55.102 49.187H415.285z"/>
	<path d="M316.128 180.835l-36.101 36.094V94.243c0-4.107-3.323-7.432-7.432-7.432 -4.107 0-7.432 3.324-7.432 7.432v124.108l-39.287-39.286c-2.902-2.903-7.605-2.903-10.509 0s-2.903 7.606 0 10.509l51.262 51.263c1.451 1.451 3.354 2.177 5.255 2.177s3.803-0.726 5.255-2.177l49.498-49.491c2.903-2.903 2.903-7.606 0-10.51S319.032 177.932 316.128 180.835z"/>
</svg>
