<svg xmlns="http://www.w3.org/2000/svg" viewBox="0 0 77.1 100">
	<path d="M77 15.5L77 15.5v-0.4c0-0.3-0.2-0.6-0.3-0.8L64.3 0.4C64 0.2 63.7 0 63.3 0H14.8C6.6 0 0 6.6 0 14.8v70.4C0 93.4 6.6 100 14.8 100h47.5c8.2 0 14.8-6.6 14.8-14.8L77 15.5C77 15.6 77 15.6 77 15.5zM64.8 5l8.2 9.2h-8.2V5zM62.2 97.3H14.8c-6.7 0-12.1-5.5-12.1-12.1V14.8c0-6.7 5.5-12.1 12.1-12.1h47.4l0 0v12.9c0 0.7 0.6 1.3 1.3 1.3h10.9v68.4C74.4 91.9 68.9 97.3 62.2 97.3z"/>
	<circle cx="45.3" cy="43.7" r="1.7"/>
	<path d="M53.6 37.3c-8.4-8.4-22-8.4-30.4 0s-8.4 22 0 30.4c4.2 4.2 9.7 6.3 15.2 6.3s11-2.1 15.2-6.3C62 59.4 62 45.7 53.6 37.3L53.6 37.3zM55.7 60c-1.8-0.5-8.1-2.5-14.7-9.2 -0.5-0.5-1.4-0.5-1.8 0 -0.5 0.5-0.5 1.4 0 1.8 6.5 6.5 12.7 8.9 15.3 9.7 -0.6 1.1-1.4 2.1-2.3 3 -2.5-0.6-11.1-3.4-20.2-12.5 -0.5-0.5-1.4-0.5-1.8 0 -0.5 0.5-0.5 1.4 0 1.8 8.2 8.2 15.9 11.5 19.8 12.8 -7.4 5.8-18.1 5.2-24.9-1.5 -7.3-7.4-7.3-19.3 0-26.7 3.7-3.7 8.5-5.5 13.3-5.5 4.8 0 9.7 1.8 13.3 5.5C57.4 44.8 58.7 53 55.7 60z"/>
	<circle cx="36.4" cy="41.6" r="3.8"/>
</svg>
