<svg xmlns="http://www.w3.org/2000/svg" viewBox="0 0 77.1 100">
  <path
    d="M14.2 60.7h20.2c0.7 0 1.3-0.6 1.3-1.3 0-0.7-0.6-1.3-1.3-1.3H14.2c-0.7 0-1.3 0.6-1.3 1.3C12.9 60.1 13.4 60.7 14.2 60.7z"/>
  <path
    d="M45.3 67.6H14.2c-0.7 0-1.3 0.6-1.3 1.3 0 0.7 0.6 1.3 1.3 1.3h31.1c0.7 0 1.3-0.6 1.3-1.3C46.6 68.2 46 67.6 45.3 67.6z"/>
  <path
    d="M12.9 50c0 0.7 0.6 1.3 1.3 1.3h50c0.7 0 1.3-0.6 1.3-1.3 0-0.7-0.6-1.3-1.3-1.3h-50C13.4 48.7 12.9 49.3 12.9 50z"/>
  <path
    d="M15.6 29.2c0.1 0.1 0.1 0.2 0.1 0.2v2.9c0 0.8 0.3 1.5 0.8 2.2 0.5 0.6 1.3 0.9 2.1 0.9l2.9 0.1c0.1 0 0.2 0.1 0.2 0.1l2 2.1c0.6 0.6 1.4 0.9 2.2 0.9s1.5-0.3 2.1-0.8l2.1-2c0.1-0.1 0.2-0.1 0.2-0.1l2.9 0.1h0.1c1.6 0 2.9-1.3 3-2.9l0.1-2.9c0-0.1 0.1-0.2 0.1-0.2l2.1-2c1.2-1.2 1.2-3 0.1-4.2l-2-2.1c-0.1-0.1-0.1-0.2-0.1-0.2l0.1-2.9c0.1-1.6-1.2-3-2.9-3.1L30.8 15c-0.1 0-0.2-0.1-0.2-0.1l-2-2.1c-0.5-0.6-1.3-0.9-2.1-0.9 -0.8 0-1.5 0.3-2.2 0.8l-2 1.9c-0.1 0.1-0.2 0.1-0.2 0.1l-2.9-0.1c-1.7 0-3 1.2-3.1 2.9L16 20.6c0 0.1-0.1 0.2-0.1 0.2l-2.1 2c-0.6 0.5-0.9 1.3-0.9 2.1s0.3 1.5 0.8 2.2L15.6 29.2zM15.6 24.7l2.1-2c0.6-0.5 0.9-1.3 0.9-2.1l0.1-2.9c0-0.2 0.2-0.4 0.4-0.4l0 0 2.9 0.1c0.8 0.1 1.5-0.3 2.2-0.8l2.1-2c0.1-0.1 0.2-0.1 0.2-0.1 0.1 0 0.2 0 0.2 0.1l2 2.1c0.5 0.6 1.3 0.9 2.1 0.9l2.9 0.1c0.2 0 0.4 0.2 0.4 0.4L34 20.9c0 0.8 0.3 1.5 0.8 2.2l2 2.1c0.2 0.2 0.2 0.4 0 0.5l-2.1 2c-0.6 0.5-0.9 1.3-0.9 2.1l-0.1 2.9c0 0.2-0.2 0.3-0.4 0.4h-3c-0.8 0-1.5 0.3-2.2 0.8l-2.1 1.9c-0.2 0.2-0.4 0.2-0.5 0l-2-2.1c-0.5-0.5-1.3-0.9-2.1-0.9l-2.9-0.1c-0.2 0-0.2-0.1-0.2-0.1 -0.1-0.1-0.1-0.2-0.1-0.2l0.1-2.9c0-0.8-0.3-1.5-0.8-2.2l-2-2.1c-0.1-0.1-0.1-0.2-0.1-0.2C15.5 24.9 15.5 24.9 15.6 24.7z"/>
  <path
    d="M30.4 77.1H14.2c-0.7 0-1.3 0.6-1.3 1.3 0 0.7 0.6 1.3 1.3 1.3h16.2c0.7 0 1.3-0.6 1.3-1.3C31.7 77.7 31.1 77.1 30.4 77.1z"/>
  <path
    d="M77 15.5v-0.4c0-0.3-0.2-0.6-0.3-0.8L64.3 0.4C64 0.2 63.7 0 63.3 0H14.8C6.6 0 0 6.6 0 14.8v70.4C0 93.4 6.6 100 14.8 100h47.5c8.2 0 14.8-6.6 14.8-14.8L77 15.5C77 15.6 77 15.6 77 15.5L77 15.5zM64.8 5l8.2 9.2h-8.2V5zM74.4 85.2c0 6.7-5.5 12.1-12.1 12.1H14.8c-6.7 0-12.1-5.5-12.1-12.1V14.8c0-6.7 5.5-12.1 12.1-12.1h47.4l0 0v12.9c0 0.7 0.6 1.3 1.3 1.3h10.9V85.2z"/>
</svg>
