<svg xmlns="http://www.w3.org/2000/svg" width="261.006" height="400" viewBox="0 0 261.006 400">
	<path d="M249.442 213.455c-12.811-9.655-31.078-7.164-40.781 5.685l-49.555 65.587V29.107C159.106 13.028 146.069 0 129.999 0c-16.079 0-29.107 13.028-29.107 29.107v254.312l-48.56-64.279c-9.702-12.849-27.971-15.378-40.771-5.685 -12.819 9.702-15.368 27.951-5.675 40.78L107.268 388.44c5.495 7.276 14.09 11.56 23.224 11.56s17.718-4.283 23.232-11.56l101.402-134.205C264.81 241.406 262.271 223.157 249.442 213.455z"/>
</svg>
