<svg xmlns="http://www.w3.org/2000/svg" width="230.943" height="400" viewBox="146.405 -146.4 230.943 400">
	<path d="M263.068 253.6c0.011 0 0.022 0 0.035 0 0.011 0 0.022 0 0.035 0 0.591 0 1.127-0.278 1.708-0.349 1-0.162 2.011-0.232 2.906-0.628 0.233-0.093 0.396-0.302 0.617-0.396 1.174-0.604 2.29-1.302 3.197-2.231 0.035-0.023 0.07-0.047 0.105-0.069l102.374-107.142c4.559-4.719 4.37-12.299-0.383-16.833 -4.743-4.557-12.288-4.37-16.822 0.373l-81.867 85.68v-346.5c0-6.58-5.324-11.905-11.904-11.905 -6.581 0-11.905 5.326-11.905 11.905v346.988l-84.345-86.261c-4.603-4.696-12.136-4.79-16.833-0.186 -2.393 2.326-3.58 5.418-3.58 8.51 0 2.999 1.139 5.999 3.395 8.324l104.758 107.14c0.012 0.024 0.034 0.024 0.046 0.024 1.093 1.115 2.407 2.021 3.86 2.628 0.442 0.184 0.954 0.161 1.419 0.277C260.917 253.252 261.94 253.6 263.068 253.6z"/>
</svg>