<svg xmlns="http://www.w3.org/2000/svg" width="692.812" height="400" viewBox="0 0.005 692.812 400">
	<path d="M692.811 197.942c0-0.02 0-0.039 0-0.061 0-0.02 0-0.039 0-0.061 0-1.024-0.482-1.952-0.604-2.959 -0.281-1.732-0.402-3.483-1.088-5.033 -0.16-0.404-0.523-0.685-0.684-1.068 -1.046-2.033-2.256-3.967-3.867-5.537 -0.039-0.061-0.08-0.121-0.119-0.182L500.876 5.727c-8.174-7.895-21.303-7.57-29.156 0.664 -7.893 8.215-7.569 21.283 0.645 29.137l148.401 141.795H20.619C9.223 177.323 0 186.545 0 197.942c0 11.397 9.224 20.619 20.619 20.619h600.992L472.205 364.648c-8.135 7.973-8.297 21.021-0.322 29.156 4.028 4.146 9.384 6.201 14.739 6.201 5.194 0 10.391-1.973 14.418-5.88l185.57-181.443c0.042-0.021 0.042-0.06 0.042-0.081 1.931-1.893 3.501-4.168 4.551-6.685 0.319-0.766 0.28-1.652 0.482-2.457C692.208 201.668 692.811 199.896 692.811 197.942z"/>
</svg>
