<svg xmlns="http://www.w3.org/2000/svg" width="134" height="39" viewBox="0 0 134 39">
  <g fill="#FFF" fill-rule="evenodd">
    <path
      d="M23.36 31.102a5.195 5.195 0 0 1-5.195-5.195h10.391a5.195 5.195 0 0 1-5.195 5.195zM11.749 19.49A3.208 3.208 0 0 0 8.54 22.7h6.416a3.208 3.208 0 0 0-3.208-3.208M34.995 19.492a3.208 3.208 0 0 0-3.207 3.207h6.415a3.208 3.208 0 0 0-3.208-3.207M23.36 4.207a1.987 1.987 0 1 0 0-3.975 1.987 1.987 0 0 0 0 3.975"/>
    <path
      d="M42.602 33.784a3.571 3.571 0 0 1-2.515 1.196c-4.01.187-10.167.41-16.726.41-6.56 0-12.716-.223-16.726-.41a3.572 3.572 0 0 1-2.515-1.197 3.56 3.56 0 0 1-.904-2.625c.212-3.208.498-6.048.85-8.441.523-3.552 1.31-7.157 1.877-9.557a3.566 3.566 0 0 1 3.268-2.755c2.908-.181 7.723-.397 14.15-.397 6.426 0 11.242.216 14.15.397a3.566 3.566 0 0 1 3.267 2.755c.569 2.4 1.355 6.007 1.877 9.557.353 2.393.639 5.233.85 8.44a3.562 3.562 0 0 1-.903 2.627m3.227-11.535c-.54-3.662-1.346-7.366-1.929-9.828a6.757 6.757 0 0 0-6.19-5.218C34.757 7.02 29.87 6.8 23.36 6.8c-6.508 0-11.395.22-14.348.403a6.756 6.756 0 0 0-6.19 5.218c-.583 2.461-1.39 6.164-1.93 9.828-.365 2.478-.66 5.404-.877 8.698a6.743 6.743 0 0 0 1.712 4.973 6.754 6.754 0 0 0 4.758 2.264c4.044.19 10.254.415 16.876.415 6.62 0 12.831-.226 16.876-.415a6.753 6.753 0 0 0 4.757-2.264 6.743 6.743 0 0 0 1.712-4.973c-.217-3.294-.512-6.22-.877-8.698M65.986 24.673c0-2.154-1.48-3.635-3.23-3.635s-3.232 1.48-3.232 3.635c0 2.154 1.481 3.635 3.231 3.635 1.75 0 3.231-1.481 3.231-3.635m3.77 0c0 3.904-2.962 6.865-6.328 6.865-2.557 0-3.904-1.884-3.904-1.884v1.615H55.89V12.422h3.634v7.27s1.347-1.885 3.904-1.885c3.366 0 6.328 2.962 6.328 6.866M72.582 31.27h3.635V18.075h-3.635V31.27zm1.75-14.944c-1.211 0-2.019-.807-2.019-2.02 0-1.211.808-2.019 2.02-2.019 1.345 0 2.153.808 2.153 2.02s-.808 2.02-2.154 2.02zM81.467 14.172h3.231v4.174h2.692v3.23h-2.692v5.25c0 .809.673 1.482 1.616 1.482.807 0 1.346-.27 1.346-.27v3.097s-1.077.404-2.424.404c-2.692 0-4.173-1.481-4.173-4.578v-5.385h-2.288v-3.23h1.211c.808 0 1.481-.674 1.481-1.75v-2.424zM98.698 21.576s-.404-.134-1.211-.134c-1.885 0-3.097 1.212-3.097 3.5v6.327h-3.634V18.076h3.634v1.616s1.347-1.75 3.77-1.75h.538v3.634zM100.852 31.27h3.635V18.075h-3.635V31.27zm1.75-14.944c-1.212 0-2.02-.807-2.02-2.02 0-1.211.808-2.019 2.02-2.019 1.346 0 2.154.808 2.154 2.02s-.808 2.02-2.154 2.02zM115.39 21.98s-.807-1.077-2.153-1.077c-1.077 0-1.616.54-1.616 1.077 0 1.885 6.058.943 6.058 5.385 0 2.289-1.885 4.173-5.25 4.173-3.77 0-5.385-2.423-5.385-2.423l2.02-2.019s1.077 1.48 2.826 1.48c1.212 0 1.75-.538 1.75-1.21 0-2.02-6.057-1.024-6.057-5.386 0-2.02 2.154-4.173 5.115-4.173 3.096 0 4.577 2.02 4.577 2.02l-1.884 2.153zM123.333 23.327h6.058c-.27-1.347-1.346-2.424-2.962-2.424-1.615 0-2.692 1.077-3.096 2.424zm0 2.557c.269 1.347 1.48 2.558 3.5 2.558 2.288 0 3.5-1.615 3.5-1.615l1.885 2.423s-2.02 2.288-5.654 2.288c-3.904 0-7-3.096-7-6.865 0-3.77 3.096-6.866 6.865-6.866 3.77 0 6.597 2.827 6.597 6.596 0 .943-.135 1.481-.135 1.481h-9.558z"/>
  </g>
</svg>
