<svg xmlns="http://www.w3.org/2000/svg" width="298.809" height="400" viewBox="0 0 298.809 400">
  <path
    d="M147.86 93.104L147.86 93.104c-58.096 0-105.192 47.086-105.192 105.182 0 27.947 16.691 49.326 32.781 69.643 6.733 8.222 12.926 16.905 18.536 25.948 6.451 10.891 9.794 24.998 11.275 47.232 0.43 6.814 3.289 13.926 7.756 19.479 -0.584 1.061-1.004 2.228-1.004 3.524 0 19.807 16.062 35.888 35.886 35.888 19.801-0.038 35.823-16.117 35.823-35.888 0-0.895-0.219-1.715-0.512-2.503 4.934-5.589 8.093-13.008 8.587-20.043 -0.018-16.117 3.856-31.976 11.275-46.283 5.335-8.753 11.146-17.193 17.43-25.289 16.007-21.505 32.562-43.834 32.562-71.708C253.062 140.192 205.956 93.104 147.86 93.104zM149.113 383.887L149.113 383.887c-9.393 0.564-17.441-5.262-20.639-13.594 1.213 0.217 2.42 0.473 3.7 0.473h32.636c0.858 0 1.66-0.217 2.503-0.327C164.386 377.911 157.521 383.374 149.113 383.887zM177.053 340.67c-0.352 7.183-5.246 13.34-12.173 15.279v-0.001h-32.706c-6.074 0-11.713-8.753-12.087-15.515 -0.986-14.946-3.061-26.515-6.084-36.4h69.462C179.39 315.783 177.108 328.137 177.053 340.67zM208.625 261.171L208.625 261.171c-6.597 8.588-12.716 17.505-18.309 26.788 -0.217 0.401-0.365 0.84-0.564 1.242h-81.706c-0.43-0.84-0.777-1.789-1.233-2.593 -5.948-9.575-12.517-18.766-19.651-27.516 -15.275-19.495-29.657-37.97-29.657-60.798 0.083-49.847 40.473-90.237 90.318-90.32 49.911 0 90.402 40.418 90.475 90.32C238.299 221.283 223.46 241.53 208.625 261.171z"/>
  <path
    d="M141.445 59.321c4.094 0 7.42-3.317 7.42-7.42V7.409c0-4.094-3.327-7.409-7.42-7.409 -4.092 0-7.418 3.317-7.418 7.409V51.9C134.027 56.004 137.355 59.321 141.445 59.321z"/>
  <path
    d="M47.118 92.767L47.118 92.767 12.71 58.361c-2.905-2.915-7.62-2.915-10.534 0 -2.905 2.905-2.905 7.62 0 10.525L36.59 103.3c1.399 1.389 3.289 2.156 5.264 2.148 1.991 0.008 3.901-0.777 5.307-2.193C50.049 100.35 50.033 95.654 47.118 92.767z"/>
  <path
    d="M297.024 50.194L297.024 50.194c-2.664-3.107-7.345-3.472-10.451-0.803l-34.405 34.406c-1.391 1.417-2.156 3.327-2.12 5.309 0.055 4.092 3.433 7.363 7.528 7.299 1.883-0.046 3.709-0.823 5.043-2.156l34.406-34.407C299.399 57.065 299.399 52.971 297.024 50.194z"/>
</svg>
