<svg xmlns="http://www.w3.org/2000/svg" width="500" height="400" viewBox="0 0 500 400">
  <path
    d="M466.667 66.667H33.333C14.925 66.667 0 51.741 0 33.333S14.925 0 33.333 0h433.334C485.091 0 500 14.925 500 33.333S485.091 66.667 466.667 66.667z"/>
  <path
    d="M233.333 400h-200C14.925 400 0 385.091 0 366.667c0-18.425 14.925-33.334 33.333-33.334h200c18.425 0 33.334 14.909 33.334 33.334C266.667 385.091 251.758 400 233.333 400z"/>
  <path
    d="M100 233.333H33.333C14.925 233.333 0 218.425 0 200c0-18.408 14.925-33.333 33.333-33.333H100c18.408 0 33.333 14.925 33.333 33.333C133.333 218.425 118.408 233.333 100 233.333z"/>
  <path
    d="M466.667 233.333H233.333C214.925 233.333 200 218.425 200 200c0-18.408 14.925-33.333 33.333-33.333h233.334C485.091 166.667 500 181.592 500 200 500 218.425 485.091 233.333 466.667 233.333z"/>
</svg>
