<svg xmlns="http://www.w3.org/2000/svg" width="400" height="400" viewBox="0 0 400 400">
	<path d="M333.936 0H191.076C154.639 0 125 29.639 125 66.076V125H66.076C29.639 125 0 154.639 0 191.076v142.859C0 370.361 29.639 400 66.076 400h142.859C245.361 400 275 370.361 275 333.936V275h58.936C370.361 275 400 245.361 400 208.936V66.076C400 29.639 370.361 0 333.936 0zM250 333.936C250 356.567 231.567 375 208.936 375H66.076C43.433 375 25 356.567 25 333.936V191.076C25 168.433 43.433 150 66.076 150h142.859C231.567 150 250 168.433 250 191.076V333.936zM375 208.936C375 231.567 356.567 250 333.936 250H275v-58.924C275 154.639 245.361 125 208.936 125H150V66.076C150 43.433 168.433 25 191.076 25h142.859C356.567 25 375 43.433 375 66.076V208.936z"/>
</svg>
