<svg xmlns="http://www.w3.org/2000/svg" viewBox="0 0 757.6 400">
	<path d="M61.6 278.8l41.2-19.8c-20.5-16.3-40.1-33.8-58.5-52.4 -1.8-1.8-2.8-4.1-2.9-6.6 0.3-2.2 1.3-4.2 2.9-5.8 38.3-35 171.5-152.5 345.5-152.5 41.1 0.1 81.8 6.8 120.8 19.8l49.9-23.9C469.6-2.3 367.6-9.6 271.9 17 176 45.5 88.3 96.4 15.9 165.4c-8.6 8-14.1 18.8-15.7 30.5 -1.4 15.3 4.2 30.5 15.3 41.2C31.1 252.8 46.4 266 61.6 278.8z"/>
	<path d="M742.3 165.4c-17.6-18.2-36.2-35.4-55.7-51.5l-41.2 20.2c24 17.9 46.8 37.4 68 58.5 1.9 2 3 4.7 2.9 7.4 0.1 2.6-1 5.2-2.9 7 -44.1 41.2-239.5 213.6-478.7 123.7l-50.3 24.3c58.2 28.6 122 44 186.8 44.9 188.8 0 332.3-126.2 371.1-164.9 9.9-9.6 15.4-22.9 15.3-36.7C756.7 185.9 751.2 174.2 742.3 165.4z"/>
	<path d="M368.4 268.1l-47.8 21c50.1 35.2 119.3 23.2 154.5-26.9 11.5-16.4 18.4-35.6 19.9-55.5l-46.6 22.7C434.7 260 400.9 276.4 368.4 268.1z"/>
	<path d="M284.5 150.7c-3.8 7.7-6.6 15.8-8.5 24.2l73-35c3.5-2.1 7.3-3.9 11.1-5.4l72.2-34.6C377.4 73.1 311.3 95.9 284.5 150.7z"/>
	<path d="M757.2 21c0-11.4-9.3-20.6-20.7-20.5h0c-3-0.7-6.1-0.7-9.1 0l-715.7 348c-10.2 5-14.5 17.4-9.5 27.6 5 10.2 17.4 14.5 27.6 9.5L745.6 39.7C752.8 36.2 757.3 29 757.2 21z"/>
</svg>