<svg xmlns="http://www.w3.org/2000/svg" width="400.001" height="399.999" viewBox="43.931 43.936 400.001 399.999">
	<path d="M334.554 243.936l90.616-90.617c25.015-25.013 25.015-65.604 0-90.617 -25.026-25.029-65.603-25.014-90.617 0l-90.616 90.617L153.32 62.701c-25.03-25.029-65.605-25.014-90.618 0 -25.029 25.028-25.029 65.589 0 90.617l90.617 90.617 -90.617 90.617c-25.029 25.027-25.029 65.588 0 90.617 25.012 25.013 65.588 25.027 90.618 0l90.616-90.617 90.616 90.617c25.015 25.013 65.591 25.027 90.617 0 25.015-25.015 25.015-65.604 0-90.617L334.554 243.936z"/>
</svg>
