<svg xmlns="http://www.w3.org/2000/svg" width="400" height="400" viewBox="0 0 400 400">
	<path d="M290.623 200.001l90.617-90.617c25.014-25.013 25.014-65.604 0-90.617 -25.027-25.029-65.604-25.014-90.617 0l-90.616 90.617L109.39 18.766c-25.03-25.029-65.605-25.014-90.618 0 -25.029 25.028-25.029 65.589 0 90.617L109.389 200l-90.617 90.618c-25.029 25.027-25.029 65.588 0 90.617 25.012 25.012 65.588 25.027 90.618 0l90.616-90.617 90.615 90.617c25.016 25.012 65.592 25.027 90.617 0 25.016-25.016 25.016-65.604 0-90.617L290.623 200.001z"/>
</svg>
