<svg xmlns="http://www.w3.org/2000/svg" viewBox="0 0 781.8 400">
	<path d="M472.6 228.9c-11.1 24.1-35.4 41-63.7 41 -5.7 0-11.2-0.9-16.6-2.2l-47.5 23c18.2 12.8 40.2 20.5 64.1 20.5 59.4 0 107.5-46.5 110.9-105.1L472.6 228.9z"/>
	<path d="M373.3 139.4c3.6-2.1 7.3-3.9 11.2-5.4l72.1-34.8C442 92.2 426 88.1 408.9 88.1c-53 0-97.1 37-108.5 86.5L373.3 139.4z"/>
	<path d="M85.5 278.5l41.3-20c-19.4-14.9-39-31.6-58.6-50.6 -2.1-2-3.2-5.1-2.9-8.1 0.2-2.3 1.2-4.4 2.9-5.9 0 0 0 0 0 0C104.7 158.8 240 41.3 414 41.3c38.6 0 79.2 6.1 121 19.8l50-24.2C492.3-2.9 394.5-10.6 295.3 16.4 163.1 52.5 66.2 138.5 39.7 164c-8.7 8.3-14.1 19.5-15.4 31.4 -1.7 15.6 4.1 31.3 15.3 42.2C54.9 252.4 70.3 266 85.5 278.5z"/>
	<path d="M711.4 113.4l-41.8 20.2c22.6 17 45.3 36 68.1 58.8 1.8 1.8 2.9 4.4 2.9 7.5 0 2.6-1 5-2.8 6.8C693.5 250 498 420.4 258.6 332.3l-50.2 24.2C273.9 387.2 337 400 395.5 400c189 0 332.5-126.2 371-163.8 9.9-9.6 15.3-22.5 15.3-36.8 0-13.5-5.4-26.7-15-36.2C748.8 145.1 730.3 128.6 711.4 113.4z"/>
	<path d="M761.2 0c7.7 0 15 4.3 18.6 11.6 5 10.3 0.7 22.6-9.6 27.6l-740.6 358c-2.9 1.4-6 2.1-9 2.1 -7.7 0-15-4.3-18.6-11.6 -5-10.3-0.7-22.6 9.6-27.6L752.2 2C755.1 0.7 758.2 0 761.2 0"/>
</svg>