<svg xmlns="http://www.w3.org/2000/svg" width="400" height="400" viewBox="0 0 400 400">
	<path d="M276.27 199.991l107.93-107.923c21.067-21.068 21.067-55.198 0-76.267 -21.066-21.069-55.194-21.069-76.261 0l-107.93 107.94L92.061 15.802c-21.066-21.069-55.193-21.069-76.26 0C-5.267 36.87-5.267 71 15.801 92.068l107.93 107.923L15.801 307.931c-21.068 21.069-21.068 55.2 0 76.268C26.334 394.732 40.149 400 53.947 400c13.799 0 27.615-5.268 38.113-15.802l107.948-107.939 107.93 107.939C318.472 394.732 332.306 400 346.069 400c13.799 0 27.598-5.268 38.13-15.802 21.067-21.067 21.067-55.198 0-76.268L276.27 199.991z"/>
</svg>
