<svg xmlns="http://www.w3.org/2000/svg" width="399.984" height="400" viewBox="0 0 399.984 400">
	<path d="M223.476 200L395.117 28.358c6.489-6.489 6.489-17.002 0-23.491 -6.489-6.49-17.002-6.49-23.491 0L199.984 176.509 28.358 4.867c-6.489-6.49-17.002-6.49-23.491 0 -6.489 6.489-6.489 17.002 0 23.491L176.493 200 4.867 371.642c-6.489 6.489-6.489 17.002 0 23.491C8.112 398.378 12.362 400 16.613 400c4.25 0 8.501-1.622 11.745-4.867l171.626-171.642 171.642 171.642c3.245 3.245 7.495 4.867 11.746 4.867 4.25 0 8.501-1.622 11.745-4.867 6.489-6.489 6.489-17.002 0-23.491L223.476 200z"/>
</svg>
