<svg xmlns="http://www.w3.org/2000/svg" width="76.534134" height="400" viewBox="0 0 271.18394 1417.3227">
	<path d="M271.18393 135.59196A135.59196 135.59196 0 0 1 135.59196 271.18393 135.59196 135.59196 0 0 1 0 135.59196 135.59196 135.59196 0 0 1 135.59196 0 135.59196 135.59196 0 0 1 271.18393 135.59196Z"/>
	<path d="M271.18393 708.66284A135.59196 135.59196 0 0 1 135.59196 844.25481 135.59196 135.59196 0 0 1 0 708.66284 135.59196 135.59196 0 0 1 135.59196 573.07088 135.59196 135.59196 0 0 1 271.18393 708.66284Z"/>
	<path d="M271.18393 1281.7308A135.59196 135.59196 0 0 1 135.59196 1417.3228 135.59196 135.59196 0 0 1 0 1281.7308 135.59196 135.59196 0 0 1 135.59196 1146.1389 135.59196 135.59196 0 0 1 271.18393 1281.7308Z"/>
</svg>
