<svg xmlns="http://www.w3.org/2000/svg" width="70" height="70" viewBox="0 0 70 70">
  <path
    d="M50 0C51.1045695 0 52 0.8954305 52 2 52 2.7398375 51.5982846 3.38584934 51.0010775 3.73181186L51 10C53.1250915 10 55.078158 10.7365268 56.6178549 11.9682359L61.8962818 6.68940216C61.7181321 6.02218954 61.890776 5.28079683 62.4142136 4.75735931 63.1952621 3.97631073 64.4615921 3.97631073 65.2426407 4.75735931 66.0236893 5.5384079 66.0236893 6.80473785 65.2426407 7.58578644 64.7194966 8.10893055 63.9786415 8.28167423 63.3117199 8.10401748L58.0319753 13.3824091C59.263364 14.9218235 59.9997687 16.8744166 59.9999999 18.998999L66.2676063 18.9999275C66.6134261 18.4021661 67.2597476 18 68 18 69.1045695 18 70 18.8954305 70 20 70 21.1045695 69.1045695 22 68 22 67.2601625 22 66.6141507 21.5982846 66.2681881 21.0010775L60 20.999 60 24 66.2676063 23.9999275C66.6134261 23.4021661 67.2597476 23 68 23 69.1045695 23 70 23.8954305 70 25 70 26.1045695 69.1045695 27 68 27 67.2601625 27 66.6141507 26.5982846 66.2681881 26.0010775L60 26 60 29 66.2676063 28.9999275C66.6134261 28.4021661 67.2597476 28 68 28 69.1045695 28 70 28.8954305 70 30 70 31.1045695 69.1045695 32 68 32 67.2601625 32 66.6141507 31.5982846 66.2681881 31.0010775L60 31 60 34 66.2676063 33.9999275C66.6134261 33.4021661 67.2597476 33 68 33 69.1045695 33 70 33.8954305 70 35 70 36.1045695 69.1045695 37 68 37 67.2601625 37 66.6141507 36.5982846 66.2681881 36.0010775L60 36 60 39 66.2676063 38.9999275C66.6134261 38.4021661 67.2597476 38 68 38 69.1045695 38 70 38.8954305 70 40 70 41.1045695 69.1045695 42 68 42 67.2601625 42 66.6141507 41.5982846 66.2681881 41.0010775L60 41 60 44 66.2676063 43.9999275C66.6134261 43.4021661 67.2597476 43 68 43 69.1045695 43 70 43.8954305 70 45 70 46.1045695 69.1045695 47 68 47 67.2601625 47 66.6141507 46.5982846 66.2681881 46.0010775L60 46 60 49 66.2676063 48.9999275C66.6134261 48.4021661 67.2597476 48 68 48 69.1045695 48 70 48.8954305 70 50 70 51.1045695 69.1045695 52 68 52 67.2601625 52 66.6141507 51.5982846 66.2681881 51.0010775L60 51C60 53.124779 59.2636898 55.0775836 58.0323074 56.6171757L63.3117199 61.8959825C63.9786415 61.7183258 64.7194966 61.8910695 65.2426407 62.4142136 66.0236893 63.1952621 66.0236893 64.4615921 65.2426407 65.2426407 64.4615921 66.0236893 63.1952621 66.0236893 62.4142136 65.2426407 61.890776 64.7192032 61.7181321 63.9778105 61.8962818 63.3105978L61.8962818 63.3105978 56.6171757 58.0323074C55.0775836 59.2636898 53.124779 60 51 60L51.0000725 66.2676063C51.5978339 66.6134261 52 67.2597476 52 68 52 69.1045695 51.1045695 70 50 70 48.8954305 70 48 69.1045695 48 68 48 67.2601625 48.4017154 66.6141507 48.9989225 66.2681881L49 60 46 60 46.0000725 66.2676063C46.5978339 66.6134261 47 67.2597476 47 68 47 69.1045695 46.1045695 70 45 70 43.8954305 70 43 69.1045695 43 68 43 67.2601625 43.4017154 66.6141507 43.9989225 66.2681881L44 60 41 60 41.0000725 66.2676063C41.5978339 66.6134261 42 67.2597476 42 68 42 69.1045695 41.1045695 70 40 70 38.8954305 70 38 69.1045695 38 68 38 67.2601625 38.4017154 66.6141507 38.9989225 66.2681881L39 60 36 60 36.0000725 66.2676063C36.5978339 66.6134261 37 67.2597476 37 68 37 69.1045695 36.1045695 70 35 70 33.8954305 70 33 69.1045695 33 68 33 67.2601625 33.4017154 66.6141507 33.9989225 66.2681881L34 60 31 60 31.0000725 66.2676063C31.5978339 66.6134261 32 67.2597476 32 68 32 69.1045695 31.1045695 70 30 70 28.8954305 70 28 69.1045695 28 68 28 67.2601625 28.4017154 66.6141507 28.9989225 66.2681881L29 60 26 60 26.0000725 66.2676063C26.5978339 66.6134261 27 67.2597476 27 68 27 69.1045695 26.1045695 70 25 70 23.8954305 70 23 69.1045695 23 68 23 67.2601625 23.4017154 66.6141507 23.9989225 66.2681881L24 60 21 60 21.0000725 66.2676063C21.5978339 66.6134261 22 67.2597476 22 68 22 69.1045695 21.1045695 70 20 70 18.8954305 70 18 69.1045695 18 68 18 67.2601625 18.4017154 66.6141507 18.9989225 66.2681881L19 60C16.875221 60 14.9224164 59.2636898 13.3828243 58.0323074L8.10401748 63.3117199C8.28167423 63.9786415 8.10893055 64.7194966 7.58578644 65.2426407 6.80473785 66.0236893 5.5384079 66.0236893 4.75735931 65.2426407 3.97631073 64.4615921 3.97631073 63.1952621 4.75735931 62.4142136 5.28079683 61.890776 6.02218954 61.7181321 6.68940216 61.8962818L6.68940216 61.8962818 11.9676926 56.6171757C10.7363102 55.0775836 10 53.124779 10 51L3.73239368 51.0000725C3.38657394 51.5978339 2.74025244 52 2 52 0.8954305 52-8.33349115e-16 51.1045695-7.6571374e-16 50 -6.98078365e-16 48.8954305 0.8954305 48 2 48 2.7398375 48 3.38584934 48.4017154 3.73181186 48.9989225L10 49 10 46 3.73239368 46.0000725C3.38657394 46.5978339 2.74025244 47 2 47 0.8954305 47-5.27187415e-16 46.1045695-4.5955204e-16 45 -3.91916665e-16 43.8954305 0.8954305 43 2 43 2.7398375 43 3.38584934 43.4017154 3.73181186 43.9989225L10 44 10 41 3.73239368 41.0000725C3.38657394 41.5978339 2.74025244 42 2 42 0.8954305 42-2.21025715e-16 41.1045695-1.5339034e-16 40 -8.57549651e-17 38.8954305 0.8954305 38 2 38 2.7398375 38 3.38584934 38.4017154 3.73181186 38.9989225L10 39 10 36 3.73239368 36.0000725C3.38657394 36.5978339 2.74025244 37 2 37 0.8954305 37 8.51359845e-17 36.1045695 1.5277136e-16 35 2.20406735e-16 33.8954305 0.8954305 33 2 33 2.7398375 33 3.38584934 33.4017154 3.73181186 33.9989225L10 34 10 31 3.73239368 31.0000725C3.38657394 31.5978339 2.74025244 32 2 32 0.8954305 32 3.91297684e-16 31.1045695 4.58933059e-16 30 5.26568434e-16 28.8954305 0.8954305 28 2 28 2.7398375 28 3.38584934 28.4017154 3.73181186 28.9989225L10 29 10 26 3.73239368 26.0000725C3.38657394 26.5978339 2.74025244 27 2 27 0.8954305 27 6.97459384e-16 26.1045695 7.65094759e-16 25 8.32730134e-16 23.8954305 0.8954305 23 2 23 2.7398375 23 3.38584934 23.4017154 3.73181186 23.9989225L10 24 10 21 3.73239368 21.0000725C3.38657394 21.5978339 2.74025244 22 2 22 0.8954305 22 1.00362108e-15 21.1045695 1.07125646e-15 20 1.13889183e-15 18.8954305 0.8954305 18 2 18 2.7398375 18 3.38584934 18.4017154 3.73181186 18.9989225L10 19C10 16.875221 10.7363102 14.9224164 11.9676926 13.3828243L6.68940216 8.10371823C6.02218954 8.28186789 5.28079683 8.10922396 4.75735931 7.58578644 3.97631073 6.80473785 3.97631073 5.5384079 4.75735931 4.75735931 5.5384079 3.97631073 6.80473785 3.97631073 7.58578644 4.75735931 8.10893055 5.28050342 8.28167423 6.02135845 8.10401748 6.6882801L13.3828243 11.9676926C14.9224164 10.7363102 16.875221 10 19 10L18.9999275 3.73239368C18.4021661 3.38657394 18 2.74025244 18 2 18 0.8954305 18.8954305 0 20 0 21.1045695 0 22 0.8954305 22 2 22 2.7398375 21.5982846 3.38584934 21.0010775 3.73181186L21 10 24 10 23.9999275 3.73239368C23.4021661 3.38657394 23 2.74025244 23 2 23 0.8954305 23.8954305 0 25 0 26.1045695 0 27 0.8954305 27 2 27 2.7398375 26.5982846 3.38584934 26.0010775 3.73181186L26 10 29 10 28.9999275 3.73239368C28.4021661 3.38657394 28 2.74025244 28 2 28 0.8954305 28.8954305 0 30 0 31.1045695 0 32 0.8954305 32 2 32 2.7398375 31.5982846 3.38584934 31.0010775 3.73181186L31 10 34 10 33.9999275 3.73239368C33.4021661 3.38657394 33 2.74025244 33 2 33 0.8954305 33.8954305 0 35 0 36.1045695 0 37 0.8954305 37 2 37 2.7398375 36.5982846 3.38584934 36.0010775 3.73181186L36 10 39 10 38.9999275 3.73239368C38.4021661 3.38657394 38 2.74025244 38 2 38 0.8954305 38.8954305 0 40 0 41.1045695 0 42 0.8954305 42 2 42 2.7398375 41.5982846 3.38584934 41.0010775 3.73181186L41 10 44 10 43.9999275 3.73239368C43.4021661 3.38657394 43 2.74025244 43 2 43 0.8954305 43.8954305 0 45 0 46.1045695 0 47 0.8954305 47 2 47 2.7398375 46.5982846 3.38584934 46.0010775 3.73181186L46 10 49 10 48.9999275 3.73239368C48.4021661 3.38657394 48 2.74025244 48 2 48 0.8954305 48.8954305 0 50 0ZM51 12L19 12C15.2145483 12 12.1309013 15.0047834 12.004059 18.7593502L12 19 12 51C12 54.8659932 15.1340068 58 19 58L51 58C54.8659932 58 58 54.8659932 58 51L58 51 58 49 58 49 58 46 58 46 58 44 58 44 58 19C58 15.1340068 54.8659932 12 51 12ZM42 50L42 56 40 56 40 50 42 50ZM38 50L38 56 36 56 36 50 38 50ZM34 50L34 56 32 56 32 50 34 50ZM26 50L26 56 24 56 24 50 26 50ZM46 50L46 56 44 56 44 50 46 50ZM30 50L30 56 28 56 28 50 30 50ZM20.4142136 48.1715729L21.8284271 49.5857864 17.5857864 53.8284271 16.1715729 52.4142136 20.4142136 48.1715729ZM49.5857864 48.1715729L53.8284271 52.4142136 52.4142136 53.8284271 48.1715729 49.5857864 49.5857864 48.1715729ZM43 22C45.7614237 22 48 24.2385763 48 27L48 43C48 45.7614237 45.7614237 48 43 48L27 48C24.2385763 48 22 45.7614237 22 43L22 27C22 24.2385763 24.2385763 22 27 22L43 22ZM20 44L20 46 14 46 14 44 20 44ZM43 24L27 24C25.3431458 24 24 25.3431458 24 27L24 43C24 44.6568542 25.3431458 46 27 46L43 46C44.6568542 46 46 44.6568542 46 43L46 27C46 25.3431458 44.6568542 24 43 24ZM56 44L56 46 50 46 50 44 56 44ZM56 40L56 42 50 42 50 40 56 40ZM20 40L20 42 14 42 14 40 20 40ZM35 30C37.7614237 30 40 32.2385763 40 35 40 37.7614237 37.7614237 40 35 40 32.2385763 40 30 37.7614237 30 35 30 32.2385763 32.2385763 30 35 30ZM20 36L20 38 14 38 14 36 20 36ZM56 36L56 38 50 38 50 36 56 36ZM35 32C33.3431458 32 32 33.3431458 32 35 32 36.6568542 33.3431458 38 35 38 36.6568542 38 38 36.6568542 38 35 38 33.3431458 36.6568542 32 35 32ZM56 32L56 34 50 34 50 32 56 32ZM20 32L20 34 14 34 14 32 20 32ZM56 28L56 30 50 30 50 28 56 28ZM20 28L20 30 14 30 14 28 20 28ZM20 24L20 26 14 26 14 24 20 24ZM56 24L56 26 50 26 50 24 56 24ZM17.5857864 16.1715729L21.8284271 20.4142136 20.4142136 21.8284271 16.1715729 17.5857864 17.5857864 16.1715729ZM52.4142136 16.1715729L53.8284271 17.5857864 49.5857864 21.8284271 48.1715729 20.4142136 52.4142136 16.1715729ZM46 14L46 20 44 20 44 14 46 14ZM30 14L30 20 28 20 28 14 30 14ZM34 14L34 20 32 20 32 14 34 14ZM26 14L26 20 24 20 24 14 26 14ZM38 14L38 20 36 20 36 14 38 14ZM42 14L42 20 40 20 40 14 42 14Z"/>
</svg>
