<svg width="830" height="604" viewBox="0 0 830 604" fill="none" xmlns="http://www.w3.org/2000/svg">
  <g opacity="0.2">
    <path
      d="M270.995 332.445L269.877 334.506C268.598 331.023 266.236 327.858 262.833 325.474L212.388 290.127C203.104 283.62 189.646 285.418 182.328 294.143L142.598 341.531C140.846 343.621 139.606 345.922 138.864 348.296L138 345.463L138.01 353.738V353.748C137.995 359.6 140.787 365.335 146.172 369.106L196.616 404.453C205.901 410.959 219.359 409.162 226.676 400.437L266.411 353.049C269.394 349.488 270.897 345.326 270.995 341.208H271V332.445H270.995Z"
      fill="#500E82"/>
    <path
      d="M196.612 396.236L146.167 360.889C136.882 354.383 135.281 342.034 142.598 333.314L182.333 285.926C189.646 277.202 203.104 275.404 212.393 281.911L262.838 317.258C272.123 323.764 273.724 336.113 266.407 344.833L226.672 392.221C219.359 400.945 205.901 402.743 196.612 396.236Z"
      fill="url(#paint0_linear_1626_6)"/>
  </g>
  <g opacity="0.1">
    <path
      d="M829.995 322.445L828.877 324.506C827.598 321.023 825.236 317.858 821.833 315.474L771.388 280.127C762.104 273.62 748.646 275.418 741.328 284.143L701.598 331.531C699.846 333.621 698.606 335.922 697.864 338.296L697 335.463L697.01 343.738V343.748C696.995 349.6 699.787 355.335 705.172 359.106L755.616 394.453C764.901 400.959 778.359 399.162 785.676 390.437L825.411 343.049C828.394 339.488 829.897 335.326 829.995 331.208H830V322.445H829.995Z"
      fill="#500E82"/>
    <path
      d="M755.612 386.236L705.167 350.889C695.882 344.383 694.281 332.034 701.598 323.314L741.333 275.926C748.646 267.202 762.104 265.404 771.393 271.911L821.838 307.258C831.123 313.764 832.724 326.113 825.407 334.833L785.672 382.221C778.359 390.945 764.901 392.743 755.612 386.236Z"
      fill="url(#paint1_linear_1626_6)"/>
  </g>
  <g opacity="0.2">
    <path
      d="M477.957 33.5491L477.268 34.8217C476.482 32.6773 475.02 30.7227 472.926 29.2603L441.844 7.47881C436.125 3.47124 427.827 4.57508 423.324 9.95366L398.838 39.1527C397.756 40.4393 396.998 41.8595 396.534 43.3219L396 41.5783V46.6756H396.007C395.993 50.2824 397.714 53.8189 401.031 56.1391L432.113 77.9206C437.832 81.9282 446.13 80.8243 450.633 75.4457L475.119 46.2468C476.959 44.0531 477.88 41.4869 477.943 38.9488V33.5491H477.957Z"
      fill="#500E82"/>
    <path
      d="M432.12 72.8584L401.038 51.0769C395.319 47.0694 394.328 39.462 398.839 34.0834L423.324 4.88443C427.834 -0.494146 436.125 -1.59799 441.844 2.40958L472.927 24.1911C478.646 28.1986 479.636 35.806 475.126 41.1846L450.64 70.3836C446.13 75.7621 437.839 76.866 432.12 72.8584Z"
      fill="url(#paint2_linear_1626_6)"/>
  </g>
  <g opacity="0.05" filter="url(#filter0_f_1626_6)">
    <path
      d="M373.235 44.476L372.712 45.4423C372.115 43.814 371.005 42.3297 369.415 41.2192L345.812 24.6791C341.469 21.6359 335.169 22.4741 331.749 26.5584L313.155 48.7312C312.334 49.7082 311.758 50.7867 311.405 51.8972L311 50.5731V54.4439H311.005C310.995 57.1828 312.302 59.8682 314.82 61.6301L338.423 78.1702C342.766 81.2134 349.067 80.3752 352.487 76.2909L371.08 54.1182C372.478 52.4524 373.177 50.5037 373.225 48.5763V44.476H373.235Z"
      fill="#500E82"/>
    <path
      d="M338.428 74.3262L314.825 57.786C310.483 54.7428 309.73 48.9661 313.155 44.8818L331.749 22.7091C335.174 18.6248 341.469 17.7865 345.812 20.8298L369.415 37.3699C373.758 40.4131 374.511 46.1898 371.085 50.2742L352.492 72.4468C349.067 76.5312 342.771 77.3694 338.428 74.3262Z"
      fill="url(#paint3_linear_1626_6)"/>
  </g>
  <g opacity="0.2" filter="url(#filter1_f_1626_6)">
    <path
      d="M606.235 564.476L605.712 565.442C605.115 563.814 604.005 562.33 602.415 561.219L578.812 544.679C574.469 541.636 568.169 542.474 564.749 546.558L546.155 568.731C545.334 569.708 544.758 570.787 544.405 571.897L544 570.573V574.444H544.005C543.995 577.183 545.302 579.868 547.82 581.63L571.423 598.17C575.766 601.213 582.067 600.375 585.487 596.291L604.08 574.118C605.478 572.452 606.177 570.504 606.225 568.576V564.476H606.235Z"
      fill="#500E82"/>
    <path
      d="M571.428 594.326L547.825 577.786C543.483 574.743 542.73 568.966 546.155 564.882L564.749 542.709C568.174 538.625 574.469 537.787 578.812 540.83L602.415 557.37C606.758 560.413 607.51 566.19 604.085 570.274L585.492 592.447C582.067 596.531 575.771 597.369 571.428 594.326Z"
      fill="url(#paint4_linear_1626_6)"/>
  </g>
  <g opacity="0.05" filter="url(#filter2_f_1626_6)">
    <path
      d="M66.2353 507.476L65.7125 508.442C65.1149 506.814 64.0052 505.33 62.4153 504.219L38.8123 487.679C34.4694 484.636 28.1685 485.474 24.7486 489.558L6.15542 511.731C5.33379 512.708 4.75757 513.787 4.40545 514.897L4 513.573V517.444H4.00531C3.99464 520.183 5.30178 522.868 7.82 524.63L31.423 541.17C35.7659 544.213 42.0668 543.375 45.4866 539.291L64.0799 517.118C65.4777 515.452 66.1767 513.504 66.2247 511.576V507.476H66.2353Z"
      fill="#500E82"/>
    <path
      d="M31.4284 537.326L7.82536 520.786C3.48249 517.743 2.73022 511.966 6.15543 507.882L24.7487 485.709C28.1739 481.625 34.4695 480.787 38.8123 483.83L62.4153 500.37C66.7582 503.413 67.5105 509.19 64.0853 513.274L45.492 535.447C42.0668 539.531 35.7712 540.369 31.4284 537.326Z"
      fill="url(#paint5_linear_1626_6)"/>
  </g>
  <path
    d="M731.07 407.14C742.154 407.14 751.14 398.154 751.14 387.07C751.14 375.986 742.154 367 731.07 367C719.986 367 711 375.986 711 387.07C711 398.154 719.986 407.14 731.07 407.14Z"
    fill="url(#paint6_radial_1626_6)"/>
  <mask id="mask0_1626_6" style="mask-type:luminance" maskUnits="userSpaceOnUse" x="711" y="367" width="41" height="41">
    <path
      d="M731.07 407.14C742.154 407.14 751.14 398.154 751.14 387.07C751.14 375.986 742.154 367 731.07 367C719.986 367 711 375.986 711 387.07C711 398.154 719.986 407.14 731.07 407.14Z"
      fill="white"/>
  </mask>
  <g mask="url(#mask0_1626_6)">
    <path
      d="M722.34 382.367C722.34 393.452 713.355 402.437 702.27 402.437C691.185 402.437 682.192 393.452 682.192 382.367"
      stroke="#F9781E" stroke-width="3" stroke-miterlimit="10" stroke-linecap="round"/>
    <path
      d="M730.35 381.565C730.35 393.655 720.547 403.457 708.457 403.457C696.367 403.457 686.565 393.655 686.565 381.565"
      stroke="#F9781E" stroke-width="3" stroke-miterlimit="10" stroke-linecap="round"/>
    <path d="M738.09 383.253C738.09 396.445 727.395 407.148 714.195 407.148C700.995 407.148 690.3 396.453 690.3 383.253"
          stroke="#F9781E" stroke-width="3" stroke-miterlimit="10" stroke-linecap="round"/>
    <path
      d="M744.81 388.052C744.81 401.245 734.115 411.947 720.915 411.947C707.715 411.947 697.02 401.252 697.02 388.052"
      stroke="#F9781E" stroke-width="3" stroke-miterlimit="10" stroke-linecap="round"/>
    <path
      d="M709.005 399.955C709.005 388.87 717.99 379.885 729.075 379.885C740.16 379.885 749.145 388.87 749.145 399.955"
      stroke="#F9781E" stroke-width="3" stroke-miterlimit="10" stroke-linecap="round"/>
    <path
      d="M704.032 398.403C704.032 384.385 715.395 373.023 729.412 373.023C743.43 373.023 754.792 384.385 754.792 398.403"
      stroke="#F9781E" stroke-width="3" stroke-miterlimit="10" stroke-linecap="round"/>
    <path
      d="M704.58 392.575C704.58 378.558 715.942 367.195 729.96 367.195C743.977 367.195 755.34 378.558 755.34 392.575"
      stroke="#F9781E" stroke-width="3" stroke-miterlimit="10" stroke-linecap="round"/>
  </g>
  <path d="M738.885 404.658C738.885 404.658 746.092 411.303 752.4 405.648" stroke="#F9781E" stroke-width="3.75"
        stroke-miterlimit="10" stroke-linecap="round"/>
  <path
    d="M745.635 378.033C745.635 378.033 746.145 373.12 753.397 372.865C760.65 372.61 764.062 368.253 764.062 368.253"
    stroke="#F9781E" stroke-width="3.75" stroke-miterlimit="10" stroke-linecap="round"/>
  <path
    d="M159.39 233.018C170.474 233.018 179.46 224.032 179.46 212.948C179.46 201.863 170.474 192.878 159.39 192.878C148.306 192.878 139.32 201.863 139.32 212.948C139.32 224.032 148.306 233.018 159.39 233.018Z"
    fill="url(#paint7_radial_1626_6)"/>
  <mask id="mask1_1626_6" style="mask-type:luminance" maskUnits="userSpaceOnUse" x="139" y="192" width="41" height="42">
    <path
      d="M159.39 233.018C170.474 233.018 179.46 224.032 179.46 212.948C179.46 201.863 170.474 192.878 159.39 192.878C148.306 192.878 139.32 201.863 139.32 212.948C139.32 224.032 148.306 233.018 159.39 233.018Z"
      fill="white"/>
  </mask>
  <g mask="url(#mask1_1626_6)">
    <path
      d="M150.66 208.245C150.66 219.33 141.675 228.315 130.59 228.315C119.505 228.315 110.513 219.33 110.513 208.245"
      stroke="#F9781E" stroke-width="3" stroke-miterlimit="10" stroke-linecap="round"/>
    <path
      d="M158.67 207.443C158.67 219.533 148.868 229.335 136.778 229.335C124.688 229.335 114.885 219.533 114.885 207.443"
      stroke="#F9781E" stroke-width="3" stroke-miterlimit="10" stroke-linecap="round"/>
    <path d="M166.41 209.13C166.41 222.323 155.715 233.025 142.515 233.025C129.315 233.025 118.62 222.33 118.62 209.13"
          stroke="#F9781E" stroke-width="3" stroke-miterlimit="10" stroke-linecap="round"/>
    <path d="M173.13 213.93C173.13 227.122 162.435 237.825 149.235 237.825C136.035 237.825 125.34 227.13 125.34 213.93"
          stroke="#F9781E" stroke-width="3" stroke-miterlimit="10" stroke-linecap="round"/>
    <path
      d="M137.325 225.833C137.325 214.748 146.31 205.763 157.395 205.763C168.48 205.763 177.465 214.748 177.465 225.833"
      stroke="#F9781E" stroke-width="3" stroke-miterlimit="10" stroke-linecap="round"/>
    <path d="M132.353 224.28C132.353 210.263 143.715 198.9 157.733 198.9C171.75 198.9 183.113 210.263 183.113 224.28"
          stroke="#F9781E" stroke-width="3" stroke-miterlimit="10" stroke-linecap="round"/>
    <path d="M132.9 218.453C132.9 204.435 144.263 193.073 158.28 193.073C172.298 193.073 183.66 204.435 183.66 218.453"
          stroke="#F9781E" stroke-width="3" stroke-miterlimit="10" stroke-linecap="round"/>
  </g>
  <path d="M139.32 189C139.32 189 134.723 197.858 142.688 202.2" stroke="#F9781E" stroke-width="3.75"
        stroke-miterlimit="10" stroke-linecap="round"/>
  <path d="M170.573 225.203C170.573 225.203 170.858 229.8 174.938 230.04C179.018 230.28 180.938 234.36 180.938 234.36"
        stroke="#F9781E" stroke-width="3.75" stroke-miterlimit="10" stroke-linecap="round"/>
  <g opacity="0.4" filter="url(#filter3_f_1626_6)">
    <path
      d="M488.802 561.49C488.723 567.031 493.152 571.587 498.694 571.666C504.235 571.744 508.791 567.315 508.87 561.774C508.948 556.232 504.519 551.676 498.978 551.598C493.436 551.519 488.88 555.948 488.802 561.49Z"
      fill="url(#paint8_radial_1626_6)"/>
    <mask id="mask2_1626_6" style="mask-type:luminance" maskUnits="userSpaceOnUse" x="488" y="551" width="21"
          height="21">
      <path
        d="M488.802 561.49C488.723 567.031 493.152 571.587 498.694 571.666C504.235 571.744 508.791 567.315 508.87 561.774C508.948 556.232 504.519 551.676 498.978 551.598C493.436 551.519 488.88 555.948 488.802 561.49Z"
        fill="white"/>
    </mask>
    <g mask="url(#mask2_1626_6)">
      <path
        d="M501.249 557.3C495.707 557.222 491.278 552.666 491.357 547.124C491.435 541.582 495.991 537.15 501.533 537.229"
        stroke="#F9781E" stroke-width="1.5" stroke-miterlimit="10" stroke-linecap="round"/>
      <path
        d="M501.593 561.311C495.549 561.225 490.717 556.255 490.803 550.211C490.889 544.166 495.859 539.335 501.903 539.42"
        stroke="#F9781E" stroke-width="1.5" stroke-miterlimit="10" stroke-linecap="round"/>
      <path
        d="M500.695 565.168C494.099 565.075 488.824 559.652 488.917 553.053C489.011 546.454 494.434 541.182 501.033 541.276"
        stroke="#F9781E" stroke-width="1.5" stroke-miterlimit="10" stroke-linecap="round"/>
      <path
        d="M498.247 568.494C491.652 568.401 486.377 562.978 486.47 556.379C486.564 549.779 491.986 544.508 498.586 544.602"
        stroke="#F9781E" stroke-width="1.5" stroke-miterlimit="10" stroke-linecap="round"/>
      <path
        d="M492.55 550.509C498.092 550.588 502.52 555.143 502.442 560.685C502.363 566.227 497.808 570.656 492.266 570.577"
        stroke="#F9781E" stroke-width="1.5" stroke-miterlimit="10" stroke-linecap="round"/>
      <path
        d="M493.361 548.034C500.37 548.133 505.97 553.894 505.87 560.903C505.771 567.911 500.01 573.511 493.002 573.412"
        stroke="#F9781E" stroke-width="1.5" stroke-miterlimit="10" stroke-linecap="round"/>
      <path
        d="M496.271 548.349C503.279 548.448 508.879 554.209 508.78 561.218C508.681 568.226 502.92 573.826 495.912 573.727"
        stroke="#F9781E" stroke-width="1.5" stroke-miterlimit="10" stroke-linecap="round"/>
    </g>
    <path d="M510.95 551.767C510.95 551.767 506.555 549.406 504.327 553.357" stroke="#F9781E" stroke-width="1.875"
          stroke-miterlimit="10" stroke-linecap="round"/>
    <path
      d="M492.63 567.136C492.63 567.136 490.329 567.246 490.18 569.284C490.031 571.322 487.978 572.253 487.978 572.253"
      stroke="#F9781E" stroke-width="1.875" stroke-miterlimit="10" stroke-linecap="round"/>
  </g>
  <path
    d="M501.499 203.589L410.52 285.717C397.953 297.621 392.294 314.701 395.38 331.394L401.46 364.287C403.942 377.717 411.867 389.65 423.494 397.469L425.388 398.742C448.909 414.563 481.821 402.546 499.29 380.664L568.872 282.243C572.294 277.954 585.051 274.6 587.218 269.228C587.498 268.532 587.687 267.822 587.842 267.084L590.654 253.625C598.095 232.024 589.3 211.106 569.896 198.055C548.696 183.802 519.922 186.13 501.506 203.582L501.499 203.589Z"
    fill="url(#paint9_linear_1626_6)"/>
  <path
    d="M492.228 388.637C492.228 376.494 482.41 366.65 470.298 366.65C464.555 366.65 459.351 368.879 455.438 372.5L455.403 372.542C453.846 373.991 452.507 375.657 451.42 377.5L438.811 393.292C437.45 395.535 436.679 398.819 436.679 402.89C436.679 414.31 442.878 427.923 450.522 433.288C454.975 436.41 458.938 436.058 461.469 432.964L486.765 403.172L486.751 403.158C490.152 399.283 492.235 394.213 492.235 388.645L492.228 388.637Z"
    fill="url(#paint10_linear_1626_6)"/>
  <mask id="mask3_1626_6" style="mask-type:luminance" maskUnits="userSpaceOnUse" x="436" y="366" width="57" height="70">
    <path
      d="M492.228 388.637C492.228 376.494 482.41 366.65 470.298 366.65C464.555 366.65 459.351 368.879 455.438 372.5L455.403 372.542C453.846 373.991 452.507 375.657 451.42 377.5L438.811 393.292C437.45 395.535 436.679 398.819 436.679 402.89C436.679 414.31 442.878 427.923 450.522 433.288C454.975 436.41 458.938 436.058 461.469 432.964L486.765 403.172L486.751 403.158C490.152 399.283 492.235 394.213 492.235 388.645L492.228 388.637Z"
      fill="white"/>
  </mask>
  <g mask="url(#mask3_1626_6)">
    <path
      d="M472.36 412.861C472.36 424.379 466.112 429.329 458.405 423.915C450.697 418.5 444.449 404.782 444.449 393.257C444.449 381.733 450.697 376.789 458.405 382.204C466.112 387.618 472.36 401.336 472.36 412.861Z"
      fill="black"/>
    <path d="M449.821 382.429L441.139 383.701L433.004 392.132L440.409 403.966L459.611 399.705L449.821 382.429Z"
          fill="black"/>
    <path d="M467.016 419.689L458.334 420.961L450.192 429.392L457.598 441.219L476.806 436.958L467.016 419.689Z"
          fill="black"/>
    <path
      d="M464.316 422.283C464.316 433.703 458.117 438.618 450.473 433.245C442.829 427.88 436.629 414.267 436.629 402.848C436.629 391.429 442.829 386.514 450.473 391.886C458.117 397.251 464.316 410.864 464.316 422.283Z"
      fill="url(#paint11_radial_1626_6)"/>
  </g>
  <path
    d="M459.4 418.669C459.4 411.778 455.663 403.572 451.055 400.331C448.383 398.453 446.006 398.671 444.484 400.521V400.507L431.286 416.215C426.04 414.134 420.233 414.52 415.745 417.832C408.389 423.254 407.393 434.42 413.522 442.78C419.651 451.134 430.577 453.517 437.934 448.096C438.607 447.597 439.21 447.041 439.771 446.458C440.024 446.268 440.262 446.05 440.48 445.797L446.546 438.484L448.025 439.377C449.33 440.164 451.027 439.595 451.588 438.175L455.838 427.522C455.971 427.191 456.153 426.875 456.385 426.601L457.458 425.3C458.664 423.985 459.393 421.714 459.393 418.676L459.4 418.669Z"
    fill="url(#paint12_linear_1626_6)"/>
  <path
    d="M433.747 348.051C433.747 335.908 423.929 326.064 411.818 326.064C406.074 326.064 400.871 328.293 396.958 331.914L396.922 331.956C395.366 333.405 394.026 335.071 392.939 336.914L380.33 352.706C378.969 354.949 378.198 358.233 378.198 362.304C378.198 373.724 384.397 387.337 392.041 392.702C396.495 395.824 400.457 395.472 402.989 392.378L428.284 362.586L428.27 362.572C431.671 358.697 433.754 353.627 433.754 348.059L433.747 348.051Z"
    fill="url(#paint13_linear_1626_6)"/>
  <mask id="mask4_1626_6" style="mask-type:luminance" maskUnits="userSpaceOnUse" x="378" y="326" width="56" height="69">
    <path
      d="M433.747 348.051C433.747 335.908 423.929 326.064 411.818 326.064C406.074 326.064 400.871 328.293 396.958 331.914L396.922 331.956C395.366 333.405 394.026 335.071 392.939 336.914L380.33 352.706C378.969 354.949 378.198 358.233 378.198 362.304C378.198 373.724 384.397 387.337 392.041 392.702C396.495 395.824 400.457 395.472 402.989 392.378L428.284 362.586L428.27 362.572C431.671 358.697 433.754 353.627 433.754 348.059L433.747 348.051Z"
      fill="white"/>
  </mask>
  <g mask="url(#mask4_1626_6)">
    <path
      d="M413.88 372.268C413.88 383.786 407.631 388.736 399.924 383.322C392.217 377.907 385.968 364.189 385.968 352.664C385.968 341.139 392.217 336.196 399.924 341.611C407.631 347.025 413.88 360.743 413.88 372.268Z"
      fill="black"/>
    <path d="M391.34 341.843L382.658 343.108L374.523 351.539L381.929 363.373L401.13 359.112L391.34 341.843Z"
          fill="black"/>
    <path d="M408.536 379.096L399.854 380.368L391.712 388.799L399.117 400.633L418.326 396.372L408.536 379.096Z"
          fill="black"/>
    <path
      d="M405.836 381.697C405.836 393.117 399.636 398.032 391.992 392.659C384.348 387.287 378.149 373.681 378.149 362.262C378.149 350.843 384.348 345.928 391.992 351.3C399.636 356.665 405.836 370.278 405.836 381.697Z"
      fill="url(#paint14_radial_1626_6)"/>
  </g>
  <path
    d="M400.92 378.083C400.92 371.192 397.182 362.986 392.574 359.745C389.903 357.867 387.525 358.085 386.003 359.935V359.921L372.805 375.629C367.559 373.548 361.753 373.934 357.264 377.246C349.908 382.668 348.912 393.834 355.041 402.194C361.171 410.548 372.097 412.931 379.453 407.51C380.127 407.011 380.73 406.455 381.291 405.872C381.543 405.682 381.782 405.464 381.999 405.211L388.065 397.898L389.545 398.791C390.849 399.578 392.546 399.009 393.107 397.589L397.357 386.936C397.49 386.605 397.673 386.289 397.904 386.015L398.977 384.714C400.183 383.399 400.913 381.128 400.913 378.09L400.92 378.083Z"
    fill="url(#paint15_linear_1626_6)"/>
  <path
    d="M585.261 238.254C585.261 245.145 588.999 253.351 593.606 256.592C596.278 258.47 598.656 258.252 600.177 256.403V256.417L613.376 240.708C618.621 242.79 624.428 242.403 628.916 239.091C636.273 233.67 637.269 222.504 631.139 214.143C625.01 205.79 614.084 203.406 606.727 208.827C606.054 209.327 605.451 209.882 604.89 210.466C604.638 210.656 604.399 210.874 604.182 211.127L598.116 218.439L596.636 217.546C595.332 216.759 593.634 217.328 593.073 218.749L588.824 229.402C588.69 229.732 588.508 230.048 588.277 230.323L587.204 231.624C585.997 232.938 585.268 235.21 585.268 238.247L585.261 238.254Z"
    fill="url(#paint16_linear_1626_6)"/>
  <path
    d="M548.121 271.366C548.121 283.509 557.939 293.353 570.05 293.353C575.794 293.353 580.997 291.124 584.91 287.503L584.945 287.461C586.502 286.012 587.842 284.346 588.929 282.504L601.538 266.711C602.898 264.468 603.67 261.184 603.67 257.113C603.67 245.694 597.47 232.081 589.826 226.716C585.373 223.594 581.411 223.945 578.879 227.039L553.584 256.832L553.598 256.846C550.196 260.72 548.114 265.79 548.114 271.359L548.121 271.366Z"
    fill="black"/>
  <mask id="mask5_1626_6" style="mask-type:luminance" maskUnits="userSpaceOnUse" x="548" y="224" width="56" height="70">
    <path
      d="M548.121 271.366C548.121 283.509 557.939 293.353 570.05 293.353C575.794 293.353 580.997 291.124 584.91 287.503L584.945 287.461C586.502 286.012 587.842 284.346 588.929 282.504L601.538 266.711C602.898 264.468 603.67 261.184 603.67 257.113C603.67 245.694 597.47 232.081 589.826 226.716C585.373 223.594 581.411 223.945 578.879 227.039L553.584 256.832L553.598 256.846C550.196 260.72 548.114 265.79 548.114 271.359L548.121 271.366Z"
      fill="white"/>
  </mask>
  <g mask="url(#mask5_1626_6)">
    <path
      d="M536.234 284.634C536.234 297.249 546.431 307.473 559.012 307.473C564.973 307.473 570.387 305.159 574.447 301.397L574.482 301.355C576.095 299.85 577.491 298.121 578.62 296.208L591.72 279.811C593.129 277.476 593.929 274.073 593.929 269.84C593.929 257.978 587.491 243.837 579.552 238.261C574.931 235.02 570.814 235.378 568.185 238.599L541.914 269.537L541.928 269.552C538.394 273.574 536.234 278.84 536.234 284.627V284.634Z"
      fill="url(#paint17_linear_1626_6)"/>
  </g>
  <path
    d="M529.445 199.827C529.445 206.718 533.183 214.924 537.791 218.165C540.463 220.043 542.84 219.825 544.362 217.975V217.989L557.56 202.281C562.806 204.362 568.612 203.976 573.101 200.664C580.457 195.242 581.453 184.076 575.324 175.716C569.194 167.362 558.268 164.979 550.912 170.4C550.239 170.899 549.635 171.455 549.074 172.038C548.822 172.228 548.583 172.446 548.366 172.699L542.3 180.012L540.82 179.119C539.516 178.332 537.819 178.901 537.258 180.322L533.008 190.974C532.875 191.305 532.692 191.621 532.461 191.895L531.388 193.196C530.182 194.511 529.452 196.782 529.452 199.82L529.445 199.827Z"
    fill="url(#paint18_linear_1626_6)"/>
  <path
    d="M492.312 232.945C492.312 245.089 502.13 254.933 514.241 254.933C519.985 254.933 525.188 252.704 529.102 249.083L529.137 249.041C530.694 247.592 532.033 245.926 533.12 244.083L545.729 228.291C547.09 226.048 547.861 222.764 547.861 218.693C547.861 207.273 541.662 193.66 534.018 188.295C529.564 185.173 525.602 185.525 523.071 188.619L497.775 218.411L497.789 218.425C494.388 222.3 492.305 227.369 492.305 232.938L492.312 232.945Z"
    fill="black"/>
  <mask id="mask6_1626_6" style="mask-type:luminance" maskUnits="userSpaceOnUse" x="492" y="186" width="56" height="69">
    <path
      d="M492.312 232.945C492.312 245.089 502.13 254.933 514.241 254.933C519.985 254.933 525.188 252.704 529.102 249.083L529.137 249.041C530.694 247.592 532.033 245.926 533.12 244.083L545.729 228.291C547.09 226.048 547.861 222.764 547.861 218.693C547.861 207.273 541.662 193.66 534.018 188.295C529.564 185.173 525.602 185.525 523.071 188.619L497.775 218.411L497.789 218.425C494.388 222.3 492.305 227.369 492.305 232.938L492.312 232.945Z"
      fill="white"/>
  </mask>
  <g mask="url(#mask6_1626_6)">
    <path
      d="M480.418 246.214C480.418 258.828 490.615 269.052 503.196 269.052C509.157 269.052 514.571 266.739 518.631 262.977L518.666 262.935C520.279 261.43 521.675 259.7 522.804 257.788L535.904 241.39C537.314 239.056 538.113 235.653 538.113 231.42C538.113 219.557 531.675 205.417 523.737 199.841C519.115 196.6 514.999 196.958 512.369 200.179L486.099 231.117L486.113 231.131C482.578 235.153 480.418 240.42 480.418 246.207V246.214Z"
      fill="url(#paint19_linear_1626_6)"/>
  </g>
  <path
    d="M570.19 237.291C577.883 227.96 585.142 224.022 591.741 228.277C588.515 218.545 589.3 211.063 569.889 198.041C539.376 179.429 512.446 191.41 495.18 209.615L410.52 285.541C397.953 297.425 392.294 314.476 395.38 331.134L395.443 358.064C397.925 371.466 411.867 389.284 423.494 397.089L436.665 402.876C436.307 391.752 443.222 387.843 451.406 377.492C455.066 372.859 472.451 362.122 482.564 370.503L495.966 361.693C499.136 360.476 501.415 365.771 503.743 363.38C503.743 363.38 552.195 285.485 558.268 276.787C565.05 267.069 556.529 266.929 560.015 253.217C560.498 251.326 563.177 245.539 563.177 245.539L566.733 241.348L570.183 237.284L570.19 237.291Z"
    fill="url(#paint20_linear_1626_6)"/>
  <mask id="mask7_1626_6" style="mask-type:luminance" maskUnits="userSpaceOnUse" x="394" y="188" width="198"
        height="215">
    <path
      d="M570.19 237.291C577.883 227.96 585.142 224.022 591.741 228.277C588.515 218.545 589.3 211.063 569.889 198.041C539.376 179.429 512.446 191.41 495.18 209.615L410.52 285.541C397.953 297.425 392.294 314.476 395.38 331.134L395.443 358.064C397.925 371.466 411.867 389.284 423.494 397.089L436.665 402.876C436.307 391.752 443.222 387.843 451.406 377.492C455.066 372.859 472.451 362.122 482.564 370.503L495.966 361.693C499.136 360.476 501.415 365.771 503.743 363.38C503.743 363.38 552.195 285.485 558.268 276.787C565.05 267.069 556.529 266.929 560.015 253.217C560.498 251.326 563.177 245.539 563.177 245.539L566.733 241.348L570.183 237.284L570.19 237.291Z"
      fill="white"/>
  </mask>
  <g mask="url(#mask7_1626_6)">
    <path
      d="M571.747 209.024C562.055 211 551.269 205.48 547.665 196.705C544.06 187.93 548.997 179.211 558.689 177.235C568.381 175.259 579.167 180.779 582.771 189.554C586.376 198.329 581.439 207.048 571.747 209.024Z"
      stroke="#88E3FF" stroke-width="4.19" stroke-miterlimit="10"/>
    <path
      d="M584.539 182.916L586.692 212.737C587.687 226.561 583.382 240.251 574.657 251.002L469.436 380.038C464.422 384.573 460.768 381.226 454.092 383.504C450.438 384.932 448.32 391.457 446.896 395.121C444.912 400.232 438.733 402.215 434.154 399.213L397.399 375.088"
      stroke="#88E3FF" stroke-width="5.21" stroke-miterlimit="10"/>
  </g>
  <path fill-rule="evenodd" clip-rule="evenodd"
        d="M554.587 194.167C554.587 194.167 558.317 180.336 564.236 169.163C567.28 163.418 570.983 158.397 574.854 155.381C588.319 144.904 601.601 143.61 614.659 143.462C624.105 143.357 633.398 144.341 642.22 139.18C665.727 125.433 666.491 105.886 666.491 105.886C666.512 100.514 670.882 96.1612 676.246 96.1894C681.604 96.2105 685.945 100.591 685.917 105.97C685.917 105.97 686.008 111.012 683.736 118.346L687.025 117.868C687.776 117.755 688.281 118.627 687.811 119.225L674.605 136.199C669.605 142.963 662.41 149.924 652.01 156.007C642.136 161.779 631.981 162.764 621.525 162.89C610.269 163.024 598.494 161.639 586.769 170.766C583.823 173.058 581.516 177.72 579.454 182.262C575.646 190.651 573.346 199.229 573.346 199.229C571.95 204.419 566.207 203.765 562.567 202.928C559.65 202.253 553.191 199.356 554.587 194.167Z"
        fill="url(#paint21_linear_1626_6)"/>
  <path
    d="M493.827 206.176C494.795 205.719 496.001 205.853 497.326 206.788C498.652 207.716 499.858 209.27 500.826 211.091L500.847 211.106V211.127C502.158 213.602 503.014 216.583 503.014 219.276C503.014 220.556 502.81 221.611 502.474 222.461L500.664 228.53L460.978 276.794L445.192 265.712L450.045 259.911L446.995 257.767L488.82 208.187L493.834 206.176H493.827Z"
    fill="url(#paint22_linear_1626_6)"/>
  <mask id="mask8_1626_6" style="mask-type:luminance" maskUnits="userSpaceOnUse" x="445" y="205" width="59" height="72">
    <path
      d="M493.827 206.176C494.795 205.719 496.001 205.853 497.326 206.788C498.652 207.716 499.858 209.27 500.826 211.091L500.847 211.106V211.127C502.158 213.602 503.014 216.583 503.014 219.276C503.014 220.556 502.81 221.611 502.474 222.461L500.664 228.53L460.978 276.794L445.192 265.712L450.045 259.911L446.995 257.767L488.82 208.187L493.834 206.176H493.827Z"
      fill="white"/>
  </mask>
  <g mask="url(#mask8_1626_6)">
    <path
      d="M499.43 234.239L516.058 217.075L501.197 197L488.805 208.187C488.805 208.187 493.876 207.287 497.754 215.908C500.503 222.018 501.422 227.32 499.43 234.239Z"
      fill="url(#paint23_linear_1626_6)"/>
  </g>
  <path d="M546.921 228.298L596.594 177.783L582.035 146.999L519.206 205.923L546.921 228.298Z"
        fill="url(#paint24_linear_1626_6)"/>
  <path
    d="M538.583 222.363C538.583 222.363 555.877 194.567 579.896 194.799C603.915 195.031 616.412 199.75 627.885 192.676C642.122 183.901 633.601 170.034 633.299 156.998C632.815 136.016 640.067 122.424 628.355 115.364C622.857 112.052 605.549 111.11 600.675 128.696C595.801 146.282 586.923 144.172 574.65 148.891C552.679 157.343 554.306 158.264 547.546 181.643C540.785 205.023 527.426 205.691 524.852 214.403C522.278 223.122 528.877 233.072 528.877 233.072L538.597 222.356L538.583 222.363Z"
    fill="url(#paint25_linear_1626_6)"/>
  <path
    d="M512.965 187.318L508.273 191.924C498.876 203.378 479.233 222.061 476.435 236.63L466.932 275.338L502.558 289.015L548.801 230.309L550.47 227.855C550.47 227.855 551.255 222.145 551.255 218.025C551.255 205.192 544.292 189.905 535.708 183.879C534.179 182.804 532.699 182.115 531.304 181.749L531.276 181.742C529.635 181.32 528.52 181.032 526.745 181.137"
    fill="url(#paint26_linear_1626_6)"/>
  <mask id="mask9_1626_6" style="mask-type:luminance" maskUnits="userSpaceOnUse" x="466" y="181" width="86"
        height="109">
    <path
      d="M512.965 187.318L508.273 191.924C498.876 203.378 479.233 222.061 476.435 236.63L466.932 275.338L502.558 289.015L548.801 230.309L550.47 227.855C550.47 227.855 551.255 222.145 551.255 218.025C551.255 205.192 544.292 189.905 535.708 183.879C534.179 182.804 532.699 182.115 531.304 181.749L531.276 181.742C529.635 181.32 528.52 181.032 526.745 181.137"
      fill="white"/>
  </mask>
  <g mask="url(#mask9_1626_6)">
    <path
      d="M501.218 199.152C501.218 199.152 506.275 192.163 514.901 196.487C518.302 198.189 535.904 211.415 531.844 251.818L545.4 237.291L544.313 214.003L535.764 190.398L510.153 176.349L500.272 191.769L501.218 199.152Z"
      fill="url(#paint27_linear_1626_6)"/>
    <path
      d="M508.94 189.174C508.94 189.174 515.784 184.815 522.292 186.769C528.87 188.752 546.143 202.9 542.083 243.31L552.279 230.182L554.194 204.714L545.645 181.109L519.094 178.866L510.146 182.487L508.933 189.181L508.94 189.174Z"
      fill="url(#paint28_linear_1626_6)"/>
  </g>
  <path d="M547.188 253.913L569.208 229.296L562.75 214.291L534.908 243.008L547.188 253.913Z"
        fill="url(#paint29_linear_1626_6)"/>
  <path
    d="M546.297 252.17C546.297 252.17 561.508 227.721 582.631 227.925C603.754 228.129 614.743 232.277 624.835 226.062C637.36 218.341 629.863 206.148 629.597 194.68C629.169 176.229 635.551 164.276 625.249 158.06C620.417 155.149 605.192 154.319 600.9 169.781C596.608 185.251 588.802 183.394 578.01 187.543C558.689 194.975 560.113 195.791 554.173 216.351C548.233 236.911 536.479 237.502 534.214 245.166C531.949 252.831 537.756 261.585 537.756 261.585L546.304 252.163L546.297 252.17Z"
    fill="url(#paint30_linear_1626_6)"/>
  <path
    d="M530.224 176.3C530.224 176.3 559.166 156.372 557.777 130.531C556.389 104.69 550.75 91.4642 557.777 78.7864C566.501 63.0498 581.748 71.565 595.717 71.2697C618.201 70.7986 632.409 62.3467 640.523 74.6237C644.331 80.3825 646.154 98.9668 627.563 105.049C608.965 111.131 611.644 120.582 607.169 134.012C599.161 158.06 598.095 156.358 573.381 164.733C548.668 173.114 548.591 187.522 539.383 190.707C530.175 193.892 519.206 187.262 519.206 187.262L530.217 176.3H530.224Z"
    fill="url(#paint31_linear_1626_6)"/>
  <path d="M532.159 196.564L556.249 173.227L549.187 159.009L518.723 186.228L532.159 196.564Z"
        fill="url(#paint32_linear_1626_6)"/>
  <path
    d="M518.281 180.631L516.128 182.74C511.822 187.993 491.008 202.471 489.724 209.151L470.186 251.628L489.395 270.775L508.091 228.044C509.416 225.014 511.338 222.293 513.743 220.029L534.705 200.333L535.469 199.208C535.469 199.208 535.827 196.593 535.827 194.701C535.827 188.823 532.636 181.812 528.702 179.049C528.001 178.557 527.327 178.24 526.682 178.071H526.668C525.918 177.875 525.406 177.748 524.592 177.797"
    fill="url(#paint33_linear_1626_6)"/>
  <mask id="mask10_1626_6" style="mask-type:luminance" maskUnits="userSpaceOnUse" x="470" y="177" width="66"
        height="94">
    <path
      d="M518.281 180.631L516.128 182.74C511.822 187.993 491.008 202.471 489.724 209.151L470.186 251.628L489.395 270.775L508.091 228.044C509.416 225.014 511.338 222.293 513.743 220.029L534.705 200.333L535.469 199.208C535.469 199.208 535.827 196.593 535.827 194.701C535.827 188.823 532.636 181.812 528.702 179.049C528.001 178.557 527.327 178.24 526.682 178.071H526.668C525.918 177.875 525.406 177.748 524.592 177.797"
      fill="white"/>
  </mask>
  <g mask="url(#mask10_1626_6)">
    <path
      d="M512.895 186.052C512.895 186.052 515.216 182.846 519.164 184.829C520.721 185.609 527.937 189.906 526.079 208.427L533.148 203.526L532.65 192.852L528.73 182.03L516.99 175.589L512.46 182.656L512.895 186.038V186.052Z"
      fill="url(#paint34_linear_1626_6)"/>
    <path
      d="M516.436 181.482C516.436 181.482 519.571 179.485 522.559 180.378C525.574 181.285 532.903 185.251 531.044 203.772L536.304 200.277L537.18 188.605L533.26 177.783L521.093 176.757L516.99 178.416L516.436 181.482Z"
      fill="url(#paint35_linear_1626_6)"/>
  </g>
  <path
    d="M538.941 237.551C539.909 237.094 541.115 237.228 542.44 238.163C543.766 239.091 544.972 240.645 545.94 242.466L545.961 242.48V242.501C547.272 244.976 548.128 247.958 548.128 250.651C548.128 251.931 547.924 252.985 547.588 253.836L545.778 259.904L506.092 308.169L490.306 297.087L495.159 291.286L492.109 289.141L533.934 239.562L538.948 237.551H538.941Z"
    fill="url(#paint36_linear_1626_6)"/>
  <mask id="mask11_1626_6" style="mask-type:luminance" maskUnits="userSpaceOnUse" x="490" y="237" width="59"
        height="72">
    <path
      d="M538.941 237.551C539.909 237.094 541.115 237.228 542.44 238.163C543.766 239.091 544.972 240.645 545.94 242.466L545.961 242.48V242.501C547.272 244.976 548.128 247.958 548.128 250.651C548.128 251.931 547.924 252.985 547.588 253.836L545.778 259.904L506.092 308.169L490.306 297.087L495.159 291.286L492.109 289.141L533.934 239.562L538.948 237.551H538.941Z"
      fill="white"/>
  </mask>
  <g mask="url(#mask11_1626_6)">
    <path
      d="M544.544 265.614L561.172 248.45L546.311 228.375L533.92 239.562C533.92 239.562 538.99 238.662 542.868 247.283C545.617 253.393 546.536 258.695 544.544 265.614Z"
      fill="url(#paint37_linear_1626_6)"/>
  </g>
  <path
    d="M496.113 343.101C475.67 367.529 438.06 372.556 412.112 354.338C386.165 336.119 381.697 301.545 402.133 277.124C422.576 252.697 460.186 247.669 486.134 265.888C512.081 284.107 516.549 318.681 496.113 343.101Z"
    fill="black"/>
  <path
    d="M496.113 334.776C475.67 359.203 438.06 364.231 412.112 346.012C386.165 327.794 381.697 293.22 402.133 268.799C422.576 244.372 460.186 239.344 486.134 257.563C512.081 275.782 516.549 310.355 496.113 334.776Z"
    fill="black"/>
  <path fill-rule="evenodd" clip-rule="evenodd"
        d="M445.662 376.67C445.662 365.848 439.792 352.952 432.548 347.869L412.898 334.073C408.893 331.26 405.31 331.436 402.904 333.981L402.848 334.038C402.778 334.115 402.708 334.199 402.638 334.284L397.392 340.493H400.092C399.896 341.709 399.784 343.024 399.784 344.465C399.784 355.287 405.654 368.183 412.898 373.267L432.548 387.062C434.287 388.286 435.949 388.933 437.464 389.08L437.184 393.51L442.576 387.126C444.498 385.065 445.655 381.479 445.655 376.677L445.662 376.67Z"
        fill="url(#paint38_linear_1626_6)"/>
  <path fill-rule="evenodd" clip-rule="evenodd"
        d="M426.917 393.707L407.266 379.911C400.022 374.827 394.152 361.932 394.152 351.11C394.152 340.289 400.022 335.634 407.266 340.718L426.917 354.513C434.161 359.597 440.031 372.493 440.031 383.315C440.031 394.136 434.161 398.791 426.917 393.707Z"
        fill="#D7F5FF"/>
  <path fill-rule="evenodd" clip-rule="evenodd"
        d="M427.183 388.588L406.993 374.413C401.53 370.58 397.105 360.856 397.105 352.699C397.105 344.543 401.53 341.034 406.993 344.866L427.183 359.042C432.646 362.874 437.071 372.599 437.071 380.755C437.071 388.912 432.646 392.42 427.183 388.588Z"
        fill="url(#paint39_linear_1626_6)"/>
  <path fill-rule="evenodd" clip-rule="evenodd"
        d="M423.501 371.15C423.501 376.445 420.633 378.716 417.085 376.234C413.543 373.745 410.668 367.437 410.668 362.15C410.668 356.862 413.536 354.584 417.085 357.066C420.626 359.555 423.501 365.862 423.501 371.15Z"
        fill="#D6D6D6"/>
  <path fill-rule="evenodd" clip-rule="evenodd"
        d="M428.277 366.481C428.277 368.007 427.45 368.661 426.426 367.944C425.402 367.226 424.574 365.405 424.574 363.879C424.574 362.354 425.402 361.7 426.426 362.417C427.45 363.134 428.277 364.955 428.277 366.481Z"
        fill="#D6D6D6"/>
  <path fill-rule="evenodd" clip-rule="evenodd"
        d="M428.277 382.527C428.277 384.053 427.45 384.707 426.426 383.99C425.402 383.272 424.574 381.451 424.574 379.925C424.574 378.4 425.402 377.746 426.426 378.463C427.45 379.18 428.277 381.001 428.277 382.527Z"
        fill="#D6D6D6"/>
  <path fill-rule="evenodd" clip-rule="evenodd"
        d="M409.504 353.297C409.504 354.823 408.676 355.477 407.652 354.76C406.628 354.042 405.801 352.221 405.801 350.695C405.801 349.17 406.628 348.516 407.652 349.233C408.676 349.95 409.504 351.771 409.504 353.297Z"
        fill="#D6D6D6"/>
  <path fill-rule="evenodd" clip-rule="evenodd"
        d="M409.504 369.35C409.504 370.876 408.676 371.53 407.652 370.813C406.628 370.095 405.801 368.274 405.801 366.748C405.801 365.222 406.628 364.569 407.652 365.286C408.676 366.003 409.504 367.824 409.504 369.35Z"
        fill="#D6D6D6"/>
  <path
    d="M393.704 284.437L403.97 291.645L413.024 268.855L394.005 279.178C391.985 280.275 391.824 283.115 393.704 284.437Z"
    fill="url(#paint40_radial_1626_6)"/>
  <path
    d="M397.455 276.914L407.722 284.121L416.776 261.332L397.757 271.654C395.737 272.751 395.576 275.592 397.455 276.914Z"
    fill="url(#paint41_radial_1626_6)"/>
  <path fill-rule="evenodd" clip-rule="evenodd"
        d="M404.581 230.428V259.567L433.158 250.018L410.275 228.002C408.136 225.942 404.581 227.468 404.581 230.435V230.428Z"
        fill="url(#paint42_radial_1626_6)"/>
  <path
    d="M395.239 295.99C393.192 302.009 394.082 321.163 410.661 336.449C428.004 351.258 450.157 354.963 476.14 338.868C476.61 338.58 477.059 338.081 477.578 337.617L482.788 340.043C484.275 340.732 485.972 339.649 485.972 338.003V331.274L488.146 332.287C489.633 332.976 491.33 331.893 491.33 330.248V321.107C502.368 303.746 510.903 276.485 487.838 253.175C471.624 236.792 451.153 233.163 436.938 235.871C427.302 237.706 418.69 243.057 412.007 250.25L407.217 255.411C404.672 258.153 402.764 261.423 401.635 264.995C399.714 271.063 398.402 278.833 398.044 282.834"
    fill="url(#paint43_radial_1626_6)"/>
  <path
    d="M481.26 264.707C483.279 268.441 486.246 274.256 489.9 282.398C489.9 282.398 492.417 289.563 484.871 296.046C480.649 299.675 474.639 299.302 469.892 296.398C461.981 291.553 451.798 279.22 462.563 269.882L473.342 262.752C476.049 260.959 479.717 261.845 481.26 264.707Z"
    fill="url(#paint44_radial_1626_6)"/>
  <path
    d="M428.025 338.58C425.465 336.78 424.111 333.609 423.123 331.288C422.19 329.109 421.657 327.927 420.521 327.133C419.385 326.338 418.845 326.753 417.919 327.632C416.93 328.567 415.584 329.84 413.017 328.04C410.45 326.24 409.104 323.069 408.122 320.748C407.196 318.568 406.656 317.387 405.52 316.592C404.665 315.988 403.97 314.469 403.97 313.189C403.97 311.909 404.665 311.361 405.52 311.959C408.08 313.759 409.433 316.93 410.415 319.25C411.341 321.43 411.881 322.611 413.017 323.406C414.153 324.201 414.693 323.786 415.619 322.907C416.608 321.972 417.954 320.699 420.521 322.499C423.088 324.299 424.434 327.47 425.423 329.791C426.356 331.97 426.889 333.152 428.025 333.946C428.88 334.551 429.575 336.07 429.575 337.35C429.575 338.629 428.88 339.178 428.025 338.58Z"
    fill="black"/>
  <path
    d="M435.788 321.536C438.458 320.964 439.88 317.018 438.964 312.723C438.048 308.428 435.141 305.41 432.471 305.983C429.8 306.555 428.378 310.501 429.294 314.796C430.21 319.091 433.117 322.109 435.788 321.536Z"
    fill="black"/>
  <path
    d="M435.198 318.772C436.918 318.404 437.833 315.86 437.243 313.092C436.652 310.324 434.78 308.378 433.06 308.747C431.341 309.116 430.425 311.659 431.016 314.427C431.606 317.196 433.479 319.141 435.198 318.772Z"
    fill="black"/>
  <path
    d="M409.49 298.5L412.218 296.335C412.744 295.92 412.772 294.816 412.295 293.761C411.979 293.065 411.509 292.58 411.046 292.467C410.801 292.411 410.57 292.453 410.38 292.608L407.75 294.689L404.994 288.642C404.679 287.946 404.209 287.461 403.746 287.348C403.501 287.292 403.269 287.334 403.08 287.489C402.554 287.904 402.526 289.008 403.003 290.063L405.808 296.229L403.08 298.395C402.554 298.81 402.526 299.914 403.003 300.968C403.22 301.454 403.522 301.847 403.844 302.072C404.048 302.213 404.258 302.29 404.447 302.29C404.616 302.29 404.77 302.234 404.91 302.129L407.54 300.047L410.296 306.094C410.513 306.58 410.815 306.973 411.138 307.198C411.341 307.346 411.551 307.416 411.741 307.416C411.909 307.416 412.063 307.36 412.204 307.255C412.73 306.84 412.758 305.736 412.281 304.681L409.476 298.514L409.49 298.5Z"
    fill="black"/>
  <path
    d="M445.178 366.826C490.161 366.826 526.626 330.263 526.626 285.162C526.626 240.06 490.161 203.497 445.178 203.497C400.196 203.497 363.73 240.06 363.73 285.162C363.73 330.263 400.196 366.826 445.178 366.826Z"
    fill="url(#paint45_radial_1626_6)"/>
  <path d="M341.857 230.316L360.666 241.629" stroke="url(#paint46_linear_1626_6)" stroke-width="11"
        stroke-miterlimit="10" stroke-linecap="round"/>
  <path d="M355.28 203.954L372.188 223.045" stroke="url(#paint47_linear_1626_6)" stroke-width="11"
        stroke-miterlimit="10" stroke-linecap="round"/>
  <path d="M382.525 190.046L390.828 208.982" stroke="url(#paint48_linear_1626_6)" stroke-width="11"
        stroke-miterlimit="10" stroke-linecap="round"/>
  <defs>
    <filter id="filter0_f_1626_6" x="307" y="15" width="70.2353" height="69" filterUnits="userSpaceOnUse"
            color-interpolation-filters="sRGB">
      <feFlood flood-opacity="0" result="BackgroundImageFix"/>
      <feBlend mode="normal" in="SourceGraphic" in2="BackgroundImageFix" result="shape"/>
      <feGaussianBlur stdDeviation="2" result="effect1_foregroundBlur_1626_6"/>
    </filter>
    <filter id="filter1_f_1626_6" x="540" y="535" width="70.2353" height="68.9999" filterUnits="userSpaceOnUse"
            color-interpolation-filters="sRGB">
      <feFlood flood-opacity="0" result="BackgroundImageFix"/>
      <feBlend mode="normal" in="SourceGraphic" in2="BackgroundImageFix" result="shape"/>
      <feGaussianBlur stdDeviation="2" result="effect1_foregroundBlur_1626_6"/>
    </filter>
    <filter id="filter2_f_1626_6" x="0" y="478" width="70.2353" height="68.9999" filterUnits="userSpaceOnUse"
            color-interpolation-filters="sRGB">
      <feFlood flood-opacity="0" result="BackgroundImageFix"/>
      <feBlend mode="normal" in="SourceGraphic" in2="BackgroundImageFix" result="shape"/>
      <feGaussianBlur stdDeviation="2" result="effect1_foregroundBlur_1626_6"/>
    </filter>
    <filter id="filter3_f_1626_6" x="485.04" y="548.13" width="28.8479" height="27.0606" filterUnits="userSpaceOnUse"
            color-interpolation-filters="sRGB">
      <feFlood flood-opacity="0" result="BackgroundImageFix"/>
      <feBlend mode="normal" in="SourceGraphic" in2="BackgroundImageFix" result="shape"/>
      <feGaussianBlur stdDeviation="1" result="effect1_foregroundBlur_1626_6"/>
    </filter>
    <linearGradient id="paint0_linear_1626_6" x1="166.806" y1="301.353" x2="242.252" y2="376.747"
                    gradientUnits="userSpaceOnUse">
      <stop stop-color="#F6EAFF"/>
      <stop offset="1" stop-color="#DEB4FF"/>
    </linearGradient>
    <linearGradient id="paint1_linear_1626_6" x1="725.805" y1="291.353" x2="801.252" y2="366.747"
                    gradientUnits="userSpaceOnUse">
      <stop stop-color="#F6EAFF"/>
      <stop offset="1" stop-color="#DEB4FF"/>
    </linearGradient>
    <linearGradient id="paint2_linear_1626_6" x1="413.747" y1="14.3831" x2="460.242" y2="60.8453"
                    gradientUnits="userSpaceOnUse">
      <stop stop-color="#F6EAFF"/>
      <stop offset="1" stop-color="#DEB4FF"/>
    </linearGradient>
    <linearGradient id="paint3_linear_1626_6" x1="324.482" y1="29.9273" x2="359.789" y2="65.2092"
                    gradientUnits="userSpaceOnUse">
      <stop stop-color="#F6EAFF"/>
      <stop offset="1" stop-color="#DEB4FF"/>
    </linearGradient>
    <linearGradient id="paint4_linear_1626_6" x1="557.482" y1="549.927" x2="592.789" y2="585.209"
                    gradientUnits="userSpaceOnUse">
      <stop stop-color="#F6EAFF"/>
      <stop offset="1" stop-color="#DEB4FF"/>
    </linearGradient>
    <linearGradient id="paint5_linear_1626_6" x1="17.4821" y1="492.927" x2="52.7887" y2="528.209"
                    gradientUnits="userSpaceOnUse">
      <stop stop-color="#F6EAFF"/>
      <stop offset="1" stop-color="#DEB4FF"/>
    </linearGradient>
    <radialGradient id="paint6_radial_1626_6" cx="0" cy="0" r="1" gradientUnits="userSpaceOnUse"
                    gradientTransform="translate(736.935 377.012) scale(32.805 32.805)">
      <stop stop-color="#F9A333"/>
      <stop offset="0.32" stop-color="#F9992E"/>
      <stop offset="0.84" stop-color="#F98022"/>
      <stop offset="1" stop-color="#F9781E"/>
    </radialGradient>
    <radialGradient id="paint7_radial_1626_6" cx="0" cy="0" r="1" gradientUnits="userSpaceOnUse"
                    gradientTransform="translate(165.255 202.89) scale(32.805 32.805)">
      <stop stop-color="#F9A333"/>
      <stop offset="0.32" stop-color="#F9992E"/>
      <stop offset="0.84" stop-color="#F98022"/>
      <stop offset="1" stop-color="#F9781E"/>
    </radialGradient>
    <radialGradient id="paint8_radial_1626_6" cx="0" cy="0" r="1" gradientUnits="userSpaceOnUse"
                    gradientTransform="translate(503.822 564.635) rotate(90.8115) scale(16.4025 16.4025)">
      <stop stop-color="#F9A333"/>
      <stop offset="0.32" stop-color="#F9992E"/>
      <stop offset="0.84" stop-color="#F98022"/>
      <stop offset="1" stop-color="#F9781E"/>
    </radialGradient>
    <linearGradient id="paint9_linear_1626_6" x1="447.654" y1="248.464" x2="539.928" y2="340.494"
                    gradientUnits="userSpaceOnUse">
      <stop offset="0.81" stop-color="#D7F5FF"/>
      <stop offset="0.86" stop-color="#C5F0FF"/>
      <stop offset="0.96" stop-color="#97E6FF"/>
      <stop offset="0.99" stop-color="#88E3FF"/>
    </linearGradient>
    <linearGradient id="paint10_linear_1626_6" x1="469.478" y1="369.631" x2="458.313" y2="426.772"
                    gradientUnits="userSpaceOnUse">
      <stop stop-color="#D7F5FF"/>
      <stop offset="0.91" stop-color="#88E3FF"/>
    </linearGradient>
    <radialGradient id="paint11_radial_1626_6" cx="0" cy="0" r="1" gradientUnits="userSpaceOnUse"
                    gradientTransform="translate(450.106 412.666) rotate(73.7309) scale(27.3047 14.4392)">
      <stop stop-color="#7C7C7C"/>
      <stop offset="0.65" stop-color="#232323"/>
      <stop offset="0.91"/>
    </radialGradient>
    <linearGradient id="paint12_linear_1626_6" x1="460.908" y1="411.926" x2="416.536" y2="439.173"
                    gradientUnits="userSpaceOnUse">
      <stop offset="0.05" stop-color="#F9781E"/>
      <stop offset="1" stop-color="#F9A333"/>
    </linearGradient>
    <linearGradient id="paint13_linear_1626_6" x1="410.997" y1="329.045" x2="399.825" y2="386.186"
                    gradientUnits="userSpaceOnUse">
      <stop stop-color="#D7F5FF"/>
      <stop offset="0.91" stop-color="#88E3FF"/>
    </linearGradient>
    <radialGradient id="paint14_radial_1626_6" cx="0" cy="0" r="1" gradientUnits="userSpaceOnUse"
                    gradientTransform="translate(391.668 372.069) rotate(73.7309) scale(27.3047 14.4392)">
      <stop stop-color="#7C7C7C"/>
      <stop offset="0.65" stop-color="#232323"/>
      <stop offset="0.91"/>
    </radialGradient>
    <linearGradient id="paint15_linear_1626_6" x1="402.428" y1="371.333" x2="358.048" y2="398.587"
                    gradientUnits="userSpaceOnUse">
      <stop offset="0.05" stop-color="#F9781E"/>
      <stop offset="1" stop-color="#F9A333"/>
    </linearGradient>
    <linearGradient id="paint16_linear_1626_6" x1="583.753" y1="244.997" x2="628.125" y2="217.75"
                    gradientUnits="userSpaceOnUse">
      <stop offset="0.05" stop-color="#F9781E"/>
      <stop offset="1" stop-color="#F9A333"/>
    </linearGradient>
    <linearGradient id="paint17_linear_1626_6" x1="552.511" y1="288.839" x2="594.601" y2="246.86"
                    gradientUnits="userSpaceOnUse">
      <stop offset="0.26" stop-color="#D7F5FF"/>
      <stop offset="0.91" stop-color="#88E3FF"/>
    </linearGradient>
    <linearGradient id="paint18_linear_1626_6" x1="527.937" y1="206.577" x2="572.317" y2="179.323"
                    gradientUnits="userSpaceOnUse">
      <stop offset="0.05" stop-color="#F9781E"/>
      <stop offset="1" stop-color="#F9A333"/>
    </linearGradient>
    <linearGradient id="paint19_linear_1626_6" x1="496.695" y1="250.419" x2="538.793" y2="208.44"
                    gradientUnits="userSpaceOnUse">
      <stop offset="0.26" stop-color="#D7F5FF"/>
      <stop offset="0.91" stop-color="#88E3FF"/>
    </linearGradient>
    <linearGradient id="paint20_linear_1626_6" x1="466.617" y1="266.971" x2="570.795" y2="370.874"
                    gradientUnits="userSpaceOnUse">
      <stop offset="0.48" stop-color="#D7F5FF"/>
      <stop offset="0.54" stop-color="#CDF2FF"/>
      <stop offset="0.64" stop-color="#B3ECFF"/>
      <stop offset="0.77" stop-color="#88E3FF"/>
    </linearGradient>
    <linearGradient id="paint21_linear_1626_6" x1="691.23" y1="113.87" x2="549.229" y2="186.656"
                    gradientUnits="userSpaceOnUse">
      <stop offset="0.27" stop-color="#F9A333"/>
      <stop offset="0.7" stop-color="#F98625"/>
      <stop offset="1" stop-color="#F9781E"/>
    </linearGradient>
    <linearGradient id="paint22_linear_1626_6" x1="462.093" y1="226.99" x2="482.442" y2="247.278"
                    gradientUnits="userSpaceOnUse">
      <stop offset="0.15" stop-color="#EEFBFF"/>
      <stop offset="0.32" stop-color="#D5F5FF"/>
      <stop offset="0.68" stop-color="#96E6FF"/>
      <stop offset="0.76" stop-color="#88E3FF"/>
    </linearGradient>
    <linearGradient id="paint23_linear_1626_6" x1="502.432" y1="197" x2="502.432" y2="234.239"
                    gradientUnits="userSpaceOnUse">
      <stop offset="0.28" stop-color="#6A3C98"/>
      <stop offset="0.58" stop-color="#500E82"/>
    </linearGradient>
    <linearGradient id="paint24_linear_1626_6" x1="529.438" y1="220.711" x2="587.545" y2="163.269"
                    gradientUnits="userSpaceOnUse">
      <stop stop-color="#7C7C7C"/>
      <stop offset="0.91" stop-color="#7C7C7C" stop-opacity="0"/>
    </linearGradient>
    <linearGradient id="paint25_linear_1626_6" x1="531.586" y1="243.098" x2="630.162" y2="134.784"
                    gradientUnits="userSpaceOnUse">
      <stop stop-color="#7C7C7C"/>
      <stop offset="0.91" stop-color="#7C7C7C" stop-opacity="0"/>
    </linearGradient>
    <linearGradient id="paint26_linear_1626_6" x1="486.12" y1="214.136" x2="531.796" y2="259.692"
                    gradientUnits="userSpaceOnUse">
      <stop offset="0.1" stop-color="#EEFBFF"/>
      <stop offset="0.25" stop-color="#E7F9FF"/>
      <stop offset="0.45" stop-color="#D6F5FF"/>
      <stop offset="0.68" stop-color="#BAEEFF"/>
      <stop offset="0.93" stop-color="#93E5FF"/>
      <stop offset="0.99" stop-color="#88E3FF"/>
    </linearGradient>
    <linearGradient id="paint27_linear_1626_6" x1="522.839" y1="176.349" x2="522.839" y2="251.825"
                    gradientUnits="userSpaceOnUse">
      <stop stop-color="#6A3C98"/>
      <stop offset="0.21" stop-color="#663595"/>
      <stop offset="0.5" stop-color="#5C248C"/>
      <stop offset="0.77" stop-color="#500E82"/>
    </linearGradient>
    <linearGradient id="paint28_linear_1626_6" x1="531.57" y1="178.866" x2="531.57" y2="243.31"
                    gradientUnits="userSpaceOnUse">
      <stop stop-color="#6A3C98"/>
      <stop offset="0.11" stop-color="#663595"/>
      <stop offset="0.26" stop-color="#5C248C"/>
      <stop offset="0.4" stop-color="#500E82"/>
    </linearGradient>
    <linearGradient id="paint29_linear_1626_6" x1="539.383" y1="249.596" x2="566.369" y2="222.913"
                    gradientUnits="userSpaceOnUse">
      <stop stop-color="#7C7C7C"/>
      <stop offset="1" stop-color="#7C7C7C" stop-opacity="0"/>
    </linearGradient>
    <linearGradient id="paint30_linear_1626_6" x1="540.148" y1="270.409" x2="626.846" y2="175.142"
                    gradientUnits="userSpaceOnUse">
      <stop stop-color="#7C7C7C"/>
      <stop offset="0.91" stop-color="#7C7C7C" stop-opacity="0"/>
    </linearGradient>
    <linearGradient id="paint31_linear_1626_6" x1="515.286" y1="177.917" x2="627.176" y2="67.2982"
                    gradientUnits="userSpaceOnUse">
      <stop stop-color="#7C7C7C"/>
      <stop offset="0.01" stop-color="#7C7C7C" stop-opacity="0.9801"/>
      <stop offset="0.34" stop-color="#7C7C7C" stop-opacity="0.3136"/>
      <stop offset="0.63" stop-color="#7C7C7C" stop-opacity="0.0676"/>
      <stop offset="0.86" stop-color="#7C7C7C" stop-opacity="0.01"/>
      <stop offset="1" stop-color="#7C7C7C" stop-opacity="0"/>
    </linearGradient>
    <linearGradient id="paint32_linear_1626_6" x1="523.73" y1="193.393" x2="551.264" y2="166.177"
                    gradientUnits="userSpaceOnUse">
      <stop stop-color="#7C7C7C"/>
      <stop offset="1" stop-color="#7C7C7C" stop-opacity="0"/>
    </linearGradient>
    <linearGradient id="paint33_linear_1626_6" x1="490.461" y1="206.226" x2="522.201" y2="237.882"
                    gradientUnits="userSpaceOnUse">
      <stop offset="0.1" stop-color="#EEFBFF"/>
      <stop offset="0.25" stop-color="#E7F9FF"/>
      <stop offset="0.45" stop-color="#D6F5FF"/>
      <stop offset="0.68" stop-color="#BAEEFF"/>
      <stop offset="0.93" stop-color="#93E5FF"/>
      <stop offset="0.99" stop-color="#88E3FF"/>
    </linearGradient>
    <linearGradient id="paint34_linear_1626_6" x1="522.804" y1="175.603" x2="522.804" y2="208.434"
                    gradientUnits="userSpaceOnUse">
      <stop stop-color="#6A3C98"/>
      <stop offset="0.21" stop-color="#663595"/>
      <stop offset="0.5" stop-color="#5C248C"/>
      <stop offset="0.77" stop-color="#500E82"/>
    </linearGradient>
    <linearGradient id="paint35_linear_1626_6" x1="526.808" y1="176.757" x2="526.808" y2="203.772"
                    gradientUnits="userSpaceOnUse">
      <stop stop-color="#6A3C98"/>
      <stop offset="0.11" stop-color="#663595"/>
      <stop offset="0.26" stop-color="#5C248C"/>
      <stop offset="0.4" stop-color="#500E82"/>
    </linearGradient>
    <linearGradient id="paint36_linear_1626_6" x1="511.191" y1="262.351" x2="531.54" y2="282.64"
                    gradientUnits="userSpaceOnUse">
      <stop offset="0.19" stop-color="#EEFBFF"/>
      <stop offset="0.32" stop-color="#E7F9FF"/>
      <stop offset="0.5" stop-color="#D6F5FF"/>
      <stop offset="0.71" stop-color="#BAEEFF"/>
      <stop offset="0.93" stop-color="#93E5FF"/>
      <stop offset="0.99" stop-color="#88E3FF"/>
    </linearGradient>
    <linearGradient id="paint37_linear_1626_6" x1="547.546" y1="228.375" x2="547.546" y2="265.614"
                    gradientUnits="userSpaceOnUse">
      <stop offset="0.28" stop-color="#6A3C98"/>
      <stop offset="0.77" stop-color="#500E82"/>
    </linearGradient>
    <linearGradient id="paint38_linear_1626_6" x1="399.552" y1="337.328" x2="446.509" y2="384.16"
                    gradientUnits="userSpaceOnUse">
      <stop offset="0.36" stop-color="#D7F5FF"/>
      <stop offset="1" stop-color="#88E3FF"/>
    </linearGradient>
    <linearGradient id="paint39_linear_1626_6" x1="365.418" y1="345.231" x2="390.107" y2="310.065"
                    gradientUnits="userSpaceOnUse">
      <stop stop-color="#7C7C7C"/>
      <stop offset="0.05" stop-color="#747474"/>
      <stop offset="0.5" stop-color="#353535"/>
      <stop offset="0.83" stop-color="#0E0E0E"/>
      <stop offset="1"/>
    </linearGradient>
    <radialGradient id="paint40_radial_1626_6" cx="0" cy="0" r="1" gradientUnits="userSpaceOnUse"
                    gradientTransform="translate(402.087 280.247) rotate(90) scale(11.9747 12.3013)">
      <stop stop-color="#F9A333"/>
      <stop offset="0.24" stop-color="#F9A132"/>
      <stop offset="0.33" stop-color="#F99A2E"/>
      <stop offset="0.39" stop-color="#F98E28"/>
      <stop offset="0.44" stop-color="#F97D20"/>
      <stop offset="0.45" stop-color="#F9781E"/>
    </radialGradient>
    <radialGradient id="paint41_radial_1626_6" cx="0" cy="0" r="1" gradientUnits="userSpaceOnUse"
                    gradientTransform="translate(405.854 272.73) rotate(90) scale(11.9747 12.3013)">
      <stop stop-color="#F9A333"/>
      <stop offset="0.24" stop-color="#F9A132"/>
      <stop offset="0.33" stop-color="#F99A2E"/>
      <stop offset="0.39" stop-color="#F98E28"/>
      <stop offset="0.44" stop-color="#F97D20"/>
      <stop offset="0.45" stop-color="#F9781E"/>
    </radialGradient>
    <radialGradient id="paint42_radial_1626_6" cx="0" cy="0" r="1" gradientUnits="userSpaceOnUse"
                    gradientTransform="translate(418.866 243.315) scale(25.6742 31.9206)">
      <stop offset="0.16" stop-color="#F9A333"/>
      <stop offset="0.43" stop-color="#F9932B"/>
      <stop offset="0.8" stop-color="#F9781E"/>
    </radialGradient>
    <radialGradient id="paint43_radial_1626_6" cx="0" cy="0" r="1" gradientUnits="userSpaceOnUse"
                    gradientTransform="translate(413.55 316.733) scale(106.126 106.408)">
      <stop offset="0.08" stop-color="#8CC63F"/>
      <stop offset="0.11" stop-color="#92C33E"/>
      <stop offset="0.41" stop-color="#DCAC36"/>
      <stop offset="0.55" stop-color="#F9A333"/>
      <stop offset="1" stop-color="#F9781E"/>
    </radialGradient>
    <radialGradient id="paint44_radial_1626_6" cx="0" cy="0" r="1" gradientUnits="userSpaceOnUse"
                    gradientTransform="translate(474.581 279.744) rotate(10.7177) scale(17.4216 24.9745)">
      <stop offset="0.16" stop-color="#F9A333"/>
      <stop offset="0.43" stop-color="#F9932B"/>
      <stop offset="0.8" stop-color="#F9781E"/>
    </radialGradient>
    <radialGradient id="paint45_radial_1626_6" cx="0" cy="0" r="1" gradientUnits="userSpaceOnUse"
                    gradientTransform="translate(445.178 285.281) scale(81.4479 86.564)">
      <stop stop-color="#90FBE7" stop-opacity="0.02"/>
      <stop offset="0.17" stop-color="#90FBE7" stop-opacity="0.01"/>
      <stop offset="0.35" stop-color="#90FBE7" stop-opacity="0.01"/>
      <stop offset="0.55" stop-color="#91FCE8" stop-opacity="0.0324"/>
      <stop offset="0.74" stop-color="#92FDE9" stop-opacity="0.09"/>
      <stop offset="0.95" stop-color="#94FEEB" stop-opacity="0.2025"/>
      <stop offset="1" stop-color="#95FFEC" stop-opacity="0.5"/>
    </radialGradient>
    <linearGradient id="paint46_linear_1626_6" x1="339.083" y1="227.54" x2="363.49" y2="244.339"
                    gradientUnits="userSpaceOnUse">
      <stop stop-color="#0FC382"/>
      <stop offset="1" stop-color="#0FC382" stop-opacity="0"/>
    </linearGradient>
    <linearGradient id="paint47_linear_1626_6" x1="353.561" y1="200.4" x2="374" y2="226.537"
                    gradientUnits="userSpaceOnUse">
      <stop stop-color="#0FC382"/>
      <stop offset="1" stop-color="#0FC382" stop-opacity="0"/>
    </linearGradient>
    <linearGradient id="paint48_linear_1626_6" x1="381.811" y1="186.181" x2="391.57" y2="212.821"
                    gradientUnits="userSpaceOnUse">
      <stop stop-color="#0FC382"/>
      <stop offset="1" stop-color="#0FC382" stop-opacity="0"/>
    </linearGradient>
  </defs>
</svg>
