<svg xmlns="http://www.w3.org/2000/svg" viewBox="0 0 758 400">
  <path
    d="M743.1 163.1C601.6 21.5 436.5-29.3 271.4 16.1 175.7 45 88.1 96.1 15.9 165.1c-8.8 8.3-14.3 19.4-15.7 31.4 -1.3 15.3 4.3 30.5 15.3 41.3C141.8 358.7 263.9 400 371.7 400c189 0 332.7-126.3 371.1-163.9 9.9-9.6 15.4-22.9 15.3-36.7C758 185.8 752.7 172.8 743.1 163.1zM714.2 206.4c-55.7 54.5-350 309.6-669.9 1.7 -2.2-2.2-3.3-5.2-2.9-8.3 0.2-2.4 1.2-4.6 2.9-6.2l0.4-1.7c57-53.7 357.8-311.6 669.5 0 1.9 2 2.9 4.7 2.9 7.4C717.2 202 716.1 204.6 714.2 206.4z"/>
  <path
    d="M384.2 88c-61-0.1-110.9 49-111.6 110.2 -0.7 61.5 48.7 112 110.2 112.7s112-48.7 112.7-110.2c0-0.4 0-0.8 0-1.2C495.5 137.9 445.7 88 384.2 88zM385.3 269.6c-38.8 0-70.2-31.4-70.2-70.2 0-38.8 31.4-70.2 70.2-70.2s70.2 31.4 70.2 70.2C455.4 238.2 424 269.6 385.3 269.6z"/>
</svg>
