<svg xmlns="http://www.w3.org/2000/svg" width="623.271" height="400" viewBox="0 0 623.271 400">
	<path d="M585.828 161.29c-25.996 0-51.991 0-77.986 0C489.759 69.48 408.673 0 311.634 0c-97.032 0-178.121 69.48-196.207 161.29 -25.995 0-51.99 0-77.986 0 -49.921 0-49.921 77.42 0 77.42 25.996 0 51.991 0 77.986 0C133.513 330.525 214.602 400 311.634 400c97.039 0 178.125-69.475 196.208-161.29 25.995 0 51.99 0 77.986 0C635.752 238.71 635.752 161.29 585.828 161.29zM311.634 77.419c54.058 0 99.963 35.21 116.218 83.871 -77.477 0-154.959 0-232.435 0C211.669 112.629 257.577 77.419 311.634 77.419zM311.634 322.581c-54.057 0-99.965-35.214-116.217-83.871 77.479 0 154.958 0 232.435 0C411.597 287.367 365.691 322.581 311.634 322.581z"/>
</svg>
