<svg xmlns="http://www.w3.org/2000/svg" width="80.078" height="100" viewBox="-0.002 179.818 80.078 100">
	<path d="M67.057 212.927v-9.895c0-12.857-14.765-23.214-26.987-23.214 -12.737 0-26.986 9.571-26.986 22.387v10.711c-7.46 1.511-13.085 8.126-13.085 16.024v34.524c0 9.02 7.334 16.354 16.354 16.354h47.37c9.02 0 16.354-7.334 16.354-16.354v-34.524C80.076 221.059 74.48 214.469 67.057 212.927L67.057 212.927zM40.07 191.812c6.867 0 14.993 6.087 14.993 11.226v9.547H25.078V202.21C25.078 196.945 33.659 191.812 40.07 191.812L40.07 191.812zM68.082 263.464c0 2.399-1.955 4.36-4.36 4.36H16.352c-2.405 0-4.36-1.955-4.36-4.36v-34.525c0-2.405 1.955-4.366 4.36-4.366h47.371c2.398 0 4.36 1.961 4.36 4.366V263.464z"/>
</svg>
