<svg xmlns="http://www.w3.org/2000/svg" viewBox="0 0 764.3 400">
	<path d="M374.8 400c-35.5 0-70.7-4.4-105.5-13.1C181.1 364.8 95.5 314.2 15 236.6 4.3 226.4-1.2 211.3 0.2 196.2c1.2-11.7 6.4-22.4 14.8-30.4 14.7-14.1 45.8-42 89.8-71.1 54.8-36.3 111.6-62.5 168.7-78.1 76.2-20.8 151.8-22 224.7-3.7 88.3 22.2 173 73.4 251.7 152.1 9.2 9.2 14.4 21.9 14.4 34.9v0.5c0 13.2-5.4 25.9-14.7 35C735 249.6 703.8 277.9 660 307c-54 35.9-110.1 61.8-166.9 77C453.6 394.7 414 400 374.8 400zM394.2 36.4c-36.6 0-73.8 5.1-111.1 15.3C157.8 85.9 65.5 167.8 40.2 192.1c0 0-0.1 0.1-0.1 0.1 -2.1 2-3.4 4.7-3.7 7.6 -0.4 4 1 8 3.8 10.6 75.9 73.2 156 120.7 238 141.3 67 16.8 136.1 15.9 205.4-2.7 124.7-33.5 215.7-115.4 240.6-139.7 2.4-2.3 3.7-5.5 3.7-8.9v-0.5c0-3.4-1.4-6.7-3.8-9.1 -74-74-153-122-234.9-142.6C458.1 40.3 426.3 36.4 394.2 36.4zM27.6 179L27.6 179 27.6 179z"/>
	<path d="M388.1 123.1c42.5 0 76.9 34.5 76.9 76.9s-34.5 76.9-76.9 76.9c-42.5 0-76.9-34.5-76.9-76.9S345.8 123.1 388.1 123.1M388.1 86.7c-62.5 0-113.3 50.7-113.3 113.3s50.7 113.3 113.3 113.3S501.4 262.5 501.4 200 450.8 86.7 388.1 86.7L388.1 86.7z"/>
</svg>
