<svg xmlns="http://www.w3.org/2000/svg" width="20" height="20" viewBox="0 0 20 20">
    <path d="M17.6646636 14.8067685C17.3774 15.4705756 17.0373736 16.0816066 16.643412 16.6433797 16.1064048 17.4092207 15.6667155 17.9393282 15.3278616 18.233702 14.8025795 18.7168973 14.2397772 18.9643589 13.6371098 18.9784326 13.2044555 18.9784326 12.6826909 18.8552882 12.0753334 18.6054809 11.4659827 18.3568464 10.9059944 18.233702 10.3939616 18.233702 9.85695442 18.233702 9.28102008 18.3568464 8.66498608 18.6054809 8.04801407 18.8552882 7.5509893 18.9854694 7.17098051 18.9983702 6.59305291 19.0229991 6.01700132 18.7685007 5.44200498 18.233702 5.07501099 17.9135265 4.61597538 17.3646542 4.06607064 16.5870851 3.47606625 15.7567398 2.99100103 14.7938677 2.61099223 13.6961231 2.20401583 12.5104182 2 11.362243 2 10.2506593 2 8.97734596 2.27506962 7.87913224 2.82602961 6.95883289 3.25903561 6.21961449 3.83508721 5.63649631 4.55606038 5.20842283 5.27703356 4.78034935 6.05604573 4.56220779 6.89497289 4.54825143 7.3540085 4.54825143 7.95597245 4.690278 8.70403049 4.96940536 9.44997802 5.24947097 9.92894621 5.39149754 10.1389418 5.39149754 10.2959402 5.39149754 10.8280229 5.22542849 11.7300308 4.8943459 12.583028 4.5873058 13.3029459 4.46017384 13.8927158 4.51025257 15.4908398 4.63926102 16.6914847 5.26940864 17.4899604 6.40468297 16.0606771 7.27091605 15.3536567 8.48418185 15.3677268 10.0406101 15.3806244 11.2529377 15.8203136 12.2617837 16.6844497 13.0628089 17.0760662 13.4345878 17.5134105 13.7219248 18 13.9259927 17.8944746 14.2320945 17.7830866 14.5252956 17.6646636 14.8067685L17.6646636 14.8067685ZM13.9994137 0.380105796C13.9994137 1.33032337 13.6523523 2.21753792 12.9605745 3.03873532 12.1257511 4.01497742 11.11599 4.57909617 10.0209878 4.49008034 10.007035 4.37608379 9.99894475 4.25610593 9.99894475 4.1300295 9.99894475 3.2178225 10.3959549 2.2415804 11.100982 1.44336996 11.4529679 1.03922168 11.9006302 0.70317813 12.4434999 0.435110306 12.9851971 0.171041744 13.4975817 0.0250041826 13.9794812 0 13.9935512 0.127026408 13.9994137 0.254064544 13.9994137 0.380094068L13.9994137 0.380105796Z"/>
</svg>
