<svg xmlns="http://www.w3.org/2000/svg" width="399.812" height="400" viewBox="0 0 399.812 400">
	<path d="M396.299 379.525L233.136 216.34c19.14-22.888 30.688-52.322 30.688-84.428C263.824 59.174 204.65 0 131.912 0S0 59.174 0 131.912s59.174 131.912 131.912 131.912c32.023 0 61.399-11.479 84.264-30.524l163.162 163.187c2.343 2.343 5.412 3.514 8.48 3.514 3.069 0 6.138-1.171 8.48-3.514C400.984 391.801 400.984 384.211 396.299 379.525zM23.988 131.912c0-59.514 48.41-107.924 107.924-107.924s107.924 48.41 107.924 107.924 -48.41 107.924-107.924 107.924S23.988 191.426 23.988 131.912z"/>
</svg>
