<svg xmlns="http://www.w3.org/2000/svg" width="70" height="70" viewBox="0 0 70 70">
  <path
    d="M50 0C51.1045695 0 52 0.8954305 52 2 52 2.7398375 51.5982846 3.38584934 51.0010775 3.73181186L51 10C55.9702291 10 59.999459 14.0288963 59.9999999 18.998999L66.2676063 18.9999275C66.6134261 18.4021661 67.2597476 18 68 18 69.1045695 18 70 18.8954305 70 20 70 21.1045695 69.1045695 22 68 22 67.2601625 22 66.6141507 21.5982846 66.2681881 21.0010775L60 20.999 60 24 66.2676063 23.9999275C66.6134261 23.4021661 67.2597476 23 68 23 69.1045695 23 70 23.8954305 70 25 70 26.1045695 69.1045695 27 68 27 67.2601625 27 66.6141507 26.5982846 66.2681881 26.0010775L60 26 60 29 66.2676063 28.9999275C66.6134261 28.4021661 67.2597476 28 68 28 69.1045695 28 70 28.8954305 70 30 70 31.1045695 69.1045695 32 68 32 67.2601625 32 66.6141507 31.5982846 66.2681881 31.0010775L60 31 60 34 66.2676063 33.9999275C66.6134261 33.4021661 67.2597476 33 68 33 69.1045695 33 70 33.8954305 70 35 70 36.1045695 69.1045695 37 68 37 67.2601625 37 66.6141507 36.5982846 66.2681881 36.0010775L60 36 60 39 66.2676063 38.9999275C66.6134261 38.4021661 67.2597476 38 68 38 69.1045695 38 70 38.8954305 70 40 70 41.1045695 69.1045695 42 68 42 67.2601625 42 66.6141507 41.5982846 66.2681881 41.0010775L60 41 60 44 66.2676063 43.9999275C66.6134261 43.4021661 67.2597476 43 68 43 69.1045695 43 70 43.8954305 70 45 70 46.1045695 69.1045695 47 68 47 67.2601625 47 66.6141507 46.5982846 66.2681881 46.0010775L60 46 60 49 66.2676063 48.9999275C66.6134261 48.4021661 67.2597476 48 68 48 69.1045695 48 70 48.8954305 70 50 70 51.1045695 69.1045695 52 68 52 67.2601625 52 66.6141507 51.5982846 66.2681881 51.0010775L60 51C60 55.9705627 55.9705627 60 51 60L51.0000725 66.2676063C51.5978339 66.6134261 52 67.2597476 52 68 52 69.1045695 51.1045695 70 50 70 48.8954305 70 48 69.1045695 48 68 48 67.2601625 48.4017154 66.6141507 48.9989225 66.2681881L49 60 46 60 46.0000725 66.2676063C46.5978339 66.6134261 47 67.2597476 47 68 47 69.1045695 46.1045695 70 45 70 43.8954305 70 43 69.1045695 43 68 43 67.2601625 43.4017154 66.6141507 43.9989225 66.2681881L44 60 41 60 41.0000725 66.2676063C41.5978339 66.6134261 42 67.2597476 42 68 42 69.1045695 41.1045695 70 40 70 38.8954305 70 38 69.1045695 38 68 38 67.2601625 38.4017154 66.6141507 38.9989225 66.2681881L39 60 36 60 36.0000725 66.2676063C36.5978339 66.6134261 37 67.2597476 37 68 37 69.1045695 36.1045695 70 35 70 33.8954305 70 33 69.1045695 33 68 33 67.2601625 33.4017154 66.6141507 33.9989225 66.2681881L34 60 31 60 31.0000725 66.2676063C31.5978339 66.6134261 32 67.2597476 32 68 32 69.1045695 31.1045695 70 30 70 28.8954305 70 28 69.1045695 28 68 28 67.2601625 28.4017154 66.6141507 28.9989225 66.2681881L29 60 26 60 26.0000725 66.2676063C26.5978339 66.6134261 27 67.2597476 27 68 27 69.1045695 26.1045695 70 25 70 23.8954305 70 23 69.1045695 23 68 23 67.2601625 23.4017154 66.6141507 23.9989225 66.2681881L24 60 21 60 21.0000725 66.2676063C21.5978339 66.6134261 22 67.2597476 22 68 22 69.1045695 21.1045695 70 20 70 18.8954305 70 18 69.1045695 18 68 18 67.2601625 18.4017154 66.6141507 18.9989225 66.2681881L19 60C14.0294373 60 10 55.9705627 10 51L3.73239368 51.0000725C3.38657394 51.5978339 2.74025244 52 2 52 0.8954305 52-8.33349115e-16 51.1045695-7.6571374e-16 50 -6.98078365e-16 48.8954305 0.8954305 48 2 48 2.7398375 48 3.38584934 48.4017154 3.73181186 48.9989225L10 49 10 46 3.73239368 46.0000725C3.38657394 46.5978339 2.74025244 47 2 47 0.8954305 47-5.27187415e-16 46.1045695-4.5955204e-16 45 -3.91916665e-16 43.8954305 0.8954305 43 2 43 2.7398375 43 3.38584934 43.4017154 3.73181186 43.9989225L10 44 10 41 3.73239368 41.0000725C3.38657394 41.5978339 2.74025244 42 2 42 0.8954305 42-2.21025715e-16 41.1045695-1.5339034e-16 40 -8.57549651e-17 38.8954305 0.8954305 38 2 38 2.7398375 38 3.38584934 38.4017154 3.73181186 38.9989225L10 39 10 36 3.73239368 36.0000725C3.38657394 36.5978339 2.74025244 37 2 37 0.8954305 37 8.51359845e-17 36.1045695 1.5277136e-16 35 2.20406735e-16 33.8954305 0.8954305 33 2 33 2.7398375 33 3.38584934 33.4017154 3.73181186 33.9989225L10 34 10 31 3.73239368 31.0000725C3.38657394 31.5978339 2.74025244 32 2 32 0.8954305 32 3.91297684e-16 31.1045695 4.58933059e-16 30 5.26568434e-16 28.8954305 0.8954305 28 2 28 2.7398375 28 3.38584934 28.4017154 3.73181186 28.9989225L10 29 10 26 3.73239368 26.0000725C3.38657394 26.5978339 2.74025244 27 2 27 0.8954305 27 6.97459384e-16 26.1045695 7.65094759e-16 25 8.32730134e-16 23.8954305 0.8954305 23 2 23 2.7398375 23 3.38584934 23.4017154 3.73181186 23.9989225L10 24 10 21 3.73239368 21.0000725C3.38657394 21.5978339 2.74025244 22 2 22 0.8954305 22 1.00362108e-15 21.1045695 1.07125646e-15 20 1.13889183e-15 18.8954305 0.8954305 18 2 18 2.7398375 18 3.38584934 18.4017154 3.73181186 18.9989225L10 19C10 14.0294373 14.0294373 10 19 10L18.9999275 3.73239368C18.4021661 3.38657394 18 2.74025244 18 2 18 0.8954305 18.8954305 0 20 0 21.1045695 0 22 0.8954305 22 2 22 2.7398375 21.5982846 3.38584934 21.0010775 3.73181186L21 10 24 10 23.9999275 3.73239368C23.4021661 3.38657394 23 2.74025244 23 2 23 0.8954305 23.8954305 0 25 0 26.1045695 0 27 0.8954305 27 2 27 2.7398375 26.5982846 3.38584934 26.0010775 3.73181186L26 10 29 10 28.9999275 3.73239368C28.4021661 3.38657394 28 2.74025244 28 2 28 0.8954305 28.8954305 0 30 0 31.1045695 0 32 0.8954305 32 2 32 2.7398375 31.5982846 3.38584934 31.0010775 3.73181186L31 10 34 10 33.9999275 3.73239368C33.4021661 3.38657394 33 2.74025244 33 2 33 0.8954305 33.8954305 0 35 0 36.1045695 0 37 0.8954305 37 2 37 2.7398375 36.5982846 3.38584934 36.0010775 3.73181186L36 10 39 10 38.9999275 3.73239368C38.4021661 3.38657394 38 2.74025244 38 2 38 0.8954305 38.8954305 0 40 0 41.1045695 0 42 0.8954305 42 2 42 2.7398375 41.5982846 3.38584934 41.0010775 3.73181186L41 10 44 10 43.9999275 3.73239368C43.4021661 3.38657394 43 2.74025244 43 2 43 0.8954305 43.8954305 0 45 0 46.1045695 0 47 0.8954305 47 2 47 2.7398375 46.5982846 3.38584934 46.0010775 3.73181186L46 10 49 10 48.9999275 3.73239368C48.4021661 3.38657394 48 2.74025244 48 2 48 0.8954305 48.8954305 0 50 0ZM51 12L19 12C15.2145483 12 12.1309013 15.0047834 12.004059 18.7593502L12 19 12 51C12 54.8659932 15.1340068 58 19 58L51 58C54.8659932 58 58 54.8659932 58 51L58 51 58 49 58 49 58 46 58 46 58 44 58 44 58 19C58 15.1340068 54.8659932 12 51 12ZM42 52L42 54 28 54 28 52 42 52ZM43 22C45.7614237 22 48 24.2385763 48 27L48 43C48 45.7614237 45.7614237 48 43 48L27 48C24.2385763 48 22 45.7614237 22 43L22 27C22 24.2385763 24.2385763 22 27 22L43 22ZM43 24L27 24C25.3431458 24 24 25.3431458 24 27L24 43C24 44.6568542 25.3431458 46 27 46L43 46C44.6568542 46 46 44.6568542 46 43L46 27C46 25.3431458 44.6568542 24 43 24ZM54 27L54 41 52 41 52 27 54 27ZM18 27L18 41 16 41 16 27 18 27ZM35 30C37.7614237 30 40 32.2385763 40 35 40 37.7614237 37.7614237 40 35 40 32.2385763 40 30 37.7614237 30 35 30 32.2385763 32.2385763 30 35 30ZM35 32C33.3431458 32 32 33.3431458 32 35 32 36.6568542 33.3431458 38 35 38 36.6568542 38 38 36.6568542 38 35 38 33.3431458 36.6568542 32 35 32ZM42 16L42 18 28 18 28 16 42 16Z"/>
</svg>
