<svg xmlns="http://www.w3.org/2000/svg" height="16" width="16" viewBox="0 0 16 16">
	<path
      fillRule="evenodd"
      clipRule="evenodd"
      d="M12 1.07026C10.8233 0.389577 9.45715 0 8 0C3.58172 0 0 3.58172 0 8C0 12.4183 3.58172 16 8 16C12.4183 16 16 12.4183 16 8C16 5.97111 15.2447 4.11862 14 2.70835V3V4H13.3338C14.1707 5.11421 14.6667 6.49919 14.6667 8C14.6667 11.6819 11.6819 14.6667 8 14.6667L8 8L8 1.33333C9.50081 1.33333 10.8858 1.82926 12 2.66618V1.07026Z"
      fill="currentColor"
    />
</svg>
