<svg xmlns="http://www.w3.org/2000/svg" width="20" height="20" viewBox="0 0 20 20">
	<path fill="#0fc389" d="M10 18C14.418278 18 18 14.418278 18 10 18 5.581722 14.418278 2 10 2 5.581722 2 2 5.581722 2 10 2 14.418278 5.581722 18 10 18ZM10 20C4.4771525 20 0 15.522847499999997 0 10 0 4.4771525 4.4771525 0 10 0 15.522847499999997 0 20 4.4771525 20 10 20 15.522847499999997 15.522847499999997 20 10 20Z"/>
	<path fill="#0fc389" d="M8.77586207 11.4827586C8.77586207 9.48275862 11.1206897 9.48275862 11.1206897 8.03448276 11.1206897 7.48275862 10.637931 7 9.87931034 7 8.56896552 7 8.22413793 8.10344828 8.22413793 8.10344828L6.5 7.344827590000001C6.5 7.344827590000001 7.18965517 5 9.94827586 5 11.9482759 5 13.2586207 6.31034483 13.2586207 7.758620690000001 13.2586207 10.3103448 10.7758621 10.3103448 10.7758621 12.1034483L8.9137931 12.1034483C8.9137931 12.1034483 8.77586207 11.7586207 8.77586207 11.4827586ZM8.63793103 13.9655172C8.63793103 13.4137931 9.12068966 12.9310345 9.74137931 12.9310345 10.362069 12.9310345 10.8448276 13.4137931 10.8448276 13.9655172 10.8448276 14.5172414 10.362069 15 9.74137931 15 9.12068966 15 8.63793103 14.5172414 8.63793103 13.9655172Z"/>
</svg>
