<svg xmlns="http://www.w3.org/2000/svg" width="382.732" height="400" viewBox="0 0 382.732 400">
	<path d="M373.164 69.614h-93.777V24.856C279.387 11.157 268.249 0 254.532 0H136.881c-13.68 0-24.836 11.157-24.836 24.855v44.758H9.568C4.289 69.614 0 73.893 0 79.182c0 5.288 4.289 9.568 9.568 9.568h62.325l18.202 259.26C91.89 377.163 116.193 400 145.402 400h100.646c29.172 0 53.447-22.818 55.279-51.916L319.529 88.75h53.635c5.27 0 9.568-4.28 9.568-9.568C382.732 73.893 378.434 69.614 373.164 69.614zM131.181 24.856c0-3.158 2.57-5.719 5.7-5.719h117.632c3.178 0 5.737 2.561 5.737 5.719v44.758H131.181V24.856zM282.228 346.832c-1.196 19.1-17.081 34.031-36.18 34.031H145.402c-19.117 0-35.04-14.932-36.227-34.105L91.067 88.75h209.25L282.228 346.832z"/>
	<path d="M172.229 347.094c5.279 0 9.568-4.279 9.568-9.568V146.159c0-5.288-4.289-9.568-9.568-9.568s-9.568 4.28-9.568 9.568v191.366C162.661 342.815 166.95 347.094 172.229 347.094z"/>
	<path d="M229.64 347.094c5.27 0 9.568-4.279 9.568-9.568V146.159c0-5.288-4.299-9.568-9.568-9.568 -5.271 0-9.568 4.28-9.568 9.568v191.366C220.071 342.815 224.369 347.094 229.64 347.094z"/>
</svg>
