<svg xmlns="http://www.w3.org/2000/svg" width="20" height="20" viewBox="0 0 20 20">
  <path
    d="M10.0002117-5.32907052e-15C15.523241-5.32907052e-15 20 4.47697062 20 9.99971778 20 15.5227472 15.523241 19.9999294 10.0002117 19.9999294 4.47718229 19.9999294-1.66977543e-13 15.5227472-1.66977543e-13 9.99971778 -1.66977543e-13 4.47704118 4.47725284-5.32907052e-15 10.0002117-5.32907052e-15ZM12.595603 14.4953857C11.9806395 14.8504925 11.7699602 15.6364829 12.1249965 16.2513758 12.4801033 16.8658454 13.2660938 17.0765953 13.8810572 16.7219823 14.4959501 16.3668755 14.7066294 15.5804617 14.3515931 14.9654983 13.9965569 14.3506054 13.2104959 14.1403494 12.595603 14.4953857ZM13.6522451 10.3250501C13.4879914 12.19781 11.9160105 13.666709 10.0002117 13.666709 9.44867779 13.666709 8.92466063 13.5443654 8.45539469 13.325925L7.55002399 14.9517399C8.28860102 15.3179945 9.12024102 15.5235233 10.0002117 15.5235233 10.5017921 15.5235233 10.9882736 15.4567776 11.4506957 15.3309768 11.532117 14.8082296 11.8402337 14.326052 12.3336297 14.0417125 12.8266023 13.7568792 13.3980329 13.7309852 13.8905117 13.9209917 14.8209296 12.9975588 15.4246042 11.7457596 15.5129399 10.3539074L13.6522451 10.3250501ZM6.93724776 5.40273192C5.83065222 6.14173228 5.00635001 7.26900065 4.65858098 8.59064996 5.07013236 8.92205007 5.333799 9.43005108 5.333799 9.99978833 5.333799 10.5698784 5.07006181 11.0778794 4.65858098 11.40935 5.00635001 12.7309288 5.83065222 13.8581972 6.93724776 14.5976209L7.8925719 13.0006632C6.94973612 12.3370163 6.33350267 11.2407219 6.33350267 9.99971778 6.33350267 8.7595603 6.94973612 7.66284255 7.8925719 6.99968955L6.93724776 5.40273192ZM3.52397483 8.71426354C2.81425507 8.71426354 2.23859114 9.28992747 2.23859114 9.99971778 2.23859114 10.7098609 2.81425507 11.2855953 3.52397483 11.2855953 4.23454125 11.2855953 4.81020518 10.7097903 4.81020518 9.99971778 4.81020518 9.28992747 4.23454125 8.71426354 3.52397483 8.71426354ZM10.0002117 4.47633562C9.12031157 4.47633562 8.28860102 4.68207603 7.55002399 5.04804843L8.45539469 6.67386335C8.92459007 6.45584625 9.44860723 6.33343211 10.0002117 6.33343211 11.9160105 6.33343211 13.488062 7.80197838 13.6522451 9.67523213L15.5129399 9.64588096C15.4246042 8.25402873 14.8208591 7.00222956 13.8905117 6.07921994 13.3980329 6.26922643 12.8266023 6.24340304 12.3336297 5.95856969 11.8403042 5.67373635 11.5321875 5.19155872 11.4506957 4.66916434 10.9882736 4.5435752 10.5018627 4.47633562 10.0002117 4.47633562ZM12.1249259 3.74876528C11.7698897 4.36365817 11.980569 5.14978974 12.5955324 5.50482601 13.2104959 5.85986228 13.9969097 5.64918297 14.3515226 5.03429007 14.7065589 4.41925606 14.4963029 3.63305393 13.8809867 3.27837045 13.2664465 2.92333418 12.4801033 3.13401349 12.1249259 3.74876528Z"/>
</svg>
