<svg xmlns="http://www.w3.org/2000/svg" viewBox="0 0 411.9 411.9">
	<path d="M239.1 166c7.8 0 13.6 2.3 17.5 4.9 -6.7 7.1-13.7 18.5-13.7 35 0 14.4 5.5 27.2 15.8 37 1.8 1.7 3.6 3.2 5.3 4.4 -1.7 3.7-3.9 8.2-6.6 12.6 -7.9 13.2-14.5 17.9-18.1 17.9 -3 0-6.4-1.3-10.2-2.7 -5.2-1.9-11.6-4.3-19.4-4.3 -8.3 0-15.9 2.8-22 5 -2.5 0.9-6.4 2.3-7.6 2.3 -3.4 0-12.1-5.7-21-21.1 -8.8-15.2-14.1-33.2-14.1-48.2 0-17 5.8-27.1 10.7-32.5 5.6-6.2 13.1-9.8 20.5-9.8 5.7 0 11 2.1 16.2 4.1 5 1.9 9.8 3.8 14.9 3.8 4.7 0 8.9-1.7 13.8-3.7C226.4 168.5 232.5 166 239.1 166M239.1 154.1c-14.6 0-25.9 8.3-31.9 8.3 -7.1 0-17.6-7.8-31.1-7.8 -20.9 0-43.1 18.7-43.1 54.3 0 36.2 26.3 81.2 47.1 81.2 7.3 0 18.4-7.3 29.6-7.3 11 0 19.2 7.1 29.6 7.1 22.8 0 39.6-47.5 39.6-47.5s-24.1-9.3-24.1-36.4c0-24 19.4-33.9 19.4-33.9S264.3 154.1 239.1 154.1L239.1 154.1z"/>
	<path d="M241.9 122.9L241.9 122.9 241.9 122.9M241.6 111c0 0-16.4 0.1-28.1 15.6 -10.5 13.8-7.8 25.6-7.8 25.6s0.9 0.1 2.3 0.1c4.5 0 14.9-1.4 24.3-12.7C244.1 125.6 241.6 111 241.6 111L241.6 111z"/>
		<path d="M206 0C92.4 0 0 92.4 0 206s92.4 206 206 206 206-92.4 206-206S319.5 0 206 0L206 0zM206 400c-107 0-194-87-194-194s87-194 194-194 194 87 194 194S313 400 206 400L206 400z"/>
</svg>