<svg xmlns="http://www.w3.org/2000/svg" viewBox="0 0 316.4 410.8">
	<path d="M64.4 119.9c0.3 0.3 0.4 0.7 0.4 1.1l-0.3 11.9c-0.1 3.3 1.1 6.4 3.4 8.8 2.3 2.4 5.3 3.7 8.6 3.8l11.9 0.3c0.4 0 0.8 0.2 1 0.5l8.2 8.6c2.4 2.5 5.7 3.8 8.9 3.8 3.1 0 6.1-1.1 8.5-3.4l8.6-8.2c0.3-0.3 0.7-0.4 1.1-0.4l11.9 0.3c3.3 0.1 6.4-1.1 8.8-3.4 2.4-2.3 3.7-5.3 3.8-8.6l0.3-11.9c0-0.4 0.2-0.8 0.5-1l8.6-8.2c4.9-4.7 5.1-12.5 0.4-17.4l-8.2-8.6c-0.3-0.3-0.4-0.7-0.4-1.1l0.3-11.9c0.1-3.3-1.1-6.4-3.4-8.8 -2.3-2.4-5.3-3.7-8.6-3.8L127 61.8c-0.4 0-0.8-0.2-1-0.5l-8.2-8.6c-4.7-4.9-12.5-5.1-17.4-0.4l-8.6 8.2c-0.3 0.3-0.7 0.4-1.1 0.4l-11.9-0.3c-3.3-0.1-6.4 1.1-8.8 3.4s-3.7 5.3-3.8 8.6l-0.3 11.9c0 0.4-0.2 0.8-0.5 1l-8.6 8.2c-2.4 2.3-3.7 5.3-3.8 8.6s1.1 6.4 3.4 8.8L64.4 119.9zM64.1 101.7l8.6-8.2c2.4-2.3 3.7-5.3 3.8-8.6L76.8 73c0-0.5 0.3-0.9 0.5-1 0.2-0.2 0.5-0.4 1-0.4l11.9 0.3c3.3 0.1 6.4-1.1 8.8-3.4l8.6-8.2c0.6-0.6 1.6-0.5 2.1 0.1l8.2 8.6c2.3 2.4 5.3 3.7 8.6 3.8l11.9 0.3c0.5 0 0.9 0.3 1 0.5 0.2 0.2 0.4 0.6 0.4 1.1l-0.3 11.9c-0.1 3.3 1.1 6.4 3.4 8.8l8.2 8.6c0.6 0.6 0.5 1.5-0.1 2.1l-8.6 8.2c-2.4 2.3-3.7 5.3-3.8 8.6l-0.3 11.9c0 0.5-0.3 0.9-0.5 1 -0.2 0.2-0.6 0.4-1.1 0.4l-11.9-0.3c-3.3-0.1-6.4 1.1-8.8 3.4l-8.6 8.2c-0.6 0.6-1.6 0.5-2.1-0.1l-8.2-8.6c-2.3-2.4-5.3-3.7-8.6-3.8l-11.9-0.3c-0.5 0-0.9-0.3-1-0.5 -0.1-0.2-0.4-0.6-0.4-1.1l0.3-11.9c0.1-3.3-1.1-6.4-3.4-8.8l-8.2-8.6C63.5 103.2 63.5 102.3 64.1 101.7z"/>
	<path d="M58.2 327.5h66.7c3 0 5.4-2.4 5.4-5.4s-2.4-5.4-5.4-5.4H58.2c-3 0-5.4 2.4-5.4 5.4S55.2 327.5 58.2 327.5z"/>
	<path d="M58.2 288.6H186c3 0 5.4-2.4 5.4-5.4s-2.4-5.4-5.4-5.4H58.2c-3 0-5.4 2.4-5.4 5.4S55.2 288.6 58.2 288.6z"/>
	<path d="M58.2 249.7h83.3c3 0 5.4-2.4 5.4-5.4s-2.4-5.4-5.4-5.4H58.2c-3 0-5.4 2.4-5.4 5.4S55.2 249.7 58.2 249.7z"/>
	<path d="M58.2 210.8h205.6c3 0 5.4-2.4 5.4-5.4s-2.4-5.4-5.4-5.4H58.2c-3 0-5.4 2.4-5.4 5.4S55.2 210.8 58.2 210.8z"/>
	<path d="M311 0H5.4C2.4 0 0 2.4 0 5.4v400c0 3 2.4 5.4 5.4 5.4h254.7c1.5 0 3-0.7 4-1.8l50.9-56.9c0.9-1 1.4-2.3 1.4-3.6V5.4C316.4 2.4 314 0 311 0zM266.4 390.2v-37.7h33.8L266.4 390.2zM305.5 341.6H261c-3 0-5.4 2.4-5.4 5.4v52.8 0.1H10.8V10.8h294.7V341.6z"/>
</svg>