<svg xmlns="http://www.w3.org/2000/svg" viewBox="0 0 424.6 430.8">
	<path d="M404 20.7C390.6 7.3 372.8 0 353.8 0H200c-19 0-36.8 7.3-50.1 20.7 -13.3 13.3-20.7 31.1-20.7 50.1v64.6H70.8c-19 0-36.8 7.3-50.1 20.7C7.3 169.4 0 187.2 0 206.2V360c0 19 7.3 36.8 20.7 50.1 13.3 13.3 31.1 20.7 50.1 20.7h153.8c19 0 36.8-7.3 50.1-20.7 13.3-13.3 20.7-31.1 20.7-50.1v-64.6h58.5c19 0 36.8-7.3 50.1-20.7 13.3-13.3 20.7-31.1 20.7-50.1V70.8C424.6 51.8 417.3 34 404 20.7zM264.6 360c0 22.4-17.6 40-40 40H70.8c-22.4 0-40-17.6-40-40V206.2c0-22.4 17.6-40 40-40h153.8c22.4 0 40 17.6 40 40V360zM393.8 224.6c0 22.4-17.6 40-40 40h-58.5v-58.5c0-19-7.3-36.8-20.7-50.1 -13.3-13.3-31.1-20.7-50.1-20.7H160V70.8c0-22.4 17.6-40 40-40h153.8c22.4 0 40 17.6 40 40V224.6z"/>
</svg>