<?xml version="1.0" encoding="utf-8"?>
<!-- Generator: Adobe Illustrator 23.0.1, SVG Export Plug-In . SVG Version: 6.00 Build 0)  -->
<svg version="1.1" id="Layer_1" xmlns="http://www.w3.org/2000/svg" xmlns:xlink="http://www.w3.org/1999/xlink" x="0px" y="0px"
	 viewBox="0 0 482.3 400" style="enable-background:new 0 0 482.3 400;" xml:space="preserve">
<style type="text/css">
	.st0{fill:#FFFFFF;}
	.st1{opacity:0.2;fill:#0DD3C5;enable-background:new    ;}
	.st2{fill:#0DD3C5;}
	.st3{fill:#FFC500;}
	.st4{fill:#760FC3;}
</style>
<path class="st0" d="M340.9,136.1H167.7c-4.3,0-7.8,3.5-7.8,7.8v232.5c28.1,15.1,60.2,23.6,94.4,23.6s66.2-8.6,94.4-23.6V143.8
	C348.7,139.5,345.2,136.1,340.9,136.1z"/>
<path class="st1" d="M454.3,200c0-110.5-89.5-200-200-200s-200,89.5-200,200c0,76.3,42.8,142.7,105.6,176.4V143.8
	c0-4.3,3.5-7.8,7.8-7.8h173.2c4.3,0,7.8,3.5,7.8,7.8v232.5C411.6,342.7,454.3,276.3,454.3,200z"/>
<path class="st2" d="M363.8,121.8c0-11.5-9.3-20.7-20.7-20.7H165.6c-11.5,0-20.7,9.3-20.7,20.7v245.5c4.9,3.2,9.9,6.2,15.1,8.9
	V143.8c0-4.3,3.5-7.8,7.8-7.8H341c4.3,0,7.8,3.5,7.8,7.8v232.5c5.2-2.8,10.2-5.7,15.1-8.9V121.8H363.8z"/>
<path class="st0" d="M269.6,122.2h-30.5c-0.9,0-1.6-0.7-1.6-1.6s0.7-1.6,1.6-1.6h30.5c0.9,0,1.6,0.7,1.6,1.6
	S270.5,122.2,269.6,122.2z"/>
<circle class="st0" cx="226.4" cy="120.5" r="2.6"/>
<path class="st3" d="M390.3,92.1c0-19.4,18.4-37.2,37.8-37.2v-1.7c-19.4,0-37.8-19.3-37.8-38.7h-0.7c0,19.4-17.3,38.7-36.7,38.7v1.7
	c19.4,0,36.8,17.8,36.8,37.2H390.3z"/>
<path class="st3" d="M67.5,286.1c0-19.4,18.4-37.2,37.8-37.2v-1.7c-19.4,0-37.8-19.3-37.8-38.7h-0.7c0,19.4-17.3,38.7-36.7,38.7v1.7
	c19.4,0,36.8,17.8,36.8,37.2H67.5z"/>
<path class="st3" d="M461.6,184.2c0-9.7,11-20.9,20.7-20.9v-1c-9.7,0-20.7-12-20.7-21.7h-0.4c0,9.7-10.4,21.7-20.1,21.7v1
	c9.7,0,20.1,11.2,20.1,20.9H461.6z"/>
<path class="st3" d="M20.5,152c0-9.7,11-20.9,20.7-20.9v-1c-9.7,0-20.7-12-20.7-21.7h-0.4c0,9.7-10.4,21.7-20.1,21.7v1
	c9.7,0,20.1,11.2,20.1,20.9H20.5z"/>
<path class="st3" d="M414.3,247.8c0-6.4,7.3-13.9,13.8-13.9v-0.7c-6.4,0-13.8-8-13.8-14.5H414c0,6.4-6.9,14.5-13.4,14.5v0.7
	c6.4,0,13.4,7.4,13.4,13.9H414.3z"/>
<path class="st3" d="M125.7,75.2c0-9.7,11-20.9,20.7-20.9v-1c-9.7,0-20.7-12-20.7-21.7h-0.4c0,9.7-10.4,21.7-20.1,21.7v1
	c9.7,0,20.1,11.2,20.1,20.9H125.7z"/>
<path class="st4" d="M277.2,269l-46.1-0.2c-7.3,0-13.2-6-13.2-13.3l0.2-46.1c0-7.3,6-13.2,13.3-13.2l46.1,0.2
	c7.3,0,13.2,6,13.2,13.3l-0.2,46.1C290.5,263.1,284.5,269,277.2,269z"/>
<path class="st0" d="M271.9,248.2c3.8-4.3,5.9-9.7,5.9-15.5c0-6-2.2-11.6-6-15.7l17.6-17.4c0.5-0.5,0.5-1.2,0-1.7s-1.2-0.5-1.7,0
	l-17.6,17.4c-4.1-3.8-9.7-6.1-15.7-6.1h-0.1c-5.9,0-11.3,2.2-15.4,5.8l-17.2-17.4c-0.5-0.5-1.2-0.5-1.7,0s-0.5,1.2,0,1.7l17.2,17.4
	c-3.9,4.2-6.3,9.8-6.4,15.9c0,6,2.2,11.6,6,15.8l-17.1,17c-0.5,0.5-0.5,1.2,0,1.7c0.2,0.2,0.5,0.4,0.9,0.4c0.3,0,0.6-0.1,0.9-0.4
	l17.1-17c4.1,3.8,9.7,6.1,15.7,6.1h0.1c5.9,0,11.5-2.2,15.9-6.2l17.2,17.4c0.2,0.2,0.5,0.4,0.9,0.4c0.3,0,0.6-0.1,0.9-0.4
	c0.5-0.5,0.5-1.2,0-1.7L271.9,248.2z M275.4,232.7c0,5.3-2,10-5.2,13.7l-13.9-14l13.8-13.7C273.4,222.4,275.4,227.3,275.4,232.7z
	 M254.3,211.5C254.4,211.5,254.4,211.5,254.3,211.5c5.5,0,10.4,2.1,14.1,5.4l-13.8,13.7l-13.9-14
	C244.3,213.4,249.1,211.5,254.3,211.5z M233.3,232.5c0-5.5,2.2-10.5,5.6-14.2l13.9,14.1l-14.3,14.2
	C235.3,242.8,233.2,237.9,233.3,232.5z M254.3,253.7L254.3,253.7c-5.5,0-10.4-2.1-14.1-5.4l14.3-14.2l13.9,14.1
	C264.7,251.6,259.8,253.7,254.3,253.7z"/>
</svg>
