<svg xmlns="http://www.w3.org/2000/svg" viewBox="0 0 100 100">
	<path d="M50 0C22.4 0 0 22.4 0 50s22.4 50 50 50 50-22.4 50-50S77.6 0 50 0zM26.9 91c.2-.2.3-.5.3-.9 0-18.6 10.2-33.7 22.8-33.7s22.8 15.1 22.8 33.7c0 .3.1.6.3.9-6.8 3.9-14.7 6.1-23.1 6.1S33.7 94.9 26.9 91zm48.8-1.5c-.3-16.5-8.2-30.4-18.8-34.6 5.6-2.6 9.5-8.3 9.5-14.9 0-9-7.4-16.4-16.4-16.4S33.6 31 33.6 40c0 6.6 3.9 12.3 9.5 14.9C32.5 59.1 24.6 73 24.3 89.5 11.4 81 2.9 66.5 2.9 50 2.9 24 24 2.9 50 2.9S97.1 24 97.1 50c0 16.5-8.5 31-21.4 39.5zM50 53.5c-7.4 0-13.5-6.1-13.5-13.5S42.6 26.5 50 26.5 63.5 32.6 63.5 40c0 7.5-6.1 13.5-13.5 13.5z"/>
</svg>
