<svg xmlns="http://www.w3.org/2000/svg" viewBox="0 0 411.9 411.9">
	<path d="M206 0C92.4 0 0 92.4 0 206s92.4 206 206 206 206-92.4 206-206S319.5 0 206 0zM206 400c-107 0-194-87-194-194s87-194 194-194 194 87 194 194S313 400 206 400z"/>
	<path d="M151.4 229.9c-10.1-4.3-19.6-4.3-28.4 0.1 -10.4 5.2-24.8 19.5-34.3 57.8 -1.1 4.5 0.2 9.2 3.5 12.4 2.5 2.5 5.8 3.8 9.2 3.8 1.1 0 2.2-0.1 3.3-0.4 27.8-7.1 46.2-18 54.5-32.4 6.4-11 5.4-21.5 3.5-28.4C161.2 237 157 232.3 151.4 229.9zM148.9 265.3c-6.5 11.3-22.8 20.6-47.1 26.8 -0.6 0.1-1-0.1-1.2-0.3 -0.3-0.3-0.4-0.7-0.3-1.1 6.4-26.1 16.6-44.3 28-50 2.7-1.4 5.5-2 8.5-2 3.1 0 6.4 0.7 9.8 2.2 2.3 1 3.9 2.9 4.6 5.3v0C152.6 250.8 153.3 257.9 148.9 265.3z"/>
	<path d="M244.6 135.4c-4.7 0-9.2 1.8-12.6 5.2 -6.9 6.9-6.9 18.2 0 25.1 3.5 3.5 8 5.2 12.6 5.2 4.5 0 9.1-1.7 12.6-5.2 6.9-6.9 6.9-18.2 0-25.1C253.8 137.3 249.3 135.4 244.6 135.4zM248.7 157.3c-2.3 2.3-6 2.3-8.3 0 -2.3-2.3-2.3-6 0-8.3 1.1-1.1 2.6-1.7 4.1-1.7 1.6 0 3 0.6 4.1 1.7C251 151.3 251 155 248.7 157.3z"/>
	<path d="M189.7 146.3c-1.8 1.8-3.6 3.7-5.4 5.6 -18.7-7.5-45.5-7.3-69.1 14.5 -3.7 3.4-4.8 8.6-2.9 13.2 1.9 4.6 6.3 7.4 11.3 7.2 8.6-0.3 23.5 0.3 32.9 7.1 -0.5 1.1-0.9 2.3-1.3 3.3 -4.1 11.1 3.8 24.4 12.5 33.1 8.7 8.7 22 16.5 33.1 12.5 1.2-0.4 2.3-0.9 3.5-1.4 7.7 9.2 8.3 25 8 34 -0.2 4.9 2.7 9.4 7.2 11.3 1.5 0.6 3 0.9 4.6 0.9 3.2 0 6.3-1.3 8.5-3.8 27.3-29.4 18.8-59.3 13.9-70.6 1.8-1.7 3.5-3.3 5.2-5 32.3-32.3 65.5-89.1 46.2-108.3C278.7 80.9 221.9 114.1 189.7 146.3zM282.8 145.1c-9.3 18.8-24 39.3-39.6 54.8 -2.5 2.5-5.2 5.1-8 7.5 -2.1 1.9-2.6 4.9-1.3 7.4 1.8 3.2 16.6 31.8-9.9 60.7 0.4-12.7-1.1-29.2-9.9-40.6 0.6-1.6 0.4-3.5-0.5-5 -1.6-2.7-5-3.7-7.8-2.3 -3.3 1.6-6.4 3-9.4 4.1 -4.6 1.7-13.2-2.4-20.5-9.7 -7.3-7.3-11.4-16-9.7-20.5 0.7-2 1.7-4.2 2.7-6.5 1-2.2 0.6-4.9-1.1-6.6 -11.3-11.8-30.3-13.8-44.4-13.3 26.3-24.1 52.3-14.1 59.6-10.5 2.4 1.2 5.4 0.6 7.1-1.4 2.5-2.9 5.1-5.7 7.8-8.4 15.5-15.5 36-30.3 54.8-39.6 13.4-6.6 31-12.3 36.6-6.7C295.1 114.1 289.4 131.7 282.8 145.1z"/>
</svg>