<svg xmlns="http://www.w3.org/2000/svg" viewBox="0 0 411.9 411.9">
	<path d="M206 0C92.4 0 0 92.4 0 206s92.4 206 206 206 206-92.4 206-206S319.5 0 206 0zM206 11.9c107 0 194 87 194 194 0 35.7-9.7 69.1-26.5 97.8 -2.2-17-8-32.7-16.6-45.3 -6.6-9.6-14.5-16.8-23.1-21.3 11.4-7.3 19-20.1 19-34.6 0-22.6-18.4-41-41-41s-41 18.4-41 41c0 14.5 7.6 27.3 19 34.6 -8.1 4.2-15.5 10.7-21.8 19.4 -2.3-16.7-8-32.1-16.5-44.5 -6.6-9.6-14.5-16.8-23.1-21.3 11.4-7.3 19-20.1 19-34.6 0-22.6-18.4-41-41-41s-41 18.4-41 41c0 14.5 7.6 27.3 19 34.6 -8.7 4.5-16.5 11.7-23.1 21.3 -8.7 12.6-14.4 28.2-16.6 45.1 -6.4-9-14-15.7-22.3-20 11.4-7.3 19-20.1 19-34.6 0-22.6-18.4-41-41-41s-41 18.4-41 41c0 14.5 7.6 27.3 19 34.6 -8.7 4.5-16.5 11.7-23.1 21.3 -8.7 12.6-14.4 28.3-16.6 45.3 -16.9-28.7-26.5-62.2-26.5-97.8C11.9 99 99 11.9 206 11.9zM282.6 202.6c0-16.1 13.1-29.1 29.1-29.1s29.1 13.1 29.1 29.1c0 16.1-13.1 29.1-29.1 29.1S282.6 218.7 282.6 202.6zM177.1 156.3c0-16.1 13.1-29.1 29.1-29.1s29.1 13.1 29.1 29.1 -13.1 29.1-29.1 29.1S177.1 172.3 177.1 156.3zM71.1 202.6c0-16.1 13.1-29.1 29.1-29.1s29.1 13.1 29.1 29.1c0 16.1-13.1 29.1-29.1 29.1S71.1 218.7 71.1 202.6zM206 400c-64.3 0-121.3-31.4-156.7-79.7 0 0 0 0 0 0 0-42.2 22.9-76.6 50.9-76.6s50.9 34.4 50.9 76.6c0 3.3 2.7 6 6 6s6-2.7 6-6c0-15.7-2.9-30.8-8.3-44 0.3-0.7 0.5-1.5 0.5-2.3 0-42.2 22.9-76.6 50.9-76.6s50.9 34.4 50.9 76.6c0 0.5 0.1 1.1 0.2 1.6 -5.6 13.4-8.6 28.8-8.6 44.8 0 3.3 2.7 6 6 6s6-2.7 6-6c0-42.2 22.9-76.6 50.9-76.6s50.9 34.4 50.9 76.6c0 0 0 0 0 0C327.3 368.6 270.2 400 206 400z"/>
</svg>