<svg xmlns="http://www.w3.org/2000/svg" width="338.404" height="400" viewBox="5.95 80.449 338.404 400">
	<path d="M64.573 214.954H63.96l0.613 159.738c0 14.654 11.969 26.623 26.257 26.623h18.075v55.201c0 13.434 10.87 23.934 24.547 23.934 13.555 0 24.547-10.502 24.547-23.934v-55.201h33.217v55.201c0 13.434 10.992 23.934 24.547 23.934 13.677 0 24.669-10.746 24.669-24.058v-55.079h17.828c14.654 0 26.257-11.969 26.257-26.623V214.707H64.574v0.243L64.573 214.954z"/>
	<path d="M327.252 211.359c-2.416-0.752-4.993-1.167-7.688-1.167 -13.434 0-24.425 10.624-24.425 24.426V338.06c0 13.434 10.992 24.426 24.425 24.426 13.798 0 24.79-10.992 24.79-24.426V234.619c0-11.233-7.042-20.278-17.103-23.256V211.359z"/>
	<path d="M30.376 210.189c-13.677 0-24.426 10.624-24.426 24.426v103.44c0 13.434 10.992 24.426 24.668 24.426 13.556 0 24.426-10.992 24.426-24.426v-103.44C55.409 220.817 44.053 210.189 30.376 210.189L30.376 210.189z"/>
	<path d="M229.438 117.011l16.975-31.262c0.978-2.076 0.613-3.909-1.341-4.641 -1.464-1.099-3.787-0.855-4.641 0.978l-17.585 31.751c-14.533-6.593-31.141-10.015-48.362-10.015s-33.706 3.296-48.239 9.894l-17.464-31.631c-0.977-1.833-3.174-2.076-4.886-0.977 -1.833 0.734-2.197 2.932-1.465 4.518l17.1 31.262c-33.83 17.585-56.543 50.926-56.543 89.03h222.144c0.978-38.103-21.98-71.442-55.688-88.905L229.438 117.011zM124.168 165.738c-5.25 0-9.282-4.273-9.282-9.647 0-4.886 4.395-9.282 9.282-9.282 5.374 0 9.282 4.273 9.282 9.282C133.813 161.708 129.662 165.738 124.168 165.738zM225.408 165.738c-5.129 0-9.159-3.787-9.159-9.647 0-4.886 4.395-9.282 9.159-9.282 5.374 0 9.282 4.273 9.282 9.282C235.178 161.708 230.781 165.738 225.408 165.738z"/>
</svg>
