<svg xmlns="http://www.w3.org/2000/svg" width="24px" height="24px" viewBox="0 0 24 24">
	<path d="M9.8,4.99886364 C10.5,4.69903409 11.2,4.59909091 12,4.59909091 C12.7,4.59909091 13.3,4.69903409 13.9,4.89892045 L15.5,3.29982955 C15.9,2.90005682 16.5,2.90005682 16.9,3.29982955 C17.3,3.69960227 17.3,4.29926136 16.9,4.69903409 L15.7,5.89835227 C17.1,6.99772727 18,8.69676136 18,10.5956818 L6,10.5956818 C6,8.79670455 6.8,7.19761364 8.1,6.09823864 L6.7,4.69903409 C6.3,4.29926136 6.3,3.69960227 6.7,3.29982955 C7.1,2.90005682 7.7,2.90005682 8.1,3.29982955 L9.8,4.99886364 Z M8,16.5922727 L7,16.5922727 C6.4,16.5922727 6,16.1925 6,15.5928409 L6,11.5951136 L18,11.5951136 L18,15.5928409 C18,15.5928409 18,15.5928409 18,15.5928409 C18,16.1925 17.6,16.5922727 17,16.5922727 L16,16.5922727 L16,19.5905682 C16,20.0902841 15.6,20.59 15,20.59 C14.4,20.59 14,20.1902273 14,19.5905682 L14,16.5922727 L10,16.5922727 L10,19.5905682 C10,20.0902841 9.6,20.59 9,20.59 C8.4,20.59 8,20.1902273 8,19.5905682 L8,16.5922727 Z M21,11.5951136 L21,15.6927841 C21,16.1925 20.6,16.6922159 20,16.6922159 C19.4,16.6922159 19,16.2924432 19,15.6927841 L19,11.5951136 C19,11.0953977 19.4,10.5956818 20,10.5956818 C20.6,10.5956818 21,10.9954545 21,11.5951136 Z M4,10.5956818 C4.6,10.5956818 5,10.9954545 5,11.5951136 L5,15.5928409 C5,16.0925568 4.6,16.5922727 4,16.5922727 C3.4,16.5922727 3,16.1925 3,15.5928409 L3,11.5951136 C3,10.9954545 3.4,10.5956818 4,10.5956818 Z M15,9.59625 C15.6,9.59625 16,9.19647727 16,8.59681818 C16,8.09710227 15.6,7.59738636 15,7.59738636 C14.4,7.59738636 14,8.09710227 14,8.59681818 C14,9.19647727 14.4,9.59625 15,9.59625 Z M9,9.59625 C9.6,9.59625 10,9.19647727 10,8.59681818 C10,8.09710227 9.6,7.59738636 9,7.59738636 C8.4,7.59738636 8,8.09710227 8,8.59681818 C8,9.19647727 8.4,9.59625 9,9.59625 Z"/>
</svg>
