<svg xmlns="http://www.w3.org/2000/svg" width="24px" height="24px" viewBox="0 0 24 24">
  <path
    d="M15,2.79999996 C16.2,1.39999996 16,-5.0000001e-08 16,-5.0000001e-08 C16,-5.0000001e-08 14.2,-5.0000001e-08 12.9,1.49999996 C11.7,2.79999996 12,3.99999997 12,3.99999997 C12,3.99999997 13.6,4.19999997 15,2.79999996 Z M17.4,10.9 C17.4,8.29999999 19.5,7.19999999 19.5,7.19999999 C19.5,7.19999999 18.4,5.29999998 15.7,5.29999998 C14.1,5.29999998 12.9,6.19999998 12.2,6.19999998 C11.4,6.19999998 10.3,5.39999998 8.79999998,5.39999998 C6.49999997,5.39999998 4.09999996,7.39999999 4.09999996,11.3 C3.99999996,15.1 6.89999997,20 9.19999999,20 C9.99999999,20 11.2,19.2 12.4,19.2 C13.6,19.2 14.5,20 15.6,20 C18.1,20 19.9,14.9 19.9,14.9 C19.9,14.9 17.4,13.8 17.4,10.9 Z M17.1,16.4 C16.5,17.4 15.9,18 15.7,18 C15.6,18 15.4,18 15,17.8 C14.9,17.8 14.9,17.8 14.8,17.7 C13.8,17.3 13.3,17.2 12.5,17.2 C11.7,17.2 11,17.4 9.99999999,17.7 C9.29999999,18 9.09999999,18 9.19999999,18 C8.29999998,18 5.99999997,14.2 5.99999997,11.2 C5.99999997,8.79999999 7.29999998,7.29999999 8.69999998,7.29999999 C8.99999998,7.29999999 9.39999999,7.39999999 9.89999999,7.59999999 C9.79999999,7.59999999 10.7,7.89999999 10.9,7.99999999 C11.4,8.09999999 11.7,8.19999999 12.2,8.19999999 C12.6,8.19999999 13,8.09999999 13.5,7.89999999 C13.7,7.79999999 14.3,7.59999999 14.3,7.59999999 C14.9,7.39999999 15.3,7.29999999 15.7,7.29999999 C16,7.29999999 16.3,7.29999999 16.5,7.39999999 C15.8,8.39999999 15.4,9.6 15.4,10.9 C15.4,12.8 16.1,14.3 17.4,15.4 C17.5,15.5 17.5,15.5 17.6,15.6 C17.3,15.9 17.2,16.1 17.1,16.4 Z"/>
</svg>
