<svg xmlns="http://www.w3.org/2000/svg" width="326.027" height="400" viewBox="11.965 27.507 326.027 400">
	<path d="M191.875 62.323c26.267-34.628 62.812-34.816 62.812-34.816s5.448 32.579-20.659 63.942c-27.887 33.495-59.602 28.021-59.602 28.021S168.493 93.121 191.875 62.323L191.875 62.323z"/>
	<path d="M177.77 142.26c13.485 0 38.646-18.582 71.307-18.582 56.204 0 78.29 39.994 78.29 39.994s-43.259 22.114-43.259 75.783c0 60.545 53.885 81.446 53.885 81.446s-37.649 106.014-88.538 106.014c-23.328 0-41.505-15.75-66.155-15.75 -25.082 0-50 16.343-66.209 16.343 -46.439 0-105.125-100.621-105.125-181.446 0-79.559 49.677-121.279 96.279-121.279 30.287 0 53.803 17.476 69.525 17.476V142.26z"/>
</svg>
