<svg xmlns="http://www.w3.org/2000/svg" width="24px" height="24px" viewBox="0 0 24 24">
  <path
    d="M7.51629951,4 L4.02608537,8.91385412 L4.92241206,20 L6,20 L6,18.1578947 L11,18.1578947 L11,20 L13,20 L13,18.1578947 L18,18.1578947 L18,20 L19.0773137,20 L19.9738362,8.87037825 L16.4861423,4 L7.51629951,4 Z M8,22 L3.07758794,22 L1.97391463,8.34930378 L6.48370049,2 L17.5138577,2 L22.0261638,8.30119463 L20.9226863,22 L16,22 L16,20.1578947 L15,20.1578947 L15,22 L9,22 L9,20.1578947 L8,20.1578947 L8,22 Z M9,11 L11,11 L11,14 L9,14 L9,11 Z M13,11 L15,11 L15,14 L13,14 L13,11 Z M15,9 L9,9 L9,8 L7,10 L7.99999998,15 L16,15 L17,10 L15,8 L15,9 Z M11,6 L11,7 L13,7 L13,6 L16,6 L19,9 L18,17 L6,17 L5,9 L7.99999998,6 L11,6 Z"/>
</svg>
