<svg xmlns="http://www.w3.org/2000/svg" width="416.729" height="400" viewBox="-0.012 8.026 416.729 400">
	<path d="M415.182 156.645c-29.961-48.269-60.011-96.478-90.146-144.626 -1.786-2.858-3.646-3.992-7.061-3.992 -72.898 0.098-145.799 0.098-218.699 0 -3.309 0-5.326 0.883-7.154 3.824C62.013 60.266 31.853 108.643 1.64 156.981c-1.172 1.754-1.747 3.839-1.639 5.946 2.175 15.474 4.633 30.907 7.018 46.36 7.742 50.247 15.485 101.04 23.238 151.276 2.406 15.602 4.812 28.365 7.238 47.463h67.234c-1.555-19.046-3.078-37.041-4.623-59.271h33.617c1.628 22.229 3.236 39.51 4.864 56.803h139.805c1.65-17.293 3.268-34.573 4.864-56.803h33.616c-1.564 22.229-3.099 40.214-4.653 59.271h67.171c0.83-4.759 1.649-9.896 2.343-14.392 11.65-76.069 23.321-152.422 34.824-228.522C417 162.215 416.519 159.253 415.182 156.645zM341.445 163.999c-5.81 47.326-11.745 93.14-17.682 140.456 -0.241 1.953-0.703 4.76-1.155 4.76H94.328c-1.166-2.47-2.395-15.959-3.498-24.689 -5.084-40.402-10.169-80.049-15.075-120.548 -0.308-2.77 0.185-5.569 1.418-8.067 11.146-22.744 22.492-45.173 33.943-67.781 0.925-1.817 3.152-4.128 4.738-4.202 19.362-0.294 38.733-0.368 58.83-0.368 -1.303 9.738-2.521 20.685-3.782 28.091h75.271c-1.25-7.406-2.479-17.292-3.793-27.167h9.393c15.841 0 31.694-0.473 47.536-0.168 2.153 0 5.253 1.66 6.24 3.53 11.829 23.112 23.395 46.223 34.856 69.429 0.967 2.115 1.319 4.459 1.02 6.765L341.445 163.999z"/>
	<path d="M280.871 226.769c-1.756 9.538-3.247 19.088-5.41 28.47 -0.515 2.227-3.278 3.928-5.012 5.872 -1.733-1.933-4.349-3.593-5.053-5.852 -5.828-18.629-5.905-38.581-0.221-57.254 0.735-2.49 3.435-4.402 5.253-6.587 1.817 2.174 4.695 4.097 5.252 6.555C277.783 207.375 279.158 216.945 280.871 226.769z"/>
	<path d="M160.469 228.113c-1.218 9.202-1.712 17.365-3.583 25.212 -0.945 3.972-4.359 7.354-6.66 11.01 -2.185-3.551-5.778-6.912-6.303-10.694 -1.497-11.145-2.28-22.373-2.343-33.617 0-6.02 1.513-12.175 3.235-18.017 0.82-2.794 3.719-4.969 5.673-7.427 1.891 2.553 4.822 4.864 5.473 7.701C157.99 211.104 159.146 220.119 160.469 228.113z"/>
</svg>
 