<svg xmlns="http://www.w3.org/2000/svg" width="24px" height="24px" viewBox="0 0 24 24">
	<path d="M3.27063281,12.3035391 C1.89680469,11.320519 1.58907031,9.44043831 2.58321094,8.10430927 C3.38508594,7.02667218 4.78907031,6.6319625 6.02305469,7.03548266 L5.69117969,7.95123669 C4.86282031,7.69098266 3.92641406,7.95951089 3.38938281,8.68120444 C2.71742969,9.58431734 2.92547656,10.855019 3.85399219,11.5194827 C4.52266406,11.9980069 5.43867969,11.9975472 6.11860156,11.6417569 L7.76383594,16.5884988 C7.98446094,16.6053536 8.20367969,16.6794383 8.39610156,16.8171117 C8.94563281,17.2103657 9.06875781,17.9623214 8.67102344,18.496773 C8.27336719,19.0312246 7.50555469,19.1458375 6.95602344,18.7525069 C6.40649219,18.3593294 6.28336719,17.6073738 6.68102344,17.0728456 C6.73875781,16.9953899 6.80485156,16.9278173 6.87625781,16.8682891 L5.50844531,12.8595956 C4.74672656,12.9611077 3.94328906,12.784898 3.27063281,12.3035391 Z M18.9086406,7.05394637 C20.6159844,7.05394637 21.9999687,8.41122056 21.9999687,10.0854423 C21.9999687,11.435898 21.0995781,12.5800351 19.8553594,12.9722165 L19.5718437,12.0291117 C20.40075,11.7572891 20.9981719,10.989781 20.9981719,10.0854423 C20.9981719,8.95379315 20.062625,8.03643024 18.9086406,8.03643024 C18.0777031,8.03643024 17.3350469,8.57272056 16.9983281,9.26147056 L12.6792656,6.17918024 C12.4900469,6.29440605 12.2675469,6.36213185 12.0284062,6.36213185 C11.3455156,6.36213185 10.7918437,5.81925282 10.7918437,5.14950282 C10.7918437,4.47982944 11.3455156,3.93687379 12.0284062,3.93687379 C12.711375,3.93687379 13.2649687,4.47982944 13.2649687,5.14950282 C13.2649687,5.24664798 13.2520781,5.3405754 13.2300469,5.43105524 L16.7583281,7.90863992 C17.3147344,7.37993427 18.072625,7.05394637 18.9086406,7.05394637 Z M8.99725781,4.1091379 C9.51280469,2.51750484 11.2465547,1.63714597 12.8695234,2.14271452 C14.1786641,2.550525 15.0159297,3.73549677 15.0203047,5.01378306 L14.0205391,4.99332742 C14.0072578,4.13848065 13.4436641,3.34975081 12.5670234,3.07670242 C11.4699922,2.73493226 10.2981172,3.33006129 9.94960156,4.40585968 C9.69874219,5.18049274 9.99436719,6.03480323 10.5603828,6.55669032 L6.26803906,9.6523879 C6.32264844,9.86353306 6.32108594,10.0913798 6.24889844,10.3143234 C6.04264844,10.9509766 5.34913281,11.3030895 4.69991406,11.1008315 C4.05077344,10.89865 3.69163281,10.2185573 3.89788281,9.58190403 C4.10405469,8.94525081 4.79757031,8.59306129 5.44678906,8.79531935 C5.54092969,8.8246621 5.62811719,8.8650371 5.70921094,8.91284355 L9.17639844,6.3719 C8.83194531,5.69349274 8.74483594,4.88844435 8.99725781,4.1091379 Z M19.0975469,17.0146351 C19.617625,18.5933972 18.7273906,20.2889173 17.1090312,20.8016875 C15.8037187,21.215244 14.4234062,20.7328891 13.6653594,19.7024456 L14.4905156,19.1514456 C15.00575,19.834756 15.9296562,20.1521633 16.803875,19.8752077 C17.8977031,19.5286109 18.4995,18.3825585 18.1479375,17.315494 C17.8947344,16.5469899 17.150125,16.0245665 16.3817656,15.924127 L18.0453594,10.986119 C17.876375,10.8464536 17.7431719,10.6614335 17.6702812,10.4403286 C17.4622344,9.80880847 17.8184844,9.13055444 18.46575,8.92553831 C19.1130937,8.72044556 19.8065312,9.06612298 20.0145781,9.69771976 C20.2225469,10.3291633 19.8665312,11.0074173 19.2191875,11.2125101 C19.1252812,11.2422359 19.0305937,11.2590907 18.936375,11.2664456 L17.616375,15.2878569 C18.2968437,15.6404294 18.8428594,16.2416109 19.0975469,17.0146351 Z M10.7348359,18.3351198 C10.6049141,19.0794907 10.1919453,19.777281 9.52132031,20.2584867 C8.15163281,21.2412004 6.22889844,20.9489988 5.22678906,19.6056681 C4.41858594,18.5223617 4.45608594,17.0861762 5.21952344,16.0555028 L6.01139844,16.6488698 C5.50921094,17.3440552 5.48928906,18.3035552 6.03053906,19.029156 C6.70788281,19.937019 8.00749219,20.134527 8.93327344,19.4702931 C9.59991406,18.9919988 9.87467969,18.1342407 9.73257031,17.3878778 L15.0424141,17.3746238 C15.1252266,17.1732085 15.2632734,16.991023 15.4550703,16.8533496 C16.0029609,16.4602488 16.7720234,16.5770835 17.1728828,17.1144464 C17.5736641,17.6517327 17.4545234,18.4058335 16.9066328,18.7990109 C16.3587422,19.1920351 15.5896797,19.0752004 15.1887422,18.5379141 C15.1306953,18.4599222 15.0848359,18.3771036 15.0482734,18.2919867 L10.7348359,18.3351198 Z"/>
</svg>
