<svg xmlns="http://www.w3.org/2000/svg" width="413.182" height="400" viewBox="-0.094 6.527 413.182 400">
	<path d="M214.659 329.919c15.669 0 31.337 0 47.005 0 3.955-0.335 7.655-2.087 10.42-4.935 9.626-10.817 26.199-11.781 37.017-2.155 10.816 9.627 11.78 26.2 2.154 37.017 -10.592 10.021-27.303 9.559-37.323-1.033 -0.654-0.692-1.271-1.42-1.848-2.178 -2.268-2.381-5.339-3.834-8.618-4.074 -25.539 0-51.156 0-76.774 0 -4.278-0.647-8.271 2.295-8.918 6.572 -0.004 0.029-0.008 0.059-0.013 0.087 -10.13 33.641-45.613 52.699-79.254 42.568 -9.33-2.81-17.889-7.724-25.019-14.365 -20.525-18.567-26.245-55.623-11.282-78.342 2.664-4.074 5.092-4.78 8.775-1.646 1.463 1.318 3.065 2.475 4.778 3.447 5.641 2.977 6.424 6.188 3.291 12.299 -7.562 15.676-4.629 34.395 7.364 47.005 12.262 12.459 30.852 16.238 47.005 9.559 15.859-6.429 26.025-22.068 25.461-39.172 0-10.341 0-10.418 10.732-10.418L214.659 329.919z"/>
	<path d="M258.53 70.374c-7.834 1.488-10.811-1.41-12.063-9.245 -3.32-16.658-16.557-29.552-33.296-32.433 -17.568-3.077-35.179 5.196-44.028 20.682 -9.055 15.336-7.121 34.772 4.779 48.023 4.073 4.622 2.663 6.659-1.489 9.714 -25.383 18.253-50.53 36.664-75.913 54.839 -4.779 2.512-7.79 7.449-7.834 12.848 -0.469 14.188-12.289 25.343-26.48 24.991 -13.588-0.755-24.496-11.495-25.461-25.069 -0.458-13.82 9.766-25.68 23.503-27.263 1.671-0.421 3.421-0.421 5.092 0 8.852 3.839 15.198-0.47 21.936-5.562 18.253-13.71 36.898-27.028 55.544-40.268 3.368-1.582 4.816-5.595 3.234-8.963 -0.032-0.068-0.066-0.136-0.1-0.203 -12.364-32.885 4.272-69.567 37.157-81.931 5.235-1.968 10.706-3.237 16.272-3.775 35.004-2.963 65.937 22.641 69.567 57.581C269.499 74.134 261.9 68.963 258.53 70.374z"/>
	<path d="M310.236 159.683l-39.17-28.438c-14.494-10.576-29.066-21.074-43.48-31.336 -3.34-2.897-7.982-3.766-12.144-2.272 -13.428 4.319-27.813-3.064-32.132-16.492 -0.204-0.632-0.382-1.272-0.536-1.918 -3.379-13.873 5.128-27.858 19.001-31.236 0.142-0.035 0.284-0.068 0.428-0.1 13.265-3.487 26.845 4.439 30.332 17.705 0.224 0.852 0.402 1.715 0.534 2.586 0.922 7.5 5.26 14.151 11.751 18.019 18.332 12.848 36.352 26.088 54.292 39.17 3.642 3.7 9.595 3.745 13.294 0.102 0.034-0.034 0.068-0.068 0.102-0.102 18.819-15.074 44.887-17.272 65.964-5.562 21.328 9.861 34.862 31.343 34.549 54.839 1.134 24.288-12.168 46.956-33.922 57.816 -8.305 4.778-9.479 4.073-12.457-4.701 -0.441-1.653-0.991-3.274-1.645-4.857 -2.271-4.543-0.549-6.736 3.76-9.088 20.676-10.695 28.766-36.125 18.07-56.8 -6.85-13.242-20.186-21.879-35.069-22.716 -12.772-0.905-25.197 4.404-33.374 14.258C315.564 151.614 313.37 155.139 310.236 159.683z"/>
	<path d="M335.933 346.137c0-21.937-11.674-38.623-29.849-43.402 -7.834-2.037-8.227-5.326-6.032-11.907 9.872-29.613 19.429-59.383 28.987-88.684 1.684-3.546 1.197-7.743-1.254-10.811 -8.546-11.33-6.288-27.443 5.043-35.988 11.331-8.545 27.443-6.287 35.987 5.044 8.546 11.33 6.288 27.442-5.042 35.988 -1.448 1.092-3.007 2.027-4.652 2.791 -5.472 2.109-9.527 6.812-10.811 12.535 -7.104 22.51-14.415 44.941-21.936 67.296 -2.396 4.36-0.802 9.837 3.559 12.233 0.042 0.021 0.082 0.044 0.123 0.066 22.895 15.688 32.744 44.567 24.208 70.978 -10.659 33.43-46.402 51.891-79.833 41.232 -10.094-3.219-19.223-8.909-26.556-16.556 -4.465-4.309-5.092-7.834 1.019-11.517 1.509-0.837 2.904-1.863 4.152-3.055 3.995-3.839 6.737-3.29 11.045 0.627 11.97 12.525 30.579 16.053 46.302 8.774C325.235 376.034 335.262 362.039 335.933 346.137z"/>
	<path d="M65.575 130.461c-23.461-1.243-43.488 16.767-44.731 40.228 -1.211 22.835 15.848 42.542 38.621 44.616 6.423 0.427 12.863-0.535 18.88-2.82 5.797-2.037 7.834-0.627 9.558 4.778 9.245 29.3 18.88 58.521 28.125 87.822 1.132 5.52 5.14 10.007 10.498 11.751 12.12 4.396 18.907 17.29 15.668 29.77 -3.658 13.623-17.666 21.7-31.288 18.044 -10.501-2.819-18.066-11.979-18.851-22.822 0.182-5.532 1.773-10.925 4.622-15.669 2.303-3.443 2.827-7.779 1.41-11.674 -7.833-23.502-15.668-47.005-22.797-70.507 -0.925-5.719-6.249-9.65-11.986-8.853 -27.139 1.29-51.691-16.004-59.618-41.991 -7.873-21.124-3.243-44.877 11.986-61.498 14.445-17.204 37.12-25.163 59.148-20.76 5.875 0.861 7.364 3.133 5.484 8.852C76.543 130.618 76.778 130.697 65.575 130.461z"/>
</svg>
