<svg xmlns="http://www.w3.org/2000/svg" width="409.973" height="400.002" viewBox="0 0 409.973 400.002">
	<path d="M205.012 0C91.796 0 0 91.797 0 205.039 0 295.617 58.729 372.5 140.205 399.597c10.271 1.804 14.013-4.458 14.013-9.896 0-4.938-0.188-17.753-0.291-34.847 -57.032 12.395-69.055-27.467-69.055-27.467 -9.343-23.725-22.77-29.99-22.77-29.99 -18.605-12.71 1.407-12.5 1.407-12.5 20.566 1.486 31.396 21.125 31.396 21.125 18.311 31.37 48.01 22.318 59.686 17.065 1.858-13.242 7.164-22.293 13.005-27.336 -45.514-5.229-93.391-22.795-93.391-101.378 0-22.372 7.99-40.66 21.098-54.988 -2.096-5.229-9.129-26.061 2.018-54.326 0 0 17.225-5.521 56.394 21.02 16.347-4.539 33.891-6.848 51.325-6.928 17.409 0.08 34.926 2.389 51.379 6.928 39.145-26.539 56.34-21.02 56.34-21.02 11.148 28.213 4.086 49.149 1.965 54.272 13.164 14.331 21.1 32.614 21.1 54.987 0 78.796-47.957 96.099-93.602 101.166 7.352 6.344 13.881 18.845 13.881 38.058 0 27.414-0.266 49.521-0.266 56.236 0 5.492 3.688 11.781 14.039 9.875 81.422-27.178 140.098-103.981 140.098-194.531C410.108 91.8 318.307 0.002 205.014 0.002L205.012 0z"/>
</svg>
