<svg xmlns="http://www.w3.org/2000/svg" width="409.974" height="400.002" viewBox="25.537 139.95 409.974 400.002">
	<path d="M230.549 139.95c-113.216 0-205.012 91.797-205.012 205.039 0 90.578 58.729 167.461 140.205 194.558 10.271 1.804 14.013-4.458 14.013-9.897 0-4.937-0.188-17.753-0.291-34.846 -57.032 12.394-69.055-27.467-69.055-27.467 -9.343-23.725-22.77-29.99-22.77-29.99 -18.605-12.71 1.407-12.5 1.407-12.5 20.566 1.486 31.396 21.125 31.396 21.125 18.311 31.37 48.01 22.318 59.686 17.065 1.858-13.242 7.164-22.293 13.005-27.336 -45.514-5.229-93.391-22.795-93.391-101.378 0-22.372 7.99-40.66 21.098-54.988 -2.096-5.229-9.129-26.06 2.018-54.326 0 0 17.225-5.521 56.394 21.019 16.347-4.539 33.891-6.848 51.325-6.928 17.409 0.08 34.925 2.389 51.378 6.928 39.146-26.539 56.341-21.019 56.341-21.019 11.147 28.212 4.086 49.149 1.965 54.272 13.163 14.332 21.099 32.615 21.099 54.988 0 78.795-47.957 96.098-93.602 101.166 7.352 6.343 13.881 18.844 13.881 38.057 0 27.414-0.265 49.521-0.265 56.236 0 5.493 3.688 11.782 14.039 9.875 81.422-27.177 140.098-103.981 140.098-194.531 0.134-113.322-91.667-205.12-204.96-205.12L230.549 139.95z"/>
</svg>
