<svg xmlns="http://www.w3.org/2000/svg" viewBox="0 0 872.3 874">
	<circle cx="436.4" cy="435.9" r="178"/>
	<path d="M799.6 133.9c0-33.8-27.4-61.2-61.2-61.2 -14.7 0-29 5.3-40.1 15C625.3 32.7 534.6 0 436.4 0 196 0 0.5 195.5 0.5 435.9c0 240.3 195.5 435.9 435.9 435.9s435.9-195.5 435.9-435.9c0-98.2-32.7-189-87.7-261.9C794.2 162.9 799.6 148.6 799.6 133.9L799.6 133.9zM436.4 857.1c-232.3 0-421.2-189-421.2-421.2 0-232.3 189-421.2 421.2-421.2 94.4 0 181.7 31.2 252 83.9 -7.3 10.3-11.3 22.7-11.3 35.3 0 33.8 27.4 61.2 61.2 61.2 13.2 0 25.3-4.2 35.3-11.3 52.7 70.3 83.9 157.6 83.9 252C857.6 668.1 668.6 857.1 436.4 857.1L436.4 857.1z"/>
</svg>