<svg xmlns="http://www.w3.org/2000/svg" width="24px" height="24px" viewBox="0 0 24 24">
  <path
    d="M18.9102557,7.96650094 C18.7767738,7.98853729 18.6397255,8 18.5,8 C17.1192881,8 16,6.88071187 16,5.5 C16,5.36027447 16.0114627,5.22322621 16.0334991,5.08974427 C14.8492667,4.39701755 13.4709976,4 12,4 C7.581722,4 4,7.581722 4,12 C4,16.418278 7.581722,20 12,20 C16.418278,20 20,16.418278 20,12 C20,10.5290024 19.6029825,9.15073329 18.9102557,7.96650094 Z M17.1253255,3.41154101 C17.519734,3.15140702 17.9921855,3 18.5,3 C19.8807119,3 21,4.11928813 21,5.5 C21,6.00781452 20.848593,6.48026603 20.588459,6.87467451 C21.4848421,8.37350637 22,10.1265924 22,12 C22,17.5228475 17.5228475,22 12,22 C6.4771525,22 2,17.5228475 2,12 C2,6.4771525 6.4771525,2 12,2 C13.8734076,2 15.6264936,2.51515787 17.1253255,3.41154101 Z M12,16 C9.790861,16 8,14.209139 8,12 C8,9.790861 9.790861,8 12,8 C14.209139,8 16,9.790861 16,12 C16,14.209139 14.209139,16 12,16 Z"/>
</svg>
