<svg xmlns="http://www.w3.org/2000/svg" width="24px" height="24px" viewBox="0 0 24 24">
  <path
    d="M12.7964587,20 L12.5652106,17.9841822 C12.3785269,17.9946691 12.1900151,18 12,18 C8.19925732,18 5,15.8671618 5,13 L7,13 C7,14.5511162 9.17332568,16 12,16 C12.1133499,16 12.2256492,15.9976702 12.3367999,15.9930973 L12.1081583,14 L8.79154483,14 L10.6963067,4 L5,4 C4.44771525,4 4,4.44771525 4,5 L4,19 C4,19.5522847 4.44771525,20 5,20 L12.7964587,20 Z M14.8095756,20 L19,20 C19.5522847,20 20,19.5522847 20,19 L20,5 C20,4.44771525 19.5522847,4 19,4 L12.7322647,4 L11.2084551,12 L13.8918417,12 L14.3105964,15.6503368 C15.9280193,15.1283145 17,14.08937 17,13 L19,13 C19,15.1946062 17.1256186,16.9589868 14.5418243,17.665979 L14.8095756,20 Z M5,2 L19,2 C20.6568542,2 22,3.34314575 22,5 L22,19 C22,20.6568542 20.6568542,22 19,22 L5,22 C3.34314575,22 2,20.6568542 2,19 L2,5 C2,3.34314575 3.34314575,2 5,2 Z M6,7 L8,7 L8,10 L6,10 L6,7 Z M16,7 L18,7 L18,10 L16,10 L16,7 Z"/>
</svg>
