<svg xmlns="http://www.w3.org/2000/svg" width="448.33" height="400" viewBox="0.003 21.497 448.33 400">
	<circle cx="224.154" cy="221.478" r="40.599"/>
	<path d="M442.821 200.354l-0.026 0.045c-3.788-6.767-8.71-12.833-14.553-17.932 -11.655-10.544-28.18-19.914-49-27.858 -7.932-3.025-16.351-5.79-25.258-8.294 2.242-8.847 4.036-17.422 5.38-25.724 3.533-22.003 3.659-40.967 0.376-56.361 -1.492-7.63-4.289-14.946-8.267-21.626 -7.659-12.929-21.509-20.926-36.536-21.098 -7.763-0.123-15.487 1.091-22.837 3.586 -14.983 4.86-31.382 14.444-48.624 28.513 -6.575 5.326-13.15 11.199-19.726 17.619 -6.468-6.247-12.932-12.012-19.394-17.296 -17.287-14.059-33.642-23.653-48.624-28.503 -7.351-2.496-15.075-3.709-22.837-3.587 -15.006 0.169-28.842 8.143-36.51 21.044 -3.979 6.668-6.782 13.972-8.285 21.59 -3.281 15.404-3.156 34.368 0.377 56.362 1.327 8.249 3.105 16.779 5.335 25.589 -8.704 2.462-16.952 5.18-24.747 8.15 -20.82 7.935-37.309 17.314-49 27.858 -5.842 5.1-10.765 11.166-14.552 17.932 -7.347 13.087-7.347 29.055 0 42.141 3.788 6.769 8.71 12.834 14.552 17.933 11.656 10.544 28.181 19.914 49 27.858 7.77 2.989 16.004 5.702 24.702 8.142 -2.248 8.858-4.041 17.444-5.38 25.76 -3.533 22.003-3.658 40.966-0.376 56.361 1.502 7.619 4.305 14.923 8.285 21.59 7.658 12.912 21.491 20.901 36.501 21.081h1.641c7.215-0.1 14.37-1.328 21.205-3.641 14.983-4.859 31.382-14.445 48.624-28.513 6.485-5.278 12.988-11.089 19.511-17.431 6.604 6.438 13.201 12.338 19.788 17.699 17.287 14.06 33.641 23.653 48.624 28.514 6.835 2.312 13.989 3.54 21.204 3.64h1.641c15.012-0.18 28.844-8.168 36.502-21.08 3.979-6.668 6.782-13.971 8.284-21.59 3.281-15.404 3.157-34.367-0.376-56.361 -1.339-8.369-3.133-17-5.38-25.896 8.87-2.497 17.271-5.26 25.204-8.284 20.819-7.936 37.308-17.314 49-27.858 5.843-5.1 10.765-11.165 14.552-17.933C450.17 229.408 450.17 213.439 442.821 200.354zM255.742 68.739c7.07-5.813 14.563-11.094 22.415-15.799 6.3-3.813 12.995-6.931 19.968-9.298 4.884-1.679 10-2.586 15.161-2.689 4.529-0.106 9.004 0.996 12.966 3.192 7.075 4.089 11.952 12.203 14.489 24.119 1.438 7.225 2.084 14.584 1.929 21.949 -0.164 9.126-1.003 18.228-2.511 27.23 -1.243 7.729-2.917 15.744-5.021 24.047 -8.332-1.871-17-3.533-26.002-4.986 -11.041-1.792-22.343-3.213-33.909-4.258 -6.552-9.271-13.289-18.154-20.21-26.647 -5.863-7.173-11.756-13.975-17.674-20.407C243.494 79.196 249.628 73.712 255.742 68.739zM286.289 257.44c-6.921 11.992-14.16 23.528-21.715 34.611 -13.208 0.976-26.701 1.47-40.348 1.47 -13.934 0-27.661-0.512-41.093-1.524 -7.459-10.963-14.633-22.392-21.519-34.287 -6.988-12.033-13.399-24.118-19.232-36.259 5.804-12.045 12.167-24.068 19.089-36.071 6.922-12.003 14.125-23.485 21.608-34.449 13.45-1.013 27.141-1.524 41.074-1.524 13.691 0 27.177 0.493 40.348 1.47 7.58 11.106 14.857 22.696 21.834 34.771 6.88 11.913 13.206 23.847 18.98 35.802 -5.792 12.021-12.143 24.018-19.053 35.989H286.289zM118.022 160.364c7.771-1.733 15.857-3.279 24.262-4.635 5.236-0.843 10.538-1.602 15.906-2.278 -4.62 7.233-9.122 14.639-13.503 22.219 -4.382 7.579-8.566 15.227-12.553 22.944 -2.152-5.009-4.175-10.006-6.07-14.992h0.026C123.103 175.708 120.413 167.956 118.022 160.364zM132.062 244.306h0.027c4.005 7.729 8.225 15.44 12.66 23.133 4.34 7.52 8.808 14.875 13.405 22.066 -5.38-0.676-10.679-1.436-15.897-2.278 -8.405-1.357-16.504-2.904-24.298-4.644 2.391-7.526 5.081-15.222 8.069-23.089C127.911 254.455 129.923 249.393 132.062 244.306zM303.129 267.17c4.423-7.646 8.607-15.276 12.553-22.892 2.158 5.177 4.226 10.339 6.204 15.485 2.989 7.806 5.651 15.448 7.989 22.927 -7.628 1.69-15.553 3.201-23.779 4.527 -5.463 0.879-10.998 1.668-16.604 2.367C294.159 282.286 298.705 274.815 303.129 267.17zM321.716 183.309c-1.901 5.104-3.937 10.215-6.106 15.332 -3.933-7.585-8.078-15.15-12.436-22.693 -4.447-7.705-9.025-15.234-13.736-22.586 5.605 0.699 11.145 1.488 16.614 2.367 8.2 1.321 16.111 2.815 23.733 4.483C327.395 167.743 324.704 175.443 321.716 183.309zM223.787 99.179h0.035c5.38 5.87 10.761 12.102 16.139 18.695 3.36 4.13 6.682 8.356 9.963 12.678 -8.507-0.371-17.097-0.556-25.77-0.556 -8.906 0-17.726 0.2-26.459 0.6 3.353-4.429 6.751-8.76 10.194-12.992C213.174 111.113 218.473 104.971 223.787 99.179zM107.109 68.515c2.538-11.917 7.416-20.031 14.49-24.119 7.074-4.089 16.542-4.241 28.136-0.476 6.973 2.366 13.668 5.484 19.967 9.298 7.853 4.705 15.345 9.985 22.416 15.798 5.995 4.89 12.029 10.272 18.103 16.148 -5.821 6.342-11.638 13.061-17.448 20.156 -7.012 8.608-13.841 17.616-20.488 27.024 -11.292 1.053-22.35 2.451-33.175 4.196 -9.158 1.477-17.987 3.177-26.487 5.102 -2.062-8.237-3.712-16.202-4.949-23.895 -1.504-9.021-2.337-18.141-2.492-27.284C105.027 83.099 105.673 75.74 107.109 68.515zM99.041 277.803c-8.118-2.301-15.802-4.828-23.053-7.585l0.009-0.045c-8.568-3.192-16.888-7.017-24.89-11.44 -6.454-3.547-12.503-7.786-18.04-12.642 -9.038-8.16-13.628-16.445-13.628-24.64 0-8.195 4.59-16.453 13.638-24.612 5.535-4.846 11.582-9.076 18.031-12.616 7.996-4.438 16.309-8.277 24.872-11.485 7.245-2.762 14.944-5.299 23.097-7.612 2.577 8.291 5.512 16.761 8.805 25.41 3.903 10.264 8.237 20.568 13.001 30.916 -4.782 10.4-9.146 20.771-13.091 31.112C104.521 261.146 101.605 269.561 99.041 277.803zM191.993 374.1c-7.071 5.814-14.563 11.094-22.415 15.8 -6.3 3.814-12.995 6.932-19.968 9.298 -11.593 3.756-21.052 3.585-28.136-0.493 -7.083-4.08-11.951-12.203-14.489-24.119 -1.437-7.225-2.083-14.585-1.928-21.949 0.171-9.143 1.019-18.259 2.538-27.275 1.244-7.734 2.917-15.753 5.021-24.056 8.506 1.924 17.353 3.628 26.541 5.109 10.807 1.746 21.865 3.142 33.174 4.188 6.677 9.449 13.551 18.511 20.623 27.185 5.744 7.055 11.519 13.728 17.323 20.022C204.147 363.739 198.054 369.169 191.993 374.1zM208.006 325.513c-3.484-4.274-6.925-8.655-10.32-13.146 8.739 0.401 17.568 0.603 26.487 0.603 8.673 0 17.266-0.192 25.776-0.575 -3.315 4.382-6.678 8.661-10.087 12.84 -5.345 6.552-10.699 12.744-16.062 18.58C218.527 338.063 213.262 331.963 208.006 325.513zM340.813 374.916c-2.537 11.916-7.414 20.031-14.489 24.119 -7.075 4.089-16.542 4.251-28.135 0.493 -6.975-2.366-13.67-5.484-19.969-9.298 -7.852-4.704-15.345-9.985-22.415-15.798 -6.14-4.991-12.305-10.51-18.497-16.552 5.887-6.371 11.75-13.143 17.591-20.309 7-8.59 13.787-17.557 20.362-26.899 11.537-1.057 22.831-2.478 33.883-4.259 8.967-1.452 17.634-3.116 26.003-4.994 2.146 8.352 3.846 16.424 5.102 24.219v0.045c1.504 9.021 2.338 18.14 2.493 27.283C342.897 360.332 342.25 367.691 340.813 374.916zM415.225 246.091v0.044c-5.534 4.84-11.577 9.062-18.022 12.598 -7.995 4.438-16.309 8.276-24.872 11.485 -7.389 2.815-15.249 5.398-23.581 7.747 -2.553-8.195-5.454-16.564-8.706-25.105 -3.963-10.419-8.369-20.879-13.218-31.381 4.783-10.425 9.159-20.823 13.128-31.194 3.27-8.596 6.189-17.021 8.76-25.276 8.332 2.343 16.205 4.929 23.617 7.756 8.562 3.2 16.876 7.03 24.872 11.458 6.453 3.548 12.503 7.787 18.04 12.642 9.047 8.16 13.638 16.436 13.638 24.613S424.279 237.931 415.225 246.091z"/>
</svg>
