<svg xmlns="http://www.w3.org/2000/svg" width="24px" height="24px" viewBox="0 0 24 24">
    <path d="M8.18544904,15.7388744 C7.67288361,17.4588263 7.611002,18.7036151 8,18.9282032 C8.388998,19.1527913 9.43607593,18.4768059 10.6693152,17.1729353 C10.3563835,16.7768526 10.0461588,16.3557272 9.74103929,15.9126347 C9.2047502,15.8699397 8.6849326,15.81184 8.18544904,15.7388744 Z M6.20809864,15.3439558 C3.66168943,14.6775033 2,13.5267249 2,12 C2,10.4732751 3.66168943,9.32249668 6.20809864,8.65604419 C5.51205882,6.11756289 5.67781743,4.10310842 7,3.33974596 C8.32218257,2.5763835 10.1496306,3.44005956 12,5.31208838 C13.8503694,3.44005956 15.6778174,2.5763835 17,3.33974596 C18.3221826,4.10310842 18.4879412,6.11756289 17.7919014,8.65604419 C20.3383106,9.32249668 22,10.4732751 22,12 C22,13.5267249 20.3383106,14.6775033 17.7919014,15.3439558 C18.4879412,17.8824371 18.3221826,19.8968916 17,20.660254 C15.6778174,21.4236165 13.8503694,20.5599404 12,18.6879116 C10.1496306,20.5599404 8.32218257,21.4236165 7,20.660254 C5.67781743,19.8968916 5.51205882,17.8824371 6.20809864,15.3439558 Z M13.3306848,6.82706474 C13.6436165,7.22314743 13.9538412,7.64427283 14.2589607,8.08736527 C14.7952498,8.13006034 15.3150674,8.18816003 15.814551,8.26112556 C16.3271164,6.54117368 16.388998,5.29638487 16,5.07179677 C15.611002,4.84720867 14.5639241,5.52319412 13.3306848,6.82706474 Z M9.74103929,8.08736527 C10.0461588,7.64427283 10.3563835,7.22314743 10.6693152,6.82706474 C9.43607593,5.52319412 8.388998,4.84720867 8,5.07179677 C7.611002,5.29638487 7.67288361,6.54117368 8.18544904,8.26112556 C8.6849326,8.18816003 9.2047502,8.13006034 9.74103929,8.08736527 Z M14.2589607,15.9126347 C13.9538412,16.3557272 13.6436165,16.7768526 13.3306848,17.1729353 C14.5639241,18.4768059 15.611002,19.1527913 16,18.9282032 C16.388998,18.7036151 16.3271164,17.4588263 15.814551,15.7388744 C15.3150674,15.81184 14.7952498,15.8699397 14.2589607,15.9126347 Z M13.1394856,13.9736469 C13.3404745,13.6599558 13.5386075,13.3350536 13.7320508,13 C13.9254941,12.6649464 14.1078011,12.330907 14.2789712,12 C14.1078011,11.669093 13.9254941,11.3350536 13.7320508,11 C13.5386075,10.6649464 13.3404745,10.3400442 13.1394856,10.0263531 C12.7673267,10.0091372 12.3868866,10 12,10 C11.6131134,10 11.2326733,10.0091372 10.8605144,10.0263531 C10.6595255,10.3400442 10.4613925,10.6649464 10.2679492,11 C10.0745059,11.3350536 9.89219888,11.669093 9.72102885,12 C9.89219888,12.330907 10.0745059,12.6649464 10.2679492,13 C10.4613925,13.3350536 10.6595255,13.6599558 10.8605144,13.9736469 C11.2326733,13.9908628 11.6131134,14 12,14 C12.3868866,14 12.7673267,13.9908628 13.1394856,13.9736469 Z M6.85476428,13.4340608 C7.04131605,12.9650126 7.25090904,12.4857875 7.48207857,12 C7.25090904,11.5142125 7.04131605,11.0349874 6.85476428,10.5659392 C5.10895954,10.9820204 4,11.5508238 4,12 C4,12.4491762 5.10895954,13.0179796 6.85476428,13.4340608 Z M17.1452357,10.5659392 C16.958684,11.0349874 16.749091,11.5142125 16.5179214,12 C16.749091,12.4857875 16.958684,12.9650126 17.1452357,13.4340608 C18.8910405,13.0179796 20,12.4491762 20,12 C20,11.5508238 18.8910405,10.9820204 17.1452357,10.5659392 Z M12,13 C11.4477153,13 11,12.5522847 11,12 C11,11.4477153 11.4477153,11 12,11 C12.5522847,11 13,11.4477153 13,12 C13,12.5522847 12.5522847,13 12,13 Z"/>
</svg>
