<svg xmlns="http://www.w3.org/2000/svg" width="449.527" height="400" viewBox="16.73 187.332 449.527 400">
	<path d="M146.438 187.332c-12.138 0.024-24.031 6.913-30.138 17.434L21.24 369.902c-6.014 10.537-6.014 24.316 0 34.865l95.06 165.13c6.112 10.512 18.001 17.411 30.138 17.436h190.118c12.138-0.029 24.025-6.918 30.138-17.436l95.054-165.13c6.011-10.543 6.011-24.328 0-34.865l-95.054-165.136c-6.112-10.511-18-17.411-30.138-17.434H146.438L146.438 187.332zM148.162 283.937c0.263-0.024 0.537-0.024 0.794 0h32.796c1.452 0.03 2.86 0.863 3.586 2.129l55.631 99.128c0.282 0.488 0.462 1.037 0.528 1.595 0.069-0.562 0.251-1.107 0.534-1.595l55.498-99.133c0.745-1.293 2.222-2.137 3.712-2.128h32.792c2.909 0.024 5.086 3.688 3.729 6.257l-54.306 97.139 54.306 97.001c1.487 2.583-0.738 6.412-3.729 6.386h-32.792c-1.52-0.013-3.012-0.913-3.712-2.262l-55.498-99.133c-0.282-0.487-0.461-1.037-0.534-1.595 -0.063 0.562-0.247 1.112-0.528 1.595l-55.631 99.133c-0.687 1.312-2.109 2.208-3.586 2.262h-32.796c-2.978 0.03-5.21-3.797-3.712-6.386l54.306-97.001 -54.306-97.133C143.94 287.85 145.531 284.435 148.162 283.937L148.162 283.937z"/>
</svg>
