<svg xmlns="http://www.w3.org/2000/svg" width="24px" height="24px" viewBox="0 0 24 24">
  <path
    d="M15.9577916,5 L8.0238734,5 L4.06182408,11.9899423 L8.03511339,19 L15.9264465,19 L19.9370472,11.9895275 L15.9577916,5 Z M21.7939706,11.2087912 C22.0686765,11.6833187 22.0686765,12.2967033 21.7939706,12.7712308 L17.5390686,20.2087912 C17.2841667,20.6833187 16.7547549,21 16.2057353,21 L7.7547549,21 C7.22553922,21 6.69593137,20.6833187 6.42142157,20.2087912 L2.20573529,12.7712308 C1.93142157,12.2967033 1.93142157,11.6833187 2.20573529,11.2087912 L6.42142157,3.77123077 C6.67632353,3.31648352 7.20573529,3 7.7547549,3 L16.2253431,3 C16.7547549,3 17.2841667,3.31648352 17.5588725,3.77123077 L21.7939706,11.2087912 Z M14,8 L16,8 L14,12 L16,16 L14,16 L12,12 L14,8 Z M10,8 L12,12 L10,16 L8,16 L10,12 L8,8 L10,8 Z"/>
</svg>
