<?xml version="1.0" encoding="UTF-8" standalone="no"?>
<svg xmlns="http://www.w3.org/2000/svg" xmlns:svg="http://www.w3.org/2000/svg" version="1.1" width="9" height="9" viewBox="3.5 0 9 9">
	<rect x="3.5" fill="#662D91" width="9" height="9"/>
	<path fill="#FFFFFF" d="M7.976,6.785c-0.014,0-0.028-0.004-0.042-0.011C7.909,6.761,7.891,6.732,7.891,6.701v-1.85c0-0.028,0.014-0.056,0.042-0.07l2.088-1.234c0.024-0.014,0.057-0.014,0.084,0c0.025,0.014,0.043,0.042,0.043,0.074v1.85c0,0.027-0.015,0.056-0.043,0.07L8.018,6.774C8.003,6.781,7.989,6.785,7.976,6.785z M8.06,4.901v1.656l1.92-1.136V3.765L8.06,4.901z"/>
	<path fill="#FFFFFF" d="M7.976,6.785c-0.014,0-0.028-0.004-0.042-0.011L5.845,5.541C5.82,5.526,5.803,5.498,5.803,5.471v-1.85c0-0.032,0.018-0.056,0.042-0.074c0.025-0.014,0.057-0.014,0.084,0l2.088,1.234C8.056,4.806,8.07,4.855,8.046,4.894C8.021,4.933,7.972,4.946,7.933,4.922L5.972,3.765v1.656l2.046,1.21C8.056,6.655,8.07,6.704,8.046,6.743C8.032,6.771,8.003,6.785,7.976,6.785z"/>
	<path fill="#FFFFFF" d="M5.887,3.706c-0.028,0-0.056-0.014-0.07-0.042C5.792,3.625,5.806,3.572,5.845,3.551l2.088-1.234c0.039-0.025,0.091-0.011,0.113,0.028c0.024,0.039,0.01,0.092-0.028,0.113L5.929,3.691C5.915,3.702,5.901,3.706,5.887,3.706z"/>
	<path fill="#FFFFFF" d="M10.063,3.706c-0.014,0-0.028-0.003-0.042-0.011L7.933,2.461C7.895,2.437,7.88,2.387,7.905,2.349C7.93,2.31,7.979,2.296,8.018,2.32l2.088,1.234c0.039,0.025,0.053,0.074,0.028,0.113C10.12,3.691,10.092,3.706,10.063,3.706z"/>
	<path fill="#FFFFFF" d="M7.997,4.412c-0.295,0-0.527-0.147-0.527-0.337V3.748c0-0.045,0.039-0.084,0.084-0.084c0.045,0,0.084,0.039,0.084,0.084v0.327c0,0.081,0.155,0.168,0.362,0.168s0.362-0.091,0.362-0.168V3.748c0-0.045,0.039-0.084,0.084-0.084c0.046,0,0.085,0.039,0.085,0.084v0.327C8.523,4.265,8.292,4.412,7.997,4.412z"/>
	<ellipse fill="#662D91" cx="7.997" cy="3.748" rx="0.443" ry="0.253"/>
	<path fill="#FFFFFF" d="M7.997,4.085c-0.295,0-0.527-0.147-0.527-0.337S7.701,3.41,7.997,3.41s0.527,0.147,0.527,0.337S8.292,4.085,7.997,4.085z M7.997,3.579c-0.208,0-0.362,0.091-0.362,0.168c0,0.078,0.155,0.169,0.362,0.169s0.362-0.091,0.362-0.169C8.358,3.67,8.204,3.579,7.997,3.579z"/>
	<path fill="#FFFFFF" d="M6.886,3.832c-0.295,0-0.527-0.147-0.527-0.337V3.167c0-0.045,0.039-0.084,0.084-0.084c0.046,0,0.084,0.039,0.084,0.084v0.327c0,0.081,0.155,0.168,0.362,0.168s0.362-0.091,0.362-0.168V3.167c0-0.045,0.039-0.084,0.084-0.084c0.046,0,0.084,0.039,0.084,0.084v0.327C7.413,3.685,7.181,3.832,6.886,3.832z"/>
	<ellipse fill="#662D91" cx="6.886" cy="3.168" rx="0.443" ry="0.253"/>
	<path fill="#FFFFFF" d="M6.886,3.505c-0.295,0-0.527-0.147-0.527-0.337S6.59,2.83,6.886,2.83c0.295,0,0.527,0.147,0.527,0.337S7.181,3.505,6.886,3.505z M6.886,2.995c-0.208,0-0.362,0.092-0.362,0.169c0,0.081,0.155,0.169,0.362,0.169c0.207,0,0.362-0.092,0.362-0.169S7.093,2.995,6.886,2.995z"/>
	<path fill="#FFFFFF" d="M9.107,3.797c-0.295,0-0.527-0.147-0.527-0.337V3.132c0-0.045,0.039-0.084,0.084-0.084c0.046,0,0.085,0.039,0.085,0.084v0.327c0,0.081,0.154,0.168,0.362,0.168c0.207,0,0.361-0.091,0.361-0.168V3.132c0-0.045,0.039-0.084,0.085-0.084s0.084,0.039,0.084,0.084v0.327C9.635,3.649,9.402,3.797,9.107,3.797z"/>
	<ellipse fill="#662D91" cx="9.107" cy="3.133" rx="0.443" ry="0.253"/>
	<path fill="#FFFFFF" d="M9.107,3.47c-0.295,0-0.527-0.147-0.527-0.337s0.232-0.337,0.527-0.337s0.527,0.147,0.527,0.337S9.402,3.47,9.107,3.47z M9.107,2.96c-0.207,0-0.362,0.092-0.362,0.169c0,0.081,0.155,0.169,0.362,0.169S9.47,3.206,9.47,3.129S9.314,2.96,9.107,2.96z"/>
	<path fill="#FFFFFF" d="M7.997,3.217c-0.295,0-0.527-0.147-0.527-0.337V2.552c0-0.045,0.039-0.084,0.084-0.084c0.045,0,0.084,0.039,0.084,0.084v0.327C7.638,2.96,7.792,3.048,8,3.048s0.362-0.091,0.362-0.168V2.552c0-0.045,0.039-0.084,0.084-0.084c0.046,0,0.085,0.039,0.085,0.084v0.327C8.523,3.065,8.292,3.217,7.997,3.217z"/>
	<ellipse fill="#662D91" cx="7.997" cy="2.552" rx="0.443" ry="0.253"/>
	<path fill="#FFFFFF" d="M7.997,2.886c-0.295,0-0.527-0.147-0.527-0.337s0.232-0.337,0.527-0.337s0.527,0.147,0.527,0.337S8.292,2.886,7.997,2.886z M7.997,2.38c-0.208,0-0.362,0.092-0.362,0.169c0,0.081,0.155,0.169,0.362,0.169s0.362-0.092,0.362-0.169S8.204,2.38,7.997,2.38z"/>
</svg>
