<svg xmlns="http://www.w3.org/2000/svg" width="9" height="9" viewBox="0 0 9 9">
	<style>
		.a{
			fill:#662D91;
		}
		.b{
			fill:#FFF;
		}
	</style>
	<rect width="9" height="9" class="a"/>
	<path d="M4.477 6.785c-0.015 0-0.028-0.004-0.043-0.012C4.409 6.761 4.391 6.732 4.391 6.701v-1.85c0-0.028 0.014-0.056 0.043-0.07l2.088-1.234c0.023-0.014 0.057-0.014 0.084 0C6.63 3.561 6.648 3.589 6.648 3.621v1.85c0 0.027-0.016 0.057-0.043 0.07L4.518 6.773C4.503 6.781 4.489 6.785 4.477 6.785zM4.561 4.901v1.656l1.92-1.136V3.765L4.561 4.901z" class="b"/>
	<path d="M4.477 6.785c-0.015 0-0.028-0.004-0.043-0.012L2.346 5.541C2.32 5.525 2.303 5.498 2.303 5.471v-1.85c0-0.032 0.018-0.056 0.043-0.074 0.024-0.014 0.057-0.014 0.084 0l2.088 1.234C4.557 4.806 4.57 4.855 4.546 4.894S4.473 4.946 4.434 4.922L2.473 3.765v1.656l2.045 1.21C4.557 6.654 4.57 6.704 4.546 6.743 4.532 6.771 4.503 6.785 4.477 6.785z" class="b"/>
	<path d="M2.387 3.706c-0.027 0-0.056-0.014-0.07-0.042 -0.024-0.039-0.01-0.092 0.029-0.113l2.088-1.234c0.039-0.025 0.09-0.011 0.112 0.028C4.57 2.384 4.557 2.437 4.518 2.458L2.43 3.691C2.415 3.702 2.4 3.706 2.387 3.706z" class="b"/>
	<path d="M6.562 3.706c-0.014 0-0.027-0.003-0.041-0.011L4.434 2.461C4.395 2.437 4.38 2.387 4.404 2.349 4.43 2.31 4.479 2.296 4.518 2.32l2.088 1.234c0.039 0.025 0.054 0.074 0.028 0.113C6.62 3.691 6.592 3.706 6.562 3.706z" class="b"/>
	<path d="M4.497 4.412c-0.295 0-0.526-0.147-0.526-0.337V3.748c0-0.045 0.038-0.084 0.084-0.084 0.045 0 0.084 0.039 0.084 0.084v0.327c0 0.081 0.154 0.168 0.361 0.168s0.361-0.091 0.361-0.168V3.748c0-0.045 0.039-0.084 0.084-0.084 0.047 0 0.086 0.039 0.086 0.084v0.327C5.023 4.265 4.792 4.412 4.497 4.412z" class="b"/>
	<path d="M4.497 4.085c-0.295 0-0.526-0.147-0.526-0.337S4.201 3.41 4.497 3.41s0.526 0.147 0.526 0.337S4.792 4.085 4.497 4.085zM4.497 3.579c-0.208 0-0.362 0.091-0.362 0.168 0 0.078 0.155 0.169 0.362 0.169s0.362-0.091 0.362-0.169C4.857 3.67 4.704 3.579 4.497 3.579z" class="b"/>
	<path d="M3.386 3.832c-0.295 0-0.526-0.147-0.526-0.337V3.167c0-0.045 0.039-0.084 0.084-0.084 0.046 0 0.084 0.039 0.084 0.084v0.327c0 0.081 0.154 0.168 0.361 0.168s0.362-0.091 0.362-0.168V3.167c0-0.045 0.039-0.084 0.084-0.084 0.046 0 0.084 0.039 0.084 0.084v0.327C3.913 3.685 3.682 3.832 3.386 3.832z" class="b"/>
	<path d="M3.386 3.505c-0.295 0-0.526-0.147-0.526-0.337S3.09 2.83 3.386 2.83s0.527 0.147 0.527 0.337S3.682 3.505 3.386 3.505zM3.386 2.995c-0.208 0-0.362 0.092-0.362 0.169 0 0.081 0.156 0.169 0.362 0.169 0.207 0 0.362-0.092 0.362-0.169S3.593 2.995 3.386 2.995z" class="b"/>
	<path d="M5.607 3.797C5.312 3.797 5.08 3.65 5.08 3.46V3.132c0-0.045 0.039-0.084 0.084-0.084 0.046 0 0.085 0.039 0.085 0.084v0.327c0 0.081 0.153 0.168 0.362 0.168 0.207 0 0.361-0.091 0.361-0.168V3.132c0-0.045 0.038-0.084 0.084-0.084 0.047 0 0.084 0.039 0.084 0.084v0.327C6.135 3.649 5.902 3.797 5.607 3.797z" class="b"/>
	<path d="M5.607 3.47c-0.295 0-0.527-0.147-0.527-0.337 0-0.19 0.232-0.337 0.527-0.337s0.526 0.147 0.526 0.337C6.134 3.323 5.902 3.47 5.607 3.47zM5.607 2.96c-0.207 0-0.362 0.092-0.362 0.169 0 0.081 0.155 0.169 0.362 0.169s0.363-0.092 0.363-0.169S5.814 2.96 5.607 2.96z" class="b"/>
	<path d="M4.497 3.217c-0.295 0-0.526-0.147-0.526-0.337V2.552c0-0.045 0.038-0.084 0.084-0.084 0.045 0 0.084 0.039 0.084 0.084v0.327c0 0.081 0.153 0.169 0.361 0.169S4.861 2.957 4.861 2.88V2.552c0-0.045 0.039-0.084 0.084-0.084 0.047 0 0.086 0.039 0.086 0.084v0.327C5.023 3.065 4.792 3.217 4.497 3.217z" class="b"/>
	<path d="M4.497 2.886c-0.295 0-0.526-0.146-0.526-0.337 0-0.19 0.231-0.337 0.526-0.337s0.526 0.147 0.526 0.337C5.023 2.739 4.792 2.886 4.497 2.886zM4.497 2.38c-0.208 0-0.362 0.092-0.362 0.169 0 0.081 0.155 0.169 0.362 0.169s0.362-0.092 0.362-0.169C4.859 2.472 4.704 2.38 4.497 2.38z" class="b"/>
</svg>
