<svg xmlns="http://www.w3.org/2000/svg" width="216.95" height="400" viewBox="0 0 216.95 400">
  <path
    d="M209.889 295.272c-9.838-10.501-26.379-11.011-36.88-1.198l-16.414 15.395v-22.378c0-43.176-35.121-78.298-78.297-78.298 -14.388 0-26.1-11.711-26.1-26.099v-26.1c0-14.388 11.712-26.099 26.1-26.099 43.176 0 78.297-35.122 78.297-78.298V26.1c0-14.414-11.673-26.1-26.099-26.1s-26.1 11.686-26.1 26.1v26.099c0 14.388-11.711 26.1-26.099 26.1C35.122 78.298 0 113.419 0 156.595v26.1c0 43.176 35.122 78.297 78.298 78.297 14.388 0 26.099 11.699 26.099 26.1v26.099c0 2.064 0.714 3.874 1.173 5.812l-26.584-24.927c-10.539-9.838-27.029-9.328-36.893 1.198 -9.864 10.5-9.329 27.017 1.185 36.88l64.866 60.788c5.021 4.715 11.418 7.06 17.841 7.06s12.82-2.345 17.841-7.06l64.866-60.788C219.218 322.289 219.753 305.772 209.889 295.272z"/>
</svg>
